<svg width="14" height="27" viewBox="0 0 14 27" fill="none" xmlns="http://www.w3.org/2000/svg">
<path d="M13.28 27V29H15.28V27H13.28ZM13.28 0.199999H15.28V-1.8H13.28V0.199999ZM7.8 0.199999V-1.8H6.56393L6.01115 -0.694428L7.8 0.199999ZM0.4 3.52V1.52H-1.6V3.52H0.4ZM0.4 7.64H-1.6V9.64H0.4V7.64ZM7.28 7.64H9.28V5.64H7.28V7.64ZM7.28 27H5.28V29H7.28V27ZM15.28 27V0.199999H11.28V27H15.28ZM13.28 -1.8H7.8V2.2H13.28V-1.8ZM6.01115 -0.694428C5.51606 0.295737 4.98065 0.771045 4.40502 1.04913C3.76675 1.35747 2.87877 1.52 1.52 1.52V5.52C3.12123 5.52 4.71325 5.34252 6.14498 4.65087C7.63935 3.92895 8.76394 2.74426 9.58885 1.09443L6.01115 -0.694428ZM1.52 1.52H0.4V5.52H1.52V1.52ZM-1.6 3.52V7.64H2.4V3.52H-1.6ZM0.4 9.64H7.28V5.64H0.4V9.64ZM5.28 7.64V27H9.28V7.64H5.28ZM7.28 29H13.28V25H7.28V29Z" fill="#1E1E1E"/>
</svg>
