<svg width="25" height="28" viewBox="0 0 25 28" fill="none" xmlns="http://www.w3.org/2000/svg">
<path d="M24.72 28V30H26.72V28H24.72ZM24.72 22.6H26.72V20.6H24.72V22.6ZM14.24 22.6V20.6H14.1431L14.0466 20.6094L14.24 22.6ZM7.24 23.28H5.24V25.4837L7.43338 25.2706L7.24 23.28ZM11.08 19.6L10.5515 17.6711L10.5215 17.6793L10.4918 17.6884L11.08 19.6ZM16.92 18L17.4485 19.9289L17.4545 19.9273L16.92 18ZM0.96 11.24H-1.04V13.24H0.96V11.24ZM6.84 11.24V13.24H8.84V11.24H6.84ZM15.48 12.88L16.0992 14.7817L16.12 14.775L16.1407 14.7677L15.48 12.88ZM8.6 15.12L7.98081 13.2182L7.96754 13.2226L8.6 15.12ZM0.92 28H-1.08V30H0.92V28ZM26.72 28V22.6H22.72V28H26.72ZM24.72 20.6H14.24V24.6H24.72V20.6ZM14.0466 20.6094L7.04663 21.2894L7.43338 25.2706L14.4334 24.5906L14.0466 20.6094ZM9.24 23.28C9.24 22.943 9.28937 22.7683 9.32436 22.6831C9.35379 22.6115 9.39699 22.5419 9.50117 22.4509C9.7846 22.2032 10.3695 21.9112 11.6682 21.5116L10.4918 17.6884C9.19051 18.0888 7.8554 18.5768 6.86883 19.4391C5.7221 20.4414 5.24 21.754 5.24 23.28H9.24ZM11.6085 21.5289L17.4485 19.9289L16.3915 16.0711L10.5515 17.6711L11.6085 21.5289ZM17.4545 19.9273C19.9852 19.2255 22.326 18.1861 24.0462 16.4971C25.8337 14.7421 26.8 12.434 26.8 9.56H22.8C22.8 11.446 22.2063 12.6979 21.2438 13.6429C20.214 14.6539 18.6148 15.4545 16.3855 16.0727L17.4545 19.9273ZM26.8 9.56C26.8 6.57051 25.8173 3.76667 23.4451 1.75092C21.123 -0.222168 17.7493 -1.2 13.44 -1.2V2.8C17.2107 2.8 19.517 3.66217 20.8549 4.79908C22.1427 5.89333 22.8 7.46949 22.8 9.56H26.8ZM13.44 -1.2C8.63759 -1.2 4.98144 0.074069 2.50672 2.33279C0.019502 4.60292 -1.04 7.65557 -1.04 10.72H2.96C2.96 8.58443 3.6805 6.67708 5.20328 5.28721C6.73856 3.88593 9.32241 2.8 13.44 2.8V-1.2ZM-1.04 10.72V11.24H2.96V10.72H-1.04ZM0.96 13.24H6.84V9.24H0.96V13.24ZM8.84 11.24V10.72H4.84V11.24H8.84ZM8.84 10.72C8.84 9.56748 9.11422 9.20094 9.3963 8.98902C9.83945 8.6561 10.8796 8.28 13.24 8.28V4.28C10.6804 4.28 8.52055 4.6439 6.9937 5.79097C5.30578 7.05906 4.84 8.91252 4.84 10.72H8.84ZM13.24 8.28C15.3691 8.28 16.2396 8.58149 16.5522 8.78681C16.6294 8.83748 16.76 8.86982 16.76 9.48H20.76C20.76 8.05017 20.3306 6.48251 18.7478 5.44319C17.4004 4.55851 15.5109 4.28 13.24 4.28V8.28ZM16.76 9.48C16.76 9.97587 16.6583 10.0577 16.599 10.1176C16.4196 10.2987 15.9741 10.5881 14.8193 10.9923L16.1407 14.7677C17.3859 14.3319 18.5804 13.8013 19.441 12.9324C20.4217 11.9423 20.76 10.7441 20.76 9.48H16.76ZM14.8608 10.9783L7.98083 13.2183L9.21917 17.0217L16.0992 14.7817L14.8608 10.9783ZM7.96754 13.2226C5.01469 14.2069 2.68337 15.4346 1.11863 17.2826C-0.498645 19.1928 -1.08 21.5012 -1.08 24.16H2.92C2.92 22.0988 3.35864 20.8272 4.17137 19.8674C5.03663 18.8454 6.54531 17.9131 9.23246 17.0174L7.96754 13.2226ZM-1.08 24.16V28H2.92V24.16H-1.08ZM0.92 30H24.72V26H0.92V30Z" fill="#1E1E1E"/>
</svg>
