<svg width="26" height="29" viewBox="0 0 26 29" fill="none" xmlns="http://www.w3.org/2000/svg">
<path d="M18.68 14H16.68V15.7346L18.3972 15.9799L18.68 14ZM18.68 13.56L18.4291 11.5758L16.68 11.7969V13.56H18.68ZM0 10.48H-2V12.48H0V10.48ZM6.36 10.48V12.48H8.36V10.48H6.36ZM7.52 11.76V9.76H5.52V11.76H7.52ZM7.52 16.68H5.52V18.68H7.52V16.68ZM6.36 18.28H8.36V16.28H6.36V18.28ZM0 18.28V16.28H-2V18.28H0ZM12.72 30.4C16.8017 30.4 20.3392 29.6968 22.9225 28.0876C25.625 26.404 27.16 23.7924 27.16 20.48H23.16C23.16 22.3676 22.375 23.716 20.8075 24.6924C19.1208 25.7432 16.4383 26.4 12.72 26.4V30.4ZM27.16 20.48C27.16 18.0439 26.344 16.0087 24.7583 14.5213C23.2259 13.0838 21.1634 12.3345 18.9628 12.0201L18.3972 15.9799C20.1166 16.2255 21.2941 16.7562 22.0217 17.4387C22.696 18.0713 23.16 18.9961 23.16 20.48H27.16ZM20.68 14V13.56H16.68V14H20.68ZM18.9309 15.5442C21.0122 15.281 22.8186 14.4967 24.1079 13.1138C25.4081 11.7192 26 9.91066 26 7.96H22C22 9.08934 21.6719 9.86085 21.1821 10.3862C20.6814 10.9233 19.8278 11.399 18.4291 11.5758L18.9309 15.5442ZM26 7.96C26 4.93404 24.6756 2.49943 22.199 0.92286C19.8536 -0.57027 16.6319 -1.2 12.88 -1.2V2.8C16.2881 2.8 18.6264 3.39027 20.051 4.29714C21.3444 5.12057 22 6.26595 22 7.96H26ZM12.88 -1.2C8.26165 -1.2 4.54395 -0.187542 1.93828 1.84929C-0.73471 3.93874 -2 6.92222 -2 10.28H2C2 7.99778 2.81471 6.24126 4.40172 5.00071C6.05605 3.70754 8.77835 2.8 12.88 2.8V-1.2ZM-2 10.28V10.48H2V10.28H-2ZM0 12.48H6.36V8.48H0V12.48ZM8.36 10.48V10.28H4.36V10.48H8.36ZM8.36 10.28C8.36 9.19028 8.59042 9.11595 8.6565 9.07263C9.00976 8.84105 9.95398 8.56 12.36 8.56V4.56C9.96602 4.56 7.91024 4.77895 6.4635 5.72737C4.72959 6.86405 4.36 8.64972 4.36 10.28H8.36ZM12.36 8.56C14.6444 8.56 15.6205 8.78179 15.9989 8.9754C16.1104 9.03247 16.0616 9.03234 16.0188 8.9499C15.9945 8.90295 16.04 8.95258 16.04 9.24H20.04C20.04 8.58742 19.9455 7.83205 19.5687 7.10635C19.1734 6.34516 18.5596 5.79253 17.8211 5.4146C16.4995 4.73821 14.6356 4.56 12.36 4.56V8.56ZM16.04 9.24C16.04 9.45824 16.0058 9.54794 16.0003 9.56084C15.998 9.56631 15.9999 9.56062 16.0078 9.55048C16.0157 9.54029 16.0208 9.53694 16.0162 9.54046C15.9778 9.56973 15.664 9.76 14.68 9.76V13.76C16.016 13.76 17.3822 13.5303 18.4438 12.7195C19.6179 11.823 20.04 10.5216 20.04 9.24H16.04ZM14.68 9.76H7.52V13.76H14.68V9.76ZM5.52 11.76V16.68H9.52V11.76H5.52ZM7.52 18.68H15.24V14.68H7.52V18.68ZM15.24 18.68C16.3499 18.68 16.7864 18.8789 16.9117 18.9697C16.9471 18.9953 16.9576 19.0099 16.9718 19.0421C16.9931 19.0901 17.04 19.2289 17.04 19.52H21.04C21.04 18.0528 20.539 16.6581 19.2583 15.7303C18.1136 14.9011 16.6501 14.68 15.24 14.68V18.68ZM17.04 19.52C17.04 19.8873 16.9767 20.0015 16.973 20.008C16.9715 20.0108 16.9686 20.017 16.9512 20.0325C16.9307 20.0508 16.8771 20.0929 16.764 20.1472C16.1986 20.4188 14.972 20.64 12.44 20.64V24.64C14.9481 24.64 17.0214 24.4612 18.496 23.7528C19.3066 23.3634 20.0009 22.7866 20.462 21.9644C20.9083 21.1685 21.04 20.3127 21.04 19.52H17.04ZM12.44 20.64C11.1571 20.64 10.2366 20.5786 9.57369 20.4683C8.90108 20.3565 8.63011 20.2154 8.54092 20.1539C8.50974 20.1324 8.49686 20.1321 8.46442 20.032C8.40894 19.8609 8.36 19.5426 8.36 18.92H4.36C4.36 20.3454 4.52185 22.2404 6.26908 23.4461C7.03489 23.9746 7.95142 24.2535 8.91756 24.4142C9.89343 24.5764 11.0629 24.64 12.44 24.64V20.64ZM8.36 18.92V18.28H4.36V18.92H8.36ZM6.36 16.28H0V20.28H6.36V16.28ZM-2 18.28V18.92H2V18.28H-2ZM-2 18.92C-2 22.3631 -0.822147 25.3719 1.8432 27.4556C4.42287 29.4724 8.11728 30.4 12.72 30.4V26.4C8.56272 26.4 5.89713 25.5476 4.3068 24.3044C2.80215 23.1281 2 21.3969 2 18.92H-2Z" fill="#1E1E1E"/>
</svg>
