<svg width="160" height="297" viewBox="0 0 160 297" fill="none" xmlns="http://www.w3.org/2000/svg">
<rect x="1" y="1" width="158" height="315" rx="22" fill="white" stroke="#1E1E1E" stroke-width="2"/>
<path opacity="0.35" fill-rule="evenodd" clip-rule="evenodd" d="M136.494 15C135.908 15 135.676 15.0385 135.437 15.1485C135.235 15.2414 135.078 15.3762 134.97 15.5498C134.843 15.7555 134.798 15.9548 134.798 16.4588V18.7062C134.798 19.2102 134.843 19.4095 134.97 19.6152C135.078 19.7888 135.235 19.9236 135.437 20.0165C135.676 20.1265 135.908 20.165 136.494 20.165H145.305C145.891 20.165 146.122 20.1265 146.361 20.0165C146.563 19.9236 146.72 19.7888 146.828 19.6152C146.956 19.4095 147.001 19.2102 147.001 18.7062V16.4588C147.001 15.9548 146.956 15.7555 146.828 15.5498C146.72 15.3762 146.563 15.2414 146.361 15.1485C146.122 15.0385 145.891 15 145.305 15H136.494Z" stroke="black"/>
<path opacity="0.4" d="M95.873 21.0854V23.0848C96.3407 22.9155 96.6447 22.5216 96.6447 22.0851C96.6447 21.6487 96.3407 21.2548 95.873 21.0854Z" fill="black"/>
<path d="M136.662 16H145.135C145.481 16 145.606 16.0309 145.732 16.089C145.858 16.1471 145.957 16.2323 146.025 16.3409C146.092 16.4495 146.128 16.5573 146.128 16.8544V18.8111C146.128 19.1082 146.092 19.2159 146.025 19.3245C145.957 19.4331 145.858 19.5184 145.732 19.5765C145.606 19.6346 145.481 19.6655 145.135 19.6655H136.662C136.317 19.6655 136.192 19.6346 136.065 19.5765C135.939 19.5184 135.84 19.4331 135.772 19.3245C135.705 19.2159 135.669 19.1082 135.669 18.8111V16.8544C135.669 16.5573 135.705 16.4495 135.772 16.3409C135.84 16.2323 135.939 16.1471 136.065 16.089C136.192 16.0309 136.317 16 136.662 16Z" fill="black"/>
<path d="M125.341 16.1422C126.635 16.1423 127.878 16.5693 128.815 17.3351C128.886 17.3943 128.999 17.3935 129.068 17.3335L129.743 16.7483C129.778 16.7178 129.798 16.6766 129.798 16.6337C129.797 16.5907 129.777 16.5497 129.741 16.5196C127.282 14.4935 123.401 14.4935 120.941 16.5196C120.905 16.5497 120.885 16.5907 120.885 16.6336C120.884 16.6766 120.904 16.7178 120.939 16.7483L121.614 17.3335C121.683 17.3936 121.796 17.3944 121.867 17.3351C122.804 16.5693 124.048 16.1422 125.341 16.1422ZM125.341 18.046C126.052 18.046 126.737 18.273 127.264 18.6829C127.335 18.741 127.447 18.7398 127.517 18.68L128.19 18.0948C128.226 18.0642 128.246 18.0225 128.245 17.9792C128.245 17.936 128.224 17.8947 128.188 17.8646C126.584 16.5824 124.1 16.5824 122.496 17.8646C122.46 17.8947 122.44 17.936 122.439 17.9793C122.439 18.0226 122.458 18.0642 122.494 18.0948L123.168 18.68C123.237 18.7398 123.349 18.741 123.42 18.6829C123.947 18.2732 124.631 18.0463 125.341 18.046ZM126.636 19.4426C126.672 19.4122 126.692 19.3703 126.691 19.3269C126.69 19.2836 126.668 19.2425 126.631 19.2134C125.887 18.6722 124.796 18.6722 124.052 19.2134C124.014 19.2424 123.993 19.2835 123.991 19.3269C123.99 19.3703 124.01 19.4121 124.046 19.4426L125.212 20.4536C125.246 20.4833 125.293 20.5 125.341 20.5C125.39 20.5 125.437 20.4833 125.471 20.4536L126.636 19.4426Z" fill="black"/>
<path d="M108.581 18.3344H109.163C109.484 18.3344 109.744 18.5583 109.744 18.8345V19.8348C109.744 20.1111 109.484 20.335 109.163 20.335H108.581C108.26 20.335 108 20.1111 108 19.8348V18.8345C108 18.5583 108.26 18.3344 108.581 18.3344ZM111.295 17.3341H111.876C112.197 17.3341 112.458 17.558 112.458 17.8342V19.8348C112.458 20.1111 112.197 20.335 111.876 20.335H111.295C110.974 20.335 110.713 20.1111 110.713 19.8348V17.8342C110.713 17.558 110.974 17.3341 111.295 17.3341ZM114.008 16.167H114.59C114.911 16.167 115.171 16.391 115.171 16.6672V19.8348C115.171 20.1111 114.911 20.335 114.59 20.335H114.008C113.687 20.335 113.427 20.1111 113.427 19.8348V16.6672C113.427 16.391 113.687 16.167 114.008 16.167ZM116.722 15H117.303C117.624 15 117.885 15.2239 117.885 15.5002V19.8348C117.885 20.1111 117.624 20.335 117.303 20.335H116.722C116.401 20.335 116.14 20.1111 116.14 19.8348V15.5002C116.14 15.2239 116.401 15 116.722 15Z" fill="black"/>
<path d="M15.3011 14.4709C15.5249 14.4727 15.7486 14.5153 15.9723 14.5987C16.196 14.6822 16.4002 14.8207 16.5849 15.0142C16.7695 15.206 16.9178 15.4679 17.0297 15.7999C17.1415 16.1319 17.1974 16.5483 17.1974 17.049C17.1974 17.5337 17.1513 17.9643 17.0589 18.3407C16.9684 18.7154 16.837 19.0314 16.6648 19.2889C16.4943 19.5463 16.2866 19.7417 16.0415 19.8748C15.7983 20.008 15.5231 20.0746 15.2159 20.0746C14.9105 20.0746 14.638 20.0142 14.3983 19.8935C14.1603 19.771 13.965 19.6014 13.8123 19.3848C13.6614 19.1664 13.5646 18.9134 13.522 18.6257H14.1719C14.2305 18.8761 14.3468 19.0829 14.5208 19.2463C14.6966 19.4078 14.9283 19.4886 15.2159 19.4886C15.6367 19.4886 15.9688 19.3049 16.212 18.9373C16.457 18.5698 16.5795 18.0504 16.5795 17.3793H16.5369C16.4375 17.5284 16.3194 17.6571 16.1827 17.7654C16.046 17.8738 15.8942 17.9572 15.7273 18.0158C15.5604 18.0744 15.3828 18.1037 15.1946 18.1037C14.8821 18.1037 14.5953 18.0265 14.3343 17.872C14.0751 17.7157 13.8674 17.5018 13.7111 17.2301C13.5566 16.9567 13.4794 16.6442 13.4794 16.2926C13.4794 15.9588 13.554 15.6534 13.7031 15.3764C13.854 15.0977 14.0653 14.8757 14.337 14.7106C14.6104 14.5455 14.9318 14.4656 15.3011 14.4709ZM15.3011 15.0568C15.0774 15.0568 14.8759 15.1127 14.6966 15.2246C14.519 15.3347 14.3778 15.4838 14.2731 15.6721C14.1701 15.8585 14.1186 16.0653 14.1186 16.2926C14.1186 16.5199 14.1683 16.7267 14.2678 16.9132C14.369 17.0978 14.5066 17.2452 14.6806 17.3553C14.8564 17.4636 15.0561 17.5178 15.2798 17.5178C15.4485 17.5178 15.6056 17.4849 15.7512 17.4192C15.8968 17.3517 16.0238 17.2603 16.1321 17.1449C16.2422 17.0277 16.3283 16.8954 16.3904 16.748C16.4526 16.5989 16.4837 16.4435 16.4837 16.282C16.4837 16.0689 16.4322 15.8691 16.3292 15.6827C16.228 15.4963 16.0877 15.3453 15.9084 15.2299C15.7308 15.1145 15.5284 15.0568 15.3011 15.0568ZM18.7136 19.3022C18.5822 19.3022 18.4694 19.2551 18.3753 19.161C18.2812 19.0669 18.2342 18.9542 18.2342 18.8228C18.2342 18.6914 18.2812 18.5787 18.3753 18.4846C18.4694 18.3904 18.5822 18.3434 18.7136 18.3434C18.8449 18.3434 18.9577 18.3904 19.0518 18.4846C19.1459 18.5787 19.193 18.6914 19.193 18.8228C19.193 18.9098 19.1708 18.9897 19.1264 19.0625C19.0838 19.1353 19.0261 19.1939 18.9533 19.2383C18.8822 19.2809 18.8023 19.3022 18.7136 19.3022ZM18.7136 16.543C18.5822 16.543 18.4694 16.4959 18.3753 16.4018C18.2812 16.3077 18.2342 16.195 18.2342 16.0636C18.2342 15.9322 18.2812 15.8194 18.3753 15.7253C18.4694 15.6312 18.5822 15.5842 18.7136 15.5842C18.8449 15.5842 18.9577 15.6312 19.0518 15.7253C19.1459 15.8194 19.193 15.9322 19.193 16.0636C19.193 16.1506 19.1708 16.2305 19.1264 16.3033C19.0838 16.3761 19.0261 16.4347 18.9533 16.479C18.8822 16.5217 18.8023 16.543 18.7136 16.543ZM20.1824 18.8814V18.3381L22.5794 14.5455H22.9736V15.3871H22.7073L20.8962 18.2528V18.2955H24.1242V18.8814H20.1824ZM22.7499 20V18.7163V18.4632V14.5455H23.3784V20H22.7499ZM26.9666 14.5455V20H26.3061V15.2379H26.2741L24.9425 16.1222V15.451L26.3061 14.5455H26.9666Z" fill="black"/>
<path d="M16.997 38V37.321H14.106V33.31H13.35V38H16.997ZM19.2357 38.07C20.2717 38.07 20.9997 37.559 20.9997 36.817V36.754H20.2437V36.81C20.2437 37.223 19.9427 37.461 19.2147 37.461C18.4097 37.461 18.0807 37.104 18.0527 36.432H21.0067C21.0277 36.327 21.0347 36.229 21.0347 36.103C21.0347 35.046 20.2997 34.451 19.2217 34.451C18.0877 34.451 17.3457 35.179 17.3457 36.264C17.3457 37.426 18.0947 38.07 19.2357 38.07ZM19.2077 35.046C19.9497 35.046 20.3207 35.354 20.3207 35.998V36.012H18.0597C18.1017 35.389 18.4377 35.046 19.2077 35.046ZM23.883 38V37.321H23.253C22.819 37.321 22.623 37.209 22.623 36.782V35.151H23.883V34.521H22.623V33.758H21.874V34.521H21.286V35.151H21.874V36.824C21.874 37.671 22.336 38 23.085 38H23.883ZM24.4819 35.186C24.9159 35.186 25.1679 34.976 25.1679 34.535V33.31H24.2159V34.395H24.6359V34.542C24.6359 34.689 24.5799 34.724 24.4609 34.724H24.2299V35.186H24.4819ZM27.3749 38.07C28.3549 38.07 28.9989 37.685 28.9989 37.034C28.9989 36.46 28.6209 36.18 27.7949 36.075L26.9899 35.963C26.4649 35.893 26.3249 35.795 26.3249 35.522C26.3249 35.193 26.5489 35.053 27.1859 35.053C27.9559 35.053 28.1659 35.27 28.1659 35.683V35.725H28.9149V35.704C28.9149 34.878 28.2709 34.451 27.2069 34.451C26.1359 34.451 25.5829 34.885 25.5829 35.494C25.5829 36.075 25.9819 36.355 26.6399 36.439L27.5919 36.565C28.0889 36.635 28.2569 36.726 28.2569 37.013C28.2569 37.321 28.0539 37.461 27.3749 37.461C26.6469 37.461 26.3739 37.314 26.3739 36.859V36.803H25.6179V36.824C25.6179 37.629 26.2549 38.07 27.3749 38.07ZM31.4966 38V33.31H30.7406V38H31.4966ZM33.9747 38.07C35.1367 38.07 35.9137 37.335 35.9137 36.264C35.9137 35.179 35.1367 34.451 33.9747 34.451C32.8197 34.451 32.0427 35.179 32.0427 36.264C32.0427 37.335 32.8197 38.07 33.9747 38.07ZM33.9747 37.398C33.1347 37.398 32.7847 36.999 32.7847 36.264C32.7847 35.522 33.1347 35.116 33.9747 35.116C34.8217 35.116 35.1717 35.522 35.1717 36.264C35.1717 36.999 34.8217 37.398 33.9747 37.398ZM37.9743 37.685C38.7653 37.685 39.2343 37.307 39.3603 36.782H39.4093V37.636C39.4093 38.413 39.1223 38.63 38.3313 38.63C37.5893 38.63 37.2953 38.441 37.2953 37.937H36.5463C36.5463 38.777 37.2603 39.26 38.2893 39.26C39.4303 39.26 40.1583 38.763 40.1583 37.594V34.521H39.4653V35.389H39.4233C39.2973 34.78 38.7513 34.451 38.0233 34.451C36.9663 34.451 36.3223 35.102 36.3223 36.068C36.3223 37.034 36.9383 37.685 37.9743 37.685ZM37.0853 36.068C37.0853 35.354 37.5123 35.109 38.2403 35.109C38.9753 35.109 39.4093 35.41 39.4093 35.998V36.096C39.4093 36.712 38.9893 37.034 38.2193 37.034C37.5053 37.034 37.0853 36.782 37.0853 36.068ZM41.6138 34.115V33.31H40.8578V34.115H41.6138ZM41.6138 38V34.521H40.8578V38H41.6138ZM43.0699 38V36.278C43.0699 35.522 43.4129 35.13 44.1759 35.13C44.8969 35.13 45.1909 35.459 45.1909 36.11V38H45.9469V35.907C45.9469 35.102 45.4709 34.451 44.5049 34.451C43.6229 34.451 43.1609 35.011 43.0559 35.599H43.0069V34.521H42.3139V38H43.0699ZM48.5728 34.115V33.31H47.8168V34.115H48.5728ZM48.5728 38V34.521H47.8168V38H48.5728ZM50.0289 38V36.278C50.0289 35.522 50.3719 35.13 51.1349 35.13C51.8559 35.13 52.1499 35.459 52.1499 36.11V38H52.9059V35.907C52.9059 35.102 52.4299 34.451 51.4639 34.451C50.5819 34.451 50.1199 35.011 50.0149 35.599H49.9659V34.521H49.2729V38H50.0289ZM55.8615 38V37.321H55.2315C54.7975 37.321 54.6015 37.209 54.6015 36.782V35.151H55.8615V34.521H54.6015V33.758H53.8525V34.521H53.2645V35.151H53.8525V36.824C53.8525 37.671 54.3145 38 55.0635 38H55.8615ZM58.1124 38.07C59.2744 38.07 60.0514 37.335 60.0514 36.264C60.0514 35.179 59.2744 34.451 58.1124 34.451C56.9574 34.451 56.1804 35.179 56.1804 36.264C56.1804 37.335 56.9574 38.07 58.1124 38.07ZM58.1124 37.398C57.2724 37.398 56.9224 36.999 56.9224 36.264C56.9224 35.522 57.2724 35.116 58.1124 35.116C58.9594 35.116 59.3094 35.522 59.3094 36.264C59.3094 36.999 58.9594 37.398 58.1124 37.398ZM62.9723 38V36.817H64.2533C65.3663 36.817 66.0663 36.173 66.0663 35.06C66.0663 33.947 65.3663 33.31 64.2533 33.31H61.6563V38H62.9723ZM64.1063 34.493C64.5683 34.493 64.7573 34.584 64.7573 35.06C64.7573 35.543 64.5683 35.634 64.1063 35.634H62.9723V34.493H64.1063ZM68.2987 38.07C69.5237 38.07 70.3567 37.377 70.3567 36.236C70.3567 35.088 69.5237 34.402 68.2987 34.402C67.0737 34.402 66.2407 35.088 66.2407 36.236C66.2407 37.377 67.0737 38.07 68.2987 38.07ZM68.2987 36.908C67.7037 36.908 67.5427 36.747 67.5427 36.236C67.5427 35.725 67.7037 35.557 68.2987 35.557C68.8937 35.557 69.0547 35.725 69.0547 36.236C69.0547 36.747 68.8937 36.908 68.2987 36.908ZM72.6539 38.07C73.8579 38.07 74.6279 37.447 74.6279 36.509V36.39H73.3189V36.453C73.3189 36.817 73.0529 36.887 72.6259 36.887C72.1429 36.887 71.9119 36.782 71.9119 36.236C71.9119 35.683 72.1429 35.578 72.6259 35.578C73.0529 35.578 73.3189 35.655 73.3189 36.019V36.075H74.6279V35.963C74.6279 35.018 73.8579 34.402 72.6539 34.402C71.4009 34.402 70.6029 35.088 70.6029 36.236C70.6029 37.377 71.4009 38.07 72.6539 38.07ZM76.2955 38V36.873H76.9325L77.6745 38H79.2285L77.9965 36.187L79.2495 34.472H77.6955L76.9185 35.697H76.2955V33.31H74.9795V38H76.2955ZM81.3557 38.07C82.5457 38.07 83.2947 37.517 83.2947 36.733V36.649H81.9787V36.726C81.9787 36.936 81.8387 37.027 81.3067 37.027C80.7467 37.027 80.5577 36.908 80.5367 36.481H83.3017C83.3157 36.355 83.3227 36.264 83.3227 36.145C83.3227 35.011 82.5457 34.402 81.3277 34.402C80.1517 34.402 79.3187 35.088 79.3187 36.236C79.3187 37.559 80.1587 38.07 81.3557 38.07ZM81.2997 35.41C81.7897 35.41 81.9997 35.515 82.0487 35.816H80.5577C80.6137 35.515 80.8167 35.41 81.2997 35.41ZM86.3138 38V36.817H85.6838C85.3828 36.817 85.2988 36.747 85.2988 36.467V35.55H86.3138V34.472H85.2988V33.863H83.9828V34.472H83.4648V35.55H83.9828V36.656C83.9828 37.573 84.5078 38 85.3898 38H86.3138ZM88.9215 38V36.817H90.2025C91.3155 36.817 92.0155 36.173 92.0155 35.06C92.0155 33.947 91.3155 33.31 90.2025 33.31H87.6055V38H88.9215ZM90.0555 34.493C90.5175 34.493 90.7065 34.584 90.7065 35.06C90.7065 35.543 90.5175 35.634 90.0555 35.634H88.9215V34.493H90.0555ZM93.436 38.07C94.199 38.07 94.633 37.755 94.766 37.258H94.836V38H96.068V35.991C96.068 35.004 95.473 34.402 94.241 34.402C93.044 34.402 92.26 35.004 92.26 35.942V35.956H93.576V35.928C93.576 35.634 93.709 35.55 94.143 35.55C94.612 35.55 94.766 35.606 94.766 35.963V36.033L93.331 36.173C92.533 36.25 92.19 36.607 92.19 37.104C92.19 37.706 92.638 38.07 93.436 38.07ZM93.513 37.02C93.513 36.943 93.562 36.901 93.681 36.887L94.759 36.761C94.724 37.076 94.465 37.153 93.828 37.153C93.625 37.153 93.513 37.132 93.513 37.02ZM97.774 38V33.31H96.458V38H97.774ZM99.9024 38V36.656H98.1944V38H99.9024Z" fill="#1E1E1E"/>
<path d="M14.15 48H14.63L15.515 45.14L16.39 48H16.86L17.95 44.385H17.45L16.785 46.6C16.735 46.76 16.685 46.945 16.625 47.25C16.57 46.98 16.52 46.79 16.46 46.595L15.78 44.385H15.25L14.565 46.595C14.51 46.785 14.455 46.96 14.395 47.25C14.345 46.975 14.295 46.785 14.245 46.595L13.585 44.385H13.075L14.15 48ZM19.102 48.06C19.707 48.06 20.117 47.765 20.237 47.24H19.797C19.717 47.52 19.477 47.67 19.112 47.67C18.647 47.67 18.377 47.385 18.342 46.87L20.232 46.865V46.69C20.232 45.965 19.777 45.485 19.082 45.485C18.372 45.485 17.887 46.015 17.887 46.78C17.887 47.54 18.382 48.06 19.102 48.06ZM19.082 45.88C19.497 45.88 19.762 46.15 19.762 46.555H18.352C18.412 46.125 18.672 45.88 19.082 45.88ZM21.9642 46.78C21.9642 47.55 22.4392 48.06 23.1592 48.06C23.7492 48.06 24.2042 47.705 24.2992 47.175H23.8292C23.7442 47.465 23.4942 47.64 23.1592 47.64C22.7142 47.64 22.4292 47.3 22.4292 46.775C22.4292 46.245 22.7342 45.905 23.1792 45.905C23.4942 45.905 23.7442 46.07 23.8242 46.38H24.2942C24.2092 45.835 23.7792 45.485 23.1642 45.485C22.4492 45.485 21.9642 46.015 21.9642 46.78ZM24.6351 46.775C24.6351 47.53 25.1751 48.06 25.9101 48.06C26.6401 48.06 27.1801 47.53 27.1801 46.775C27.1801 46.02 26.6401 45.49 25.9101 45.49C25.1751 45.49 24.6351 46.02 24.6351 46.775ZM25.1101 46.775C25.1101 46.265 25.4351 45.91 25.9101 45.91C26.3801 45.91 26.7101 46.265 26.7101 46.775C26.7101 47.285 26.3801 47.64 25.9101 47.64C25.4351 47.64 25.1101 47.285 25.1101 46.775ZM28.273 48H28.738L29.758 45.555H29.268L28.723 46.92C28.638 47.135 28.558 47.345 28.518 47.505C28.478 47.355 28.408 47.15 28.323 46.92L27.788 45.555H27.288L28.273 48ZM31.0747 48.06C31.6797 48.06 32.0897 47.765 32.2097 47.24H31.7697C31.6897 47.52 31.4497 47.67 31.0847 47.67C30.6197 47.67 30.3497 47.385 30.3147 46.87L32.2047 46.865V46.69C32.2047 45.965 31.7497 45.485 31.0547 45.485C30.3447 45.485 29.8597 46.015 29.8597 46.78C29.8597 47.54 30.3547 48.06 31.0747 48.06ZM31.0547 45.88C31.4697 45.88 31.7347 46.15 31.7347 46.555H30.3247C30.3847 46.125 30.6447 45.88 31.0547 45.88ZM34.1296 45.535C34.0346 45.515 33.9646 45.505 33.8796 45.505C33.5446 45.505 33.2996 45.675 33.1996 45.93L33.1696 45.56H32.7296V48H33.1996V46.705C33.1996 46.235 33.4746 45.965 33.9196 45.965H34.1296V45.535ZM36.6527 48.06C37.0477 48.06 37.3827 47.885 37.5077 47.605L37.5577 48H37.9577V46.465C37.9577 45.805 37.5477 45.485 36.9427 45.485C36.3127 45.485 35.8927 45.82 35.8927 46.33H36.3027C36.3027 46.035 36.5277 45.86 36.9227 45.86C37.2527 45.86 37.4977 46.005 37.4977 46.415V46.485L36.7277 46.545C36.1527 46.59 35.8177 46.87 35.8177 47.32C35.8177 47.765 36.1277 48.06 36.6527 48.06ZM36.7877 47.695C36.4827 47.695 36.2927 47.565 36.2927 47.305C36.2927 47.065 36.4627 46.905 36.8777 46.865L37.5027 46.815V46.945C37.5027 47.405 37.2327 47.695 36.7877 47.695ZM39.0886 48V44.32H38.6186V48H39.0886ZM40.2604 48V44.32H39.7904V48H40.2604ZM42.0845 49.095C42.2095 49.125 42.3395 49.145 42.4945 49.145C42.8695 49.145 43.1145 48.97 43.2795 48.55L44.4345 45.555H43.9495L43.2245 47.525L42.5145 45.555H42.0195L43.0045 48.13L42.9195 48.365C42.8045 48.675 42.6245 48.71 42.3995 48.71H42.0845V49.095ZM44.557 46.775C44.557 47.53 45.097 48.06 45.832 48.06C46.562 48.06 47.102 47.53 47.102 46.775C47.102 46.02 46.562 45.49 45.832 45.49C45.097 45.49 44.557 46.02 44.557 46.775ZM45.032 46.775C45.032 46.265 45.357 45.91 45.832 45.91C46.302 45.91 46.632 46.265 46.632 46.775C46.632 47.285 46.302 47.64 45.832 47.64C45.357 47.64 45.032 47.285 45.032 46.775ZM49.2536 45.555V46.845C49.2536 47.37 49.0186 47.645 48.5886 47.645C48.2286 47.645 48.0036 47.445 48.0036 46.92V45.555H47.5336V47.075C47.5336 47.675 47.8536 48.06 48.4236 48.06C48.7836 48.06 49.1086 47.885 49.2486 47.63L49.2986 48H49.7186V45.555H49.2536ZM51.8005 45.535C51.7055 45.515 51.6355 45.505 51.5505 45.505C51.2155 45.505 50.9705 45.675 50.8705 45.93L50.8405 45.56H50.4005V48H50.8705V46.705C50.8705 46.235 51.1455 45.965 51.5905 45.965H51.8005V45.535ZM54.0336 48L54.0686 47.555C54.2286 47.89 54.5536 48.06 54.9386 48.06C55.6486 48.06 56.0886 47.53 56.0886 46.79C56.0886 46.035 55.6686 45.485 54.9686 45.485C54.5686 45.485 54.2386 45.655 54.0786 45.975V44.32H53.6086V48H54.0336ZM54.0836 46.77C54.0836 46.27 54.3736 45.91 54.8536 45.91C55.3336 45.91 55.6186 46.27 55.6186 46.77C55.6186 47.275 55.3336 47.635 54.8536 47.635C54.3736 47.635 54.0836 47.28 54.0836 46.77ZM58.238 45.555V46.845C58.238 47.37 58.003 47.645 57.573 47.645C57.213 47.645 56.988 47.445 56.988 46.92V45.555H56.518V47.075C56.518 47.675 56.838 48.06 57.408 48.06C57.768 48.06 58.093 47.885 58.233 47.63L58.283 48H58.703V45.555H58.238ZM60.3161 48.06C60.7061 48.06 61.0361 47.89 61.1961 47.555L61.2361 48H61.6561V44.32H61.1911V45.95C61.0261 45.65 60.7111 45.485 60.3361 45.485C59.6111 45.485 59.1761 46.035 59.1761 46.785C59.1761 47.53 59.6061 48.06 60.3161 48.06ZM60.4111 47.635C59.9311 47.635 59.6511 47.275 59.6511 46.77C59.6511 46.27 59.9311 45.91 60.4111 45.91C60.8911 45.91 61.1861 46.27 61.1861 46.77C61.1861 47.28 60.8911 47.635 60.4111 47.635ZM62.1791 46.715C62.1791 47.4 62.6191 47.935 63.3141 47.935C63.6991 47.935 64.0191 47.765 64.1791 47.48V47.97C64.1791 48.435 63.8791 48.735 63.4191 48.735C63.0091 48.735 62.7391 48.525 62.6791 48.165H62.2091C62.2991 48.785 62.7541 49.16 63.4191 49.16C64.1691 49.16 64.6441 48.67 64.6441 47.9V45.555H64.2241L64.1891 45.97C64.0341 45.665 63.7291 45.485 63.3341 45.485C62.6241 45.485 62.1791 46.025 62.1791 46.715ZM62.6491 46.705C62.6491 46.255 62.9291 45.895 63.3991 45.895C63.8791 45.895 64.1591 46.235 64.1591 46.705C64.1591 47.185 63.8691 47.525 63.3941 47.525C62.9341 47.525 62.6491 47.165 62.6491 46.705ZM66.3774 48.06C66.9824 48.06 67.3924 47.765 67.5124 47.24H67.0724C66.9924 47.52 66.7524 47.67 66.3874 47.67C65.9224 47.67 65.6524 47.385 65.6174 46.87L67.5074 46.865V46.69C67.5074 45.965 67.0524 45.485 66.3574 45.485C65.6474 45.485 65.1624 46.015 65.1624 46.78C65.1624 47.54 65.6574 48.06 66.3774 48.06ZM66.3574 45.88C66.7724 45.88 67.0374 46.15 67.0374 46.555H65.6274C65.6874 46.125 65.9474 45.88 66.3574 45.88ZM68.698 48V45.95H69.178V45.555H68.698V44.79H68.228V45.555H67.748V45.95H68.228V48H68.698ZM71.492 48H71.957L72.382 46.695C72.472 46.4 72.517 46.24 72.542 46.12C72.567 46.255 72.617 46.445 72.697 46.69L73.122 48H73.567L74.402 45.555H73.912L73.502 46.825C73.432 47.04 73.387 47.21 73.347 47.405C73.307 47.23 73.227 46.945 73.187 46.825L72.782 45.555H72.302L71.892 46.825C71.837 46.985 71.772 47.19 71.732 47.405C71.687 47.19 71.637 47.005 71.582 46.825L71.177 45.555H70.692L71.492 48ZM74.5325 46.775C74.5325 47.53 75.0725 48.06 75.8075 48.06C76.5375 48.06 77.0775 47.53 77.0775 46.775C77.0775 46.02 76.5375 45.49 75.8075 45.49C75.0725 45.49 74.5325 46.02 74.5325 46.775ZM75.0075 46.775C75.0075 46.265 75.3325 45.91 75.8075 45.91C76.2775 45.91 76.6075 46.265 76.6075 46.775C76.6075 47.285 76.2775 47.64 75.8075 47.64C75.3325 47.64 75.0075 47.285 75.0075 46.775ZM78.9978 45.535C78.9028 45.515 78.8328 45.505 78.7478 45.505C78.4128 45.505 78.1678 45.675 78.0678 45.93L78.0378 45.56H77.5978V48H78.0678V46.705C78.0678 46.235 78.3428 45.965 78.7878 45.965H78.9978V45.535ZM80.8386 45.535C80.7436 45.515 80.6736 45.505 80.5886 45.505C80.2536 45.505 80.0086 45.675 79.9086 45.93L79.8786 45.56H79.4386V48H79.9086V46.705C79.9086 46.235 80.1836 45.965 80.6286 45.965H80.8386V45.535ZM81.5095 44.975C81.6795 44.975 81.8195 44.835 81.8195 44.665C81.8195 44.49 81.6795 44.355 81.5095 44.355C81.3395 44.355 81.1995 44.49 81.1995 44.665C81.1995 44.835 81.3395 44.975 81.5095 44.975ZM81.2795 48H81.7495V45.555H81.2795V48ZM83.4868 48.06C84.0918 48.06 84.5018 47.765 84.6218 47.24H84.1818C84.1018 47.52 83.8618 47.67 83.4968 47.67C83.0318 47.67 82.7618 47.385 82.7268 46.87L84.6168 46.865V46.69C84.6168 45.965 84.1618 45.485 83.4668 45.485C82.7568 45.485 82.2718 46.015 82.2718 46.78C82.2718 47.54 82.7668 48.06 83.4868 48.06ZM83.4668 45.88C83.8818 45.88 84.1468 46.15 84.1468 46.555H82.7368C82.7968 46.125 83.0568 45.88 83.4668 45.88ZM84.9418 47.29C84.9418 47.755 85.3068 48.06 85.8818 48.06C86.4618 48.06 86.8618 47.765 86.8618 47.3C86.8618 46.935 86.6568 46.745 86.2418 46.645L85.8118 46.54C85.5718 46.48 85.4518 46.37 85.4518 46.205C85.4518 45.98 85.6168 45.85 85.9118 45.85C86.1968 45.85 86.3618 46.005 86.3718 46.25H86.8218C86.8118 45.785 86.4618 45.485 85.9268 45.485C85.3868 45.485 85.0068 45.77 85.0068 46.22C85.0068 46.58 85.2118 46.795 85.6468 46.9L86.0768 47C86.3318 47.065 86.4118 47.165 86.4118 47.33C86.4118 47.555 86.2218 47.69 85.8918 47.69C85.5818 47.69 85.3918 47.54 85.3918 47.29H84.9418Z" fill="#1E1E1E"/>
<rect x="14.2295" y="60.5308" width="129.52" height="19.3539" rx="2.75" fill="white" stroke="#1E1E1E" stroke-width="0.5"/>
<rect x="13.25" y="59.25" width="129.52" height="19.3539" rx="2.75" fill="#FFFEE8" stroke="#1E1E1E" stroke-width="0.5"/>
<rect x="13.25" y="59.25" width="129.52" height="19.3539" rx="2.75" fill="white" stroke="#1E1E1E" stroke-width="0.5"/>
<rect x="14.2295" y="96.5308" width="129.52" height="19.3539" rx="2.75" fill="#FFFEE8" stroke="#1E1E1E" stroke-width="0.5"/>
<rect x="13.25" y="95.25" width="129.52" height="19.3539" rx="2.75" fill="#FFFEE8" stroke="#1E1E1E" stroke-width="0.5"/>
<rect x="13.25" y="95.25" width="129.52" height="19.3539" rx="2.75" fill="white" stroke="#1E1E1E" stroke-width="0.5"/>
<rect x="14.2275" y="128.523" width="53.5852" height="19.2273" rx="1.75" fill="#FFFEE8" stroke="#1E1E1E" stroke-width="0.5"/>
<rect x="13.25" y="127.25" width="53.5852" height="19.2273" rx="1.75" fill="#FFFEE8" stroke="#1E1E1E" stroke-width="0.5"/>
<rect x="13.25" y="127.25" width="53.5852" height="19.2273" rx="1.75" fill="#1D1D1D" stroke="#1E1E1E" stroke-width="0.5"/>
<rect x="89.2275" y="128.523" width="53.5852" height="19.2273" rx="1.75" fill="#FFFEE8" stroke="#1E1E1E" stroke-width="0.5"/>
<rect x="88.25" y="127.25" width="53.5852" height="19.2273" rx="1.75" fill="#FFFEE8" stroke="#1E1E1E" stroke-width="0.5"/>
<rect x="88.25" y="127.25" width="53.5852" height="19.2273" rx="1.75" fill="#C6BCFA" stroke="#1E1E1E" stroke-width="0.5"/>
<path d="M24.254 72V70.362H25.196L25.94 72H26.78L25.946 70.2C26.462 69.99 26.738 69.57 26.738 68.982C26.738 68.118 26.156 67.614 25.16 67.614H23.486V72H24.254ZM24.254 68.298H25.16C25.646 68.298 25.934 68.544 25.934 68.982C25.934 69.426 25.646 69.684 25.16 69.684H24.254V68.298ZM28.1623 72.078C28.6243 72.078 29.0263 71.868 29.1523 71.562L29.2063 72H29.8483V70.2C29.8483 69.378 29.3563 68.946 28.5583 68.946C27.7543 68.946 27.2263 69.366 27.2263 70.008H27.8503C27.8503 69.696 28.0903 69.516 28.5223 69.516C28.8943 69.516 29.1343 69.678 29.1343 70.08V70.146L28.2463 70.212C27.5443 70.266 27.1483 70.608 27.1483 71.154C27.1483 71.712 27.5323 72.078 28.1623 72.078ZM28.4023 71.526C28.0723 71.526 27.8923 71.394 27.8923 71.124C27.8923 70.884 28.0663 70.734 28.5223 70.692L29.1403 70.644V70.8C29.1403 71.256 28.8523 71.526 28.4023 71.526ZM30.5675 73.374H31.2995V71.604C31.4855 71.904 31.8695 72.078 32.3135 72.078C33.1955 72.078 33.6995 71.406 33.6995 70.482C33.6995 69.552 33.1475 68.946 32.3135 68.946C31.8635 68.946 31.4735 69.144 31.2935 69.486L31.2455 69.036H30.5675V73.374ZM31.3055 70.518C31.3055 69.984 31.6355 69.612 32.1395 69.612C32.6555 69.612 32.9615 69.99 32.9615 70.518C32.9615 71.046 32.6555 71.418 32.1395 71.418C31.6355 71.418 31.3055 71.052 31.3055 70.518ZM35.0143 72V70.38C35.0143 69.936 35.2843 69.612 35.7463 69.612C36.1183 69.612 36.3643 69.852 36.3643 70.35V72H37.0963V70.176C37.0963 69.408 36.7123 68.946 35.9803 68.946C35.5543 68.946 35.2063 69.132 35.0203 69.42V67.536H34.2823V72H35.0143ZM38.6975 72.078C39.1595 72.078 39.5615 71.868 39.6875 71.562L39.7415 72H40.3835V70.2C40.3835 69.378 39.8915 68.946 39.0935 68.946C38.2895 68.946 37.7615 69.366 37.7615 70.008H38.3855C38.3855 69.696 38.6255 69.516 39.0575 69.516C39.4295 69.516 39.6695 69.678 39.6695 70.08V70.146L38.7815 70.212C38.0795 70.266 37.6835 70.608 37.6835 71.154C37.6835 71.712 38.0675 72.078 38.6975 72.078ZM38.9375 71.526C38.6075 71.526 38.4275 71.394 38.4275 71.124C38.4275 70.884 38.6015 70.734 39.0575 70.692L39.6755 70.644V70.8C39.6755 71.256 39.3875 71.526 38.9375 71.526ZM42.4286 72.078C43.2026 72.078 43.7426 71.688 43.8686 71.04H43.1906C43.1066 71.322 42.8426 71.478 42.4406 71.478C41.9546 71.478 41.6786 71.214 41.6246 70.692L43.8566 70.686V70.464C43.8566 69.54 43.2926 68.946 42.4046 68.946C41.5346 68.946 40.9286 69.588 40.9286 70.518C40.9286 71.436 41.5466 72.078 42.4286 72.078ZM42.4106 69.546C42.8486 69.546 43.1306 69.816 43.1306 70.224H41.6426C41.7146 69.78 41.9786 69.546 42.4106 69.546ZM45.1805 72V67.536H44.4545V72H45.1805ZM47.1423 70.65C47.1423 71.172 47.5083 71.49 48.1143 71.49C48.5463 71.49 48.9363 71.28 49.0563 70.98C49.1403 71.31 49.4043 71.49 49.8183 71.49C50.5083 71.49 50.9523 70.884 50.9523 69.96C50.9523 68.556 49.8903 67.536 48.4263 67.536C46.9563 67.536 45.8523 68.634 45.8523 70.104C45.8523 71.58 46.9503 72.678 48.4263 72.678C48.9603 72.678 49.4643 72.522 49.8843 72.222L49.6743 71.814C49.2963 72.078 48.8583 72.228 48.4263 72.228C47.2263 72.228 46.3383 71.322 46.3383 70.104C46.3383 68.892 47.2263 67.986 48.4263 67.986C49.6203 67.986 50.4663 68.808 50.4663 69.96C50.4663 70.608 50.2443 71.046 49.9143 71.046C49.7103 71.046 49.6083 70.938 49.6083 70.71V69.78C49.6083 69.054 49.1823 68.64 48.4323 68.64C47.6943 68.64 47.2203 69.024 47.2203 69.606H47.7843C47.7843 69.318 48.0063 69.156 48.4023 69.156C48.7683 69.156 48.9603 69.33 48.9603 69.672V69.732L48.1503 69.798C47.4903 69.846 47.1423 70.17 47.1423 70.65ZM47.8203 70.626C47.8203 70.392 47.9883 70.272 48.3963 70.236L48.9663 70.188V70.332C48.9663 70.74 48.7083 70.986 48.2883 70.986C47.9763 70.986 47.8203 70.866 47.8203 70.626ZM51.4463 70.452C51.4463 71.31 51.9983 71.94 52.8383 71.94C53.2643 71.94 53.6303 71.766 53.8163 71.49V71.982C53.8163 72.474 53.4923 72.792 52.9883 72.792C52.5383 72.792 52.2443 72.564 52.1963 72.18H51.4643C51.5543 72.972 52.1363 73.458 52.9883 73.458C53.9483 73.458 54.5423 72.84 54.5423 71.85V69.036H53.8643L53.8223 69.444C53.6483 69.126 53.3003 68.94 52.8563 68.94C52.0103 68.94 51.4463 69.588 51.4463 70.452ZM52.1843 70.434C52.1843 69.948 52.4963 69.582 52.9823 69.582C53.4923 69.582 53.7983 69.93 53.7983 70.434C53.7983 70.95 53.4863 71.304 52.9823 71.304C52.5023 71.304 52.1843 70.932 52.1843 70.434ZM56.0319 72V70.32C56.0319 69.84 56.3139 69.612 56.6619 69.612C57.0099 69.612 57.2319 69.834 57.2319 70.248V72H57.9639V70.32C57.9639 69.834 58.2339 69.606 58.5879 69.606C58.9359 69.606 59.1639 69.828 59.1639 70.254V72H59.8899V70.062C59.8899 69.378 59.4939 68.946 58.7739 68.946C58.3239 68.946 57.9759 69.168 57.8259 69.51C57.6699 69.168 57.3579 68.946 56.9079 68.946C56.4819 68.946 56.1819 69.138 56.0319 69.384L55.9719 69.036H55.2999V72H56.0319ZM61.4905 72.078C61.9525 72.078 62.3545 71.868 62.4805 71.562L62.5345 72H63.1765V70.2C63.1765 69.378 62.6845 68.946 61.8865 68.946C61.0825 68.946 60.5545 69.366 60.5545 70.008H61.1785C61.1785 69.696 61.4185 69.516 61.8505 69.516C62.2225 69.516 62.4625 69.678 62.4625 70.08V70.146L61.5745 70.212C60.8725 70.266 60.4765 70.608 60.4765 71.154C60.4765 71.712 60.8605 72.078 61.4905 72.078ZM61.7305 71.526C61.4005 71.526 61.2205 71.394 61.2205 71.124C61.2205 70.884 61.3945 70.734 61.8505 70.692L62.4685 70.644V70.8C62.4685 71.256 62.1805 71.526 61.7305 71.526ZM64.2616 68.442C64.5016 68.442 64.6996 68.244 64.6996 67.998C64.6996 67.752 64.5016 67.56 64.2616 67.56C64.0096 67.56 63.8116 67.752 63.8116 67.998C63.8116 68.244 64.0096 68.442 64.2616 68.442ZM63.8956 72H64.6276V69.036H63.8956V72ZM66.1219 72V67.536H65.3959V72H66.1219ZM67.3817 72.072C67.6457 72.072 67.8677 71.856 67.8677 71.598C67.8677 71.334 67.6457 71.118 67.3817 71.118C67.1177 71.118 66.8957 71.334 66.8957 71.598C66.8957 71.856 67.1177 72.072 67.3817 72.072ZM68.2802 70.512C68.2802 71.454 68.8682 72.078 69.7682 72.078C70.5422 72.078 71.1182 71.604 71.2082 70.914H70.4702C70.3922 71.238 70.1342 71.418 69.7682 71.418C69.3002 71.418 69.0122 71.07 69.0122 70.512C69.0122 69.954 69.3242 69.6 69.7922 69.6C70.1402 69.6 70.3862 69.774 70.4702 70.11H71.2022C71.1242 69.396 70.5722 68.946 69.7622 68.946C68.8862 68.946 68.2802 69.594 68.2802 70.512ZM71.579 70.512C71.579 71.436 72.245 72.072 73.163 72.072C74.081 72.072 74.747 71.436 74.747 70.512C74.747 69.588 74.081 68.952 73.163 68.952C72.245 68.952 71.579 69.588 71.579 70.512ZM72.311 70.512C72.311 69.972 72.659 69.606 73.163 69.606C73.667 69.606 74.015 69.972 74.015 70.512C74.015 71.052 73.667 71.418 73.163 71.418C72.659 71.418 72.311 71.052 72.311 70.512ZM76.0592 72V70.32C76.0592 69.84 76.3412 69.612 76.6892 69.612C77.0372 69.612 77.2592 69.834 77.2592 70.248V72H77.9912V70.32C77.9912 69.834 78.2612 69.606 78.6152 69.606C78.9632 69.606 79.1912 69.828 79.1912 70.254V72H79.9172V70.062C79.9172 69.378 79.5212 68.946 78.8012 68.946C78.3512 68.946 78.0032 69.168 77.8532 69.51C77.6972 69.168 77.3852 68.946 76.9352 68.946C76.5092 68.946 76.2092 69.138 76.0592 69.384L75.9992 69.036H75.3272V72H76.0592Z" fill="#1E1E1E"/>
<a href="mailto:Raphael@gmail.com">
<rect fill="black" fill-opacity="0" y="-0.0500002" width="57.2592" height="8.1"/>
</a>
<path d="M25.19 106.452C26.036 106.452 26.588 105.864 26.588 105.054C26.588 104.22 26.042 103.662 25.19 103.662H23.504V108H24.092V106.452H25.19ZM25.088 104.19C25.64 104.19 25.97 104.502 25.97 105.048C25.97 105.582 25.646 105.924 25.064 105.924H24.092V104.19H25.088ZM27.8988 108.072C28.3728 108.072 28.7748 107.862 28.9248 107.526L28.9848 108H29.4648V106.158C29.4648 105.366 28.9728 104.982 28.2468 104.982C27.4908 104.982 26.9868 105.384 26.9868 105.996H27.4788C27.4788 105.642 27.7488 105.432 28.2228 105.432C28.6188 105.432 28.9128 105.606 28.9128 106.098V106.182L27.9888 106.254C27.2988 106.308 26.8968 106.644 26.8968 107.184C26.8968 107.718 27.2688 108.072 27.8988 108.072ZM28.0608 107.634C27.6948 107.634 27.4668 107.478 27.4668 107.166C27.4668 106.878 27.6708 106.686 28.1688 106.638L28.9188 106.578V106.734C28.9188 107.286 28.5948 107.634 28.0608 107.634ZM30.0059 107.148C30.0059 107.706 30.4439 108.072 31.1339 108.072C31.8299 108.072 32.3099 107.718 32.3099 107.16C32.3099 106.722 32.0639 106.494 31.5659 106.374L31.0499 106.248C30.7619 106.176 30.6179 106.044 30.6179 105.846C30.6179 105.576 30.8159 105.42 31.1699 105.42C31.5119 105.42 31.7099 105.606 31.7219 105.9H32.2619C32.2499 105.342 31.8299 104.982 31.1879 104.982C30.5399 104.982 30.0839 105.324 30.0839 105.864C30.0839 106.296 30.3299 106.554 30.8519 106.68L31.3679 106.8C31.6739 106.878 31.7699 106.998 31.7699 107.196C31.7699 107.466 31.5419 107.628 31.1459 107.628C30.7739 107.628 30.5459 107.448 30.5459 107.148H30.0059ZM32.6953 107.148C32.6953 107.706 33.1333 108.072 33.8233 108.072C34.5193 108.072 34.9993 107.718 34.9993 107.16C34.9993 106.722 34.7533 106.494 34.2553 106.374L33.7393 106.248C33.4513 106.176 33.3073 106.044 33.3073 105.846C33.3073 105.576 33.5053 105.42 33.8593 105.42C34.2013 105.42 34.3993 105.606 34.4113 105.9H34.9513C34.9393 105.342 34.5193 104.982 33.8773 104.982C33.2293 104.982 32.7733 105.324 32.7733 105.864C32.7733 106.296 33.0193 106.554 33.5413 106.68L34.0573 106.8C34.3633 106.878 34.4593 106.998 34.4593 107.196C34.4593 107.466 34.2313 107.628 33.8353 107.628C33.4633 107.628 33.2353 107.448 33.2353 107.148H32.6953ZM36.1845 108H36.7425L37.2525 106.434C37.3605 106.08 37.4145 105.888 37.4445 105.744C37.4745 105.906 37.5345 106.134 37.6305 106.428L38.1405 108H38.6745L39.6765 105.066H39.0885L38.5965 106.59C38.5125 106.848 38.4585 107.052 38.4105 107.286C38.3625 107.076 38.2665 106.734 38.2185 106.59L37.7325 105.066H37.1565L36.6645 106.59C36.5985 106.782 36.5205 107.028 36.4725 107.286C36.4185 107.028 36.3585 106.806 36.2925 106.59L35.8065 105.066H35.2245L36.1845 108ZM39.8332 106.53C39.8332 107.436 40.4812 108.072 41.3632 108.072C42.2392 108.072 42.8872 107.436 42.8872 106.53C42.8872 105.624 42.2392 104.988 41.3632 104.988C40.4812 104.988 39.8332 105.624 39.8332 106.53ZM40.4032 106.53C40.4032 105.918 40.7932 105.492 41.3632 105.492C41.9272 105.492 42.3232 105.918 42.3232 106.53C42.3232 107.142 41.9272 107.568 41.3632 107.568C40.7932 107.568 40.4032 107.142 40.4032 106.53ZM45.1915 105.042C45.0775 105.018 44.9935 105.006 44.8915 105.006C44.4895 105.006 44.1955 105.21 44.0755 105.516L44.0395 105.072H43.5115V108H44.0755V106.446C44.0755 105.882 44.4055 105.558 44.9395 105.558H45.1915V105.042ZM46.791 108.072C47.259 108.072 47.655 107.868 47.847 107.466L47.895 108H48.399V103.584H47.841V105.54C47.643 105.18 47.265 104.982 46.815 104.982C45.945 104.982 45.423 105.642 45.423 106.542C45.423 107.436 45.939 108.072 46.791 108.072ZM46.905 107.562C46.329 107.562 45.993 107.13 45.993 106.524C45.993 105.924 46.329 105.492 46.905 105.492C47.481 105.492 47.835 105.924 47.835 106.524C47.835 107.136 47.481 107.562 46.905 107.562Z" fill="#AEAEAE"/>
<a href="mailto:Raphael@gmail.com">
<rect fill="black" fill-opacity="0" y="-0.0500002" width="25.807" height="8.1"/>
</a>
<path d="M109.092 134.662H108.504V139H111V138.454H109.092V134.662ZM111.292 137.53C111.292 138.436 111.94 139.072 112.822 139.072C113.698 139.072 114.346 138.436 114.346 137.53C114.346 136.624 113.698 135.988 112.822 135.988C111.94 135.988 111.292 136.624 111.292 137.53ZM111.862 137.53C111.862 136.918 112.252 136.492 112.822 136.492C113.386 136.492 113.782 136.918 113.782 137.53C113.782 138.142 113.386 138.568 112.822 138.568C112.252 138.568 111.862 138.142 111.862 137.53ZM114.785 137.458C114.785 138.28 115.312 138.922 116.146 138.922C116.609 138.922 116.993 138.718 117.185 138.376V138.964C117.185 139.522 116.825 139.882 116.273 139.882C115.781 139.882 115.457 139.63 115.385 139.198H114.821C114.929 139.942 115.475 140.392 116.273 140.392C117.173 140.392 117.743 139.804 117.743 138.88V136.066H117.239L117.197 136.564C117.011 136.198 116.645 135.982 116.171 135.982C115.319 135.982 114.785 136.63 114.785 137.458ZM115.349 137.446C115.349 136.906 115.685 136.474 116.249 136.474C116.825 136.474 117.161 136.882 117.161 137.446C117.161 138.022 116.813 138.43 116.243 138.43C115.691 138.43 115.349 137.998 115.349 137.446ZM118.832 135.37C119.036 135.37 119.204 135.202 119.204 134.998C119.204 134.788 119.036 134.626 118.832 134.626C118.628 134.626 118.46 134.788 118.46 134.998C118.46 135.202 118.628 135.37 118.832 135.37ZM118.556 139H119.12V136.066H118.556V139ZM120.503 139V137.446C120.503 136.876 120.809 136.498 121.337 136.498C121.769 136.498 122.045 136.738 122.045 137.332V139H122.609V137.206C122.609 136.456 122.255 135.982 121.481 135.982C121.067 135.982 120.695 136.18 120.509 136.516L120.449 136.066H119.939V139H120.503Z" fill="#1E1E1E"/>
<circle cx="134" cy="70" r="3.75" fill="#88CE79" stroke="#1E1E1E" stroke-width="0.5"/>
<path d="M135.261 69.3623L135.787 68.8801" stroke="#1E1E1E" stroke-width="0.5" stroke-linecap="round" stroke-linejoin="round"/>
<path d="M131.92 70.0535L133.206 71.2268L134.403 70.1431" stroke="#1E1E1E" stroke-width="0.5" stroke-linecap="round" stroke-linejoin="round"/>
<path d="M131.31 106.481C131.178 106.288 131.104 106.054 131.104 105.803C131.104 105.132 131.646 104.59 132.317 104.59C132.988 104.59 133.531 105.132 133.531 105.803C133.531 106.475 132.988 107.017 132.317 107.017" stroke="#AEAEAE" stroke-width="0.5" stroke-linecap="round" stroke-linejoin="round"/>
<path d="M134.202 103.627C133.629 103.22 132.985 103 132.317 103C131.12 103 130.005 103.705 129.229 104.925C128.924 105.403 128.924 106.207 129.229 106.685C130.005 107.905 131.12 108.61 132.317 108.61C133.513 108.61 134.629 107.905 135.405 106.685C135.71 106.207 135.71 105.403 135.405 104.925" stroke="#AEAEAE" stroke-width="0.5" stroke-linecap="round" stroke-linejoin="round"/>
<path d="M21 135.917V134.875C21 133.837 21.8375 133 22.875 133H23.9167" stroke="white" stroke-width="0.5" stroke-linecap="round" stroke-linejoin="round"/>
<path d="M26.4166 133H27.4582C28.4957 133 29.3332 133.837 29.3332 134.875V135.917" stroke="white" stroke-width="0.5" stroke-linecap="round" stroke-linejoin="round"/>
<path d="M29.3333 138.833V139.458C29.3333 140.496 28.4958 141.333 27.4583 141.333H26.8333" stroke="white" stroke-width="0.5" stroke-linecap="round" stroke-linejoin="round"/>
<path d="M23.9167 141.333H22.875C21.8375 141.333 21 140.496 21 139.458V138.417" stroke="white" stroke-width="0.5" stroke-linecap="round" stroke-linejoin="round"/>
<path d="M27.2495 136.125V138.208C27.2495 139.042 26.8329 139.458 25.9995 139.458H24.3329C23.4996 139.458 23.0829 139.042 23.0829 138.208V136.125C23.0829 135.292 23.4996 134.875 24.3329 134.875H25.9995" stroke="white" stroke-width="0.5" stroke-linecap="round" stroke-linejoin="round"/>
<path d="M28.0834 137.167H22.2501" stroke="white" stroke-width="0.5" stroke-linecap="round" stroke-linejoin="round"/>
<path d="M38.796 137.158V136.624H37.092V135.202H39.12V134.662H36.504V139H37.092V137.158H38.796ZM40.3539 139.072C40.8279 139.072 41.2299 138.862 41.3799 138.526L41.4399 139H41.9199V137.158C41.9199 136.366 41.4279 135.982 40.7019 135.982C39.9459 135.982 39.4419 136.384 39.4419 136.996H39.9339C39.9339 136.642 40.2039 136.432 40.6779 136.432C41.0739 136.432 41.3679 136.606 41.3679 137.098V137.182L40.4439 137.254C39.7539 137.308 39.3519 137.644 39.3519 138.184C39.3519 138.718 39.7239 139.072 40.3539 139.072ZM40.5159 138.634C40.1499 138.634 39.9219 138.478 39.9219 138.166C39.9219 137.878 40.1259 137.686 40.6239 137.638L41.3739 137.578V137.734C41.3739 138.286 41.0499 138.634 40.5159 138.634ZM42.509 137.536C42.509 138.46 43.079 139.072 43.943 139.072C44.651 139.072 45.197 138.646 45.311 138.01H44.747C44.645 138.358 44.345 138.568 43.943 138.568C43.409 138.568 43.067 138.16 43.067 137.53C43.067 136.894 43.433 136.486 43.967 136.486C44.345 136.486 44.645 136.684 44.741 137.056H45.305C45.203 136.402 44.687 135.982 43.949 135.982C43.091 135.982 42.509 136.618 42.509 137.536ZM47.172 139.072C47.898 139.072 48.39 138.718 48.534 138.088H48.006C47.91 138.424 47.622 138.604 47.184 138.604C46.626 138.604 46.302 138.262 46.26 137.644L48.528 137.638V137.428C48.528 136.558 47.982 135.982 47.148 135.982C46.296 135.982 45.714 136.618 45.714 137.536C45.714 138.448 46.308 139.072 47.172 139.072ZM47.148 136.456C47.646 136.456 47.964 136.78 47.964 137.266H46.272C46.344 136.75 46.656 136.456 47.148 136.456ZM51.4826 134.662H50.8946V139H51.4826V134.662ZM53.9282 139C55.2122 139 56.0762 138.124 56.0762 136.834C56.0762 135.538 55.2002 134.662 53.9042 134.662H52.4942V139H53.9282ZM53.8622 135.202C54.8522 135.202 55.4642 135.826 55.4642 136.834C55.4642 137.83 54.8522 138.454 53.8862 138.454H53.0822V135.202H53.8622Z" fill="white"/>
<path d="M64.744 167.442C64.984 167.442 65.182 167.244 65.182 166.998C65.182 166.752 64.984 166.56 64.744 166.56C64.492 166.56 64.294 166.752 64.294 166.998C64.294 167.244 64.492 167.442 64.744 167.442ZM64.378 171H65.11V168.036H64.378V171ZM66.8743 171V168.648H67.4503V168.036H66.8743V167.112H66.1423V168.036H65.5723V168.648H66.1423V171H66.8743ZM68.8353 167.118C68.8353 166.758 68.6313 166.53 68.3493 166.53C68.0853 166.53 67.9053 166.716 67.9053 166.98C67.9053 167.244 68.0793 167.394 68.2953 167.394C68.3613 167.394 68.4153 167.382 68.4633 167.364C68.4633 167.574 68.2773 167.736 68.0193 167.784V168.072C68.4993 168.012 68.8353 167.622 68.8353 167.118ZM69.0426 170.1C69.0426 170.682 69.5106 171.078 70.2486 171.078C70.9806 171.078 71.4906 170.706 71.4906 170.106C71.4906 169.65 71.2386 169.422 70.7406 169.308L70.2066 169.182C69.9546 169.122 69.8226 169.014 69.8226 168.846C69.8226 168.624 69.9906 168.492 70.2786 168.492C70.5606 168.492 70.7286 168.654 70.7346 168.906H71.4306C71.4246 168.33 70.9746 167.946 70.3086 167.946C69.6246 167.946 69.1326 168.294 69.1326 168.876C69.1326 169.35 69.3906 169.602 69.9246 169.722L70.4586 169.848C70.7226 169.908 70.8006 170.016 70.8006 170.166C70.8006 170.382 70.6146 170.52 70.2726 170.52C69.9366 170.52 69.7446 170.358 69.7386 170.1H69.0426ZM73.3711 168.036V168.648H73.7971V171H74.5231V168.648H75.2311V168.036H74.5231V167.676C74.5231 167.382 74.6131 167.19 74.9851 167.19H75.2431V166.566C75.1171 166.542 74.9791 166.536 74.8651 166.536C74.2231 166.536 73.7971 166.872 73.7971 167.676V168.036H73.3711ZM75.4364 169.512C75.4364 170.436 76.1024 171.072 77.0204 171.072C77.9384 171.072 78.6044 170.436 78.6044 169.512C78.6044 168.588 77.9384 167.952 77.0204 167.952C76.1024 167.952 75.4364 168.588 75.4364 169.512ZM76.1684 169.512C76.1684 168.972 76.5164 168.606 77.0204 168.606C77.5244 168.606 77.8724 168.972 77.8724 169.512C77.8724 170.052 77.5244 170.418 77.0204 170.418C76.5164 170.418 76.1684 170.052 76.1684 169.512ZM81.0446 168.024C80.9246 167.994 80.8226 167.982 80.7206 167.982C80.3246 167.982 80.0426 168.18 79.9166 168.474L79.8746 168.042H79.1846V171H79.9166V169.56C79.9166 168.984 80.2466 168.702 80.7746 168.702H81.0446V168.024ZM82.8633 168.036V168.648H83.2893V171H84.0153V168.648H84.7233V168.036H84.0153V167.676C84.0153 167.382 84.1053 167.19 84.4773 167.19H84.7353V166.566C84.6093 166.542 84.4713 166.536 84.3573 166.536C83.7153 166.536 83.2893 166.872 83.2893 167.676V168.036H82.8633ZM87.0505 168.024C86.9305 167.994 86.8285 167.982 86.7265 167.982C86.3305 167.982 86.0485 168.18 85.9225 168.474L85.8805 168.042H85.1905V171H85.9225V169.56C85.9225 168.984 86.2525 168.702 86.7805 168.702H87.0505V168.024ZM88.7724 171.078C89.5464 171.078 90.0864 170.688 90.2124 170.04H89.5344C89.4504 170.322 89.1864 170.478 88.7844 170.478C88.2984 170.478 88.0224 170.214 87.9684 169.692L90.2004 169.686V169.464C90.2004 168.54 89.6364 167.946 88.7484 167.946C87.8784 167.946 87.2724 168.588 87.2724 169.518C87.2724 170.436 87.8904 171.078 88.7724 171.078ZM88.7544 168.546C89.1924 168.546 89.4744 168.816 89.4744 169.224H87.9864C88.0584 168.78 88.3224 168.546 88.7544 168.546ZM92.1122 171.078C92.8862 171.078 93.4262 170.688 93.5522 170.04H92.8742C92.7902 170.322 92.5262 170.478 92.1242 170.478C91.6382 170.478 91.3622 170.214 91.3082 169.692L93.5402 169.686V169.464C93.5402 168.54 92.9762 167.946 92.0882 167.946C91.2182 167.946 90.6122 168.588 90.6122 169.518C90.6122 170.436 91.2302 171.078 92.1122 171.078ZM92.0942 168.546C92.5322 168.546 92.8142 168.816 92.8142 169.224H91.3262C91.3982 168.78 91.6622 168.546 92.0942 168.546ZM94.996 169.686C95.08 169.224 95.14 168.42 95.14 167.622V166.614H94.276V167.622C94.276 168.402 94.33 169.206 94.408 169.686H94.996ZM94.708 171.078C94.966 171.078 95.188 170.862 95.188 170.604C95.188 170.34 94.966 170.124 94.708 170.124C94.438 170.124 94.216 170.34 94.216 170.604C94.216 170.862 94.438 171.078 94.708 171.078Z" fill="#1E1E1E"/>
<rect x="15.2305" y="180.396" width="129.52" height="17.2683" rx="1.75" fill="#FFFEE8" stroke="#1E1E1E" stroke-width="0.5"/>
<rect x="14.25" y="179.25" width="129.52" height="17.2683" rx="1.75" fill="#FFFEE8" stroke="#1E1E1E" stroke-width="0.5"/>
<rect x="14.25" y="179.25" width="129.52" height="17.2683" rx="1.75" fill="#FFE4C9" stroke="#1E1E1E" stroke-width="0.5"/>
<circle cx="30.7412" cy="188" r="3.75" fill="white" stroke="#1E1E1E" stroke-width="0.5"/>
<path d="M30.6116 188.129H31.3862C32.3305 188.129 33.1308 188.977 32.5324 189.707V189.707C32.1678 190.152 31.6601 190.457 31.0958 190.57C30.5315 190.683 29.9456 190.596 29.4379 190.325C28.9303 190.054 28.5323 189.616 28.3118 189.084C28.0914 188.553 28.062 187.961 28.2289 187.41C28.3957 186.86 28.7484 186.384 29.2268 186.064C29.7052 185.744 30.2797 185.6 30.8523 185.657C31.425 185.713 31.9604 185.966 32.3672 186.373" stroke="#1E1E1E" stroke-width="0.5" stroke-linecap="round" stroke-linejoin="round"/>
<path d="M51.34 190.072C52.378 190.072 53.182 189.46 53.35 188.536H52.552C52.408 189.022 51.952 189.334 51.358 189.334C50.554 189.334 50.038 188.734 50.038 187.804C50.038 186.868 50.548 186.28 51.358 186.28C51.94 186.28 52.378 186.58 52.528 187.09H53.338C53.188 186.148 52.414 185.542 51.376 185.542C50.092 185.542 49.234 186.448 49.234 187.81C49.234 189.184 50.062 190.072 51.34 190.072ZM53.7567 188.512C53.7567 189.436 54.4227 190.072 55.3407 190.072C56.2587 190.072 56.9247 189.436 56.9247 188.512C56.9247 187.588 56.2587 186.952 55.3407 186.952C54.4227 186.952 53.7567 187.588 53.7567 188.512ZM54.4887 188.512C54.4887 187.972 54.8367 187.606 55.3407 187.606C55.8447 187.606 56.1927 187.972 56.1927 188.512C56.1927 189.052 55.8447 189.418 55.3407 189.418C54.8367 189.418 54.4887 189.052 54.4887 188.512ZM58.237 190V188.404C58.237 187.924 58.513 187.612 58.963 187.612C59.341 187.612 59.587 187.852 59.587 188.35V190H60.319V188.176C60.319 187.408 59.935 186.946 59.191 186.946C58.789 186.946 58.429 187.12 58.243 187.42L58.183 187.036H57.505V190H58.237ZM62.0462 190V187.648H62.6222V187.036H62.0462V186.112H61.3142V187.036H60.7442V187.648H61.3142V190H62.0462ZM63.4432 186.442C63.6832 186.442 63.8812 186.244 63.8812 185.998C63.8812 185.752 63.6832 185.56 63.4432 185.56C63.1912 185.56 62.9932 185.752 62.9932 185.998C62.9932 186.244 63.1912 186.442 63.4432 186.442ZM63.0772 190H63.8092V187.036H63.0772V190ZM65.2975 190V188.404C65.2975 187.924 65.5735 187.612 66.0235 187.612C66.4015 187.612 66.6475 187.852 66.6475 188.35V190H67.3795V188.176C67.3795 187.408 66.9955 186.946 66.2515 186.946C65.8495 186.946 65.4895 187.12 65.3035 187.42L65.2435 187.036H64.5655V190H65.2975ZM70.1087 187.036V188.59C70.1087 189.154 69.8867 189.424 69.4247 189.424C69.0167 189.424 68.7947 189.196 68.7947 188.632V187.036H68.0627V188.89C68.0627 189.616 68.4647 190.078 69.1487 190.078C69.5447 190.078 69.9287 189.886 70.1087 189.604L70.1627 190H70.8407V187.036H70.1087ZM72.8642 190.078C73.6382 190.078 74.1782 189.688 74.3042 189.04H73.6262C73.5422 189.322 73.2782 189.478 72.8762 189.478C72.3902 189.478 72.1142 189.214 72.0602 188.692L74.2922 188.686V188.464C74.2922 187.54 73.7282 186.946 72.8402 186.946C71.9702 186.946 71.3642 187.588 71.3642 188.518C71.3642 189.436 71.9822 190.078 72.8642 190.078ZM72.8462 187.546C73.2842 187.546 73.5662 187.816 73.5662 188.224H72.0782C72.1502 187.78 72.4142 187.546 72.8462 187.546ZM77.1492 190H77.8632L78.2712 188.728C78.4212 188.242 78.4752 188.032 78.5052 187.894C78.5292 188.044 78.5952 188.326 78.7152 188.716L79.1232 190H79.8072L80.8332 187.036H80.0592L79.6632 188.308C79.6092 188.494 79.5132 188.848 79.4652 189.07C79.4292 188.872 79.3092 188.428 79.2732 188.308L78.8772 187.036H78.1332L77.7252 188.308C77.6292 188.602 77.5752 188.788 77.5212 189.076C77.4672 188.8 77.4072 188.542 77.3412 188.308L76.9512 187.036H76.1892L77.1492 190ZM81.6424 186.442C81.8824 186.442 82.0804 186.244 82.0804 185.998C82.0804 185.752 81.8824 185.56 81.6424 185.56C81.3904 185.56 81.1924 185.752 81.1924 185.998C81.1924 186.244 81.3904 186.442 81.6424 186.442ZM81.2764 190H82.0084V187.036H81.2764V190ZM83.7727 190V187.648H84.3487V187.036H83.7727V186.112H83.0407V187.036H82.4707V187.648H83.0407V190H83.7727ZM85.5358 190V188.38C85.5358 187.936 85.8058 187.612 86.2678 187.612C86.6398 187.612 86.8858 187.852 86.8858 188.35V190H87.6178V188.176C87.6178 187.408 87.2338 186.946 86.5018 186.946C86.0758 186.946 85.7278 187.132 85.5418 187.42V185.536H84.8038V190H85.5358ZM91.9822 186.262C92.5102 186.262 92.9542 186.502 93.0922 187.018H93.9022C93.7762 186.124 93.0022 185.542 92.0002 185.542C90.6802 185.542 89.8102 186.49 89.8102 187.822C89.8102 189.172 90.6682 190.066 91.8982 190.066C92.4922 190.066 92.9902 189.832 93.2302 189.496L93.2782 190H93.9262V187.534H91.8862V188.212H93.2122V188.23C93.2122 188.932 92.7502 189.352 91.9882 189.352C91.1782 189.352 90.6142 188.818 90.6142 187.84C90.6142 186.892 91.1122 186.262 91.9822 186.262ZM94.4735 188.512C94.4735 189.436 95.1395 190.072 96.0575 190.072C96.9755 190.072 97.6415 189.436 97.6415 188.512C97.6415 187.588 96.9755 186.952 96.0575 186.952C95.1395 186.952 94.4735 187.588 94.4735 188.512ZM95.2055 188.512C95.2055 187.972 95.5535 187.606 96.0575 187.606C96.5615 187.606 96.9095 187.972 96.9095 188.512C96.9095 189.052 96.5615 189.418 96.0575 189.418C95.5535 189.418 95.2055 189.052 95.2055 188.512ZM98.0478 188.512C98.0478 189.436 98.7138 190.072 99.6318 190.072C100.55 190.072 101.216 189.436 101.216 188.512C101.216 187.588 100.55 186.952 99.6318 186.952C98.7138 186.952 98.0478 187.588 98.0478 188.512ZM98.7798 188.512C98.7798 187.972 99.1278 187.606 99.6318 187.606C100.136 187.606 100.484 187.972 100.484 188.512C100.484 189.052 100.136 189.418 99.6318 189.418C99.1278 189.418 98.7798 189.052 98.7798 188.512ZM101.628 188.452C101.628 189.31 102.18 189.94 103.02 189.94C103.446 189.94 103.812 189.766 103.998 189.49V189.982C103.998 190.474 103.674 190.792 103.17 190.792C102.72 190.792 102.426 190.564 102.378 190.18H101.646C101.736 190.972 102.318 191.458 103.17 191.458C104.13 191.458 104.724 190.84 104.724 189.85V187.036H104.046L104.004 187.444C103.83 187.126 103.482 186.94 103.038 186.94C102.192 186.94 101.628 187.588 101.628 188.452ZM102.366 188.434C102.366 187.948 102.678 187.582 103.164 187.582C103.674 187.582 103.98 187.93 103.98 188.434C103.98 188.95 103.668 189.304 103.164 189.304C102.684 189.304 102.366 188.932 102.366 188.434ZM106.22 190V185.536H105.494V190H106.22ZM108.313 190.078C109.087 190.078 109.627 189.688 109.753 189.04H109.075C108.991 189.322 108.727 189.478 108.325 189.478C107.839 189.478 107.563 189.214 107.509 188.692L109.741 188.686V188.464C109.741 187.54 109.177 186.946 108.289 186.946C107.419 186.946 106.813 187.588 106.813 188.518C106.813 189.436 107.431 190.078 108.313 190.078ZM108.295 187.546C108.733 187.546 109.015 187.816 109.015 188.224H107.527C107.599 187.78 107.863 187.546 108.295 187.546Z" fill="#1E1E1E"/>
<rect x="15.2305" y="208.482" width="129.52" height="17.2683" rx="1.75" fill="#FFFEE8" stroke="#1E1E1E" stroke-width="0.5"/>
<rect x="14.25" y="207.335" width="129.52" height="17.2683" rx="1.75" fill="#FFFEE8" stroke="#1E1E1E" stroke-width="0.5"/>
<rect x="14.25" y="207.25" width="129.52" height="17.2683" rx="1.75" fill="#7EE7D6" stroke="#1E1E1E" stroke-width="0.5"/>
<circle cx="30.7412" cy="216" r="3.75" fill="white" stroke="#1E1E1E" stroke-width="0.5"/>
<path d="M32.0877 214.323H31.4729C31.3517 214.322 31.2316 214.346 31.1194 214.392C31.0073 214.438 30.9055 214.506 30.8197 214.591C30.734 214.677 30.6661 214.779 30.6199 214.891C30.5738 215.003 30.5503 215.123 30.5508 215.245V219.548" stroke="#1E1E1E" stroke-width="0.5" stroke-linecap="round" stroke-linejoin="round"/>
<path d="M29.3213 216.474H31.7804" stroke="#1E1E1E" stroke-width="0.5" stroke-linecap="round" stroke-linejoin="round"/>
<path d="M51.34 219.072C52.378 219.072 53.182 218.46 53.35 217.536H52.552C52.408 218.022 51.952 218.334 51.358 218.334C50.554 218.334 50.038 217.734 50.038 216.804C50.038 215.868 50.548 215.28 51.358 215.28C51.94 215.28 52.378 215.58 52.528 216.09H53.338C53.188 215.148 52.414 214.542 51.376 214.542C50.092 214.542 49.234 215.448 49.234 216.81C49.234 218.184 50.062 219.072 51.34 219.072ZM53.7567 217.512C53.7567 218.436 54.4227 219.072 55.3407 219.072C56.2587 219.072 56.9247 218.436 56.9247 217.512C56.9247 216.588 56.2587 215.952 55.3407 215.952C54.4227 215.952 53.7567 216.588 53.7567 217.512ZM54.4887 217.512C54.4887 216.972 54.8367 216.606 55.3407 216.606C55.8447 216.606 56.1927 216.972 56.1927 217.512C56.1927 218.052 55.8447 218.418 55.3407 218.418C54.8367 218.418 54.4887 218.052 54.4887 217.512ZM58.237 219V217.404C58.237 216.924 58.513 216.612 58.963 216.612C59.341 216.612 59.587 216.852 59.587 217.35V219H60.319V217.176C60.319 216.408 59.935 215.946 59.191 215.946C58.789 215.946 58.429 216.12 58.243 216.42L58.183 216.036H57.505V219H58.237ZM62.0462 219V216.648H62.6222V216.036H62.0462V215.112H61.3142V216.036H60.7442V216.648H61.3142V219H62.0462ZM63.4432 215.442C63.6832 215.442 63.8812 215.244 63.8812 214.998C63.8812 214.752 63.6832 214.56 63.4432 214.56C63.1912 214.56 62.9932 214.752 62.9932 214.998C62.9932 215.244 63.1912 215.442 63.4432 215.442ZM63.0772 219H63.8092V216.036H63.0772V219ZM65.2975 219V217.404C65.2975 216.924 65.5735 216.612 66.0235 216.612C66.4015 216.612 66.6475 216.852 66.6475 217.35V219H67.3795V217.176C67.3795 216.408 66.9955 215.946 66.2515 215.946C65.8495 215.946 65.4895 216.12 65.3035 216.42L65.2435 216.036H64.5655V219H65.2975ZM70.1087 216.036V217.59C70.1087 218.154 69.8867 218.424 69.4247 218.424C69.0167 218.424 68.7947 218.196 68.7947 217.632V216.036H68.0627V217.89C68.0627 218.616 68.4647 219.078 69.1487 219.078C69.5447 219.078 69.9287 218.886 70.1087 218.604L70.1627 219H70.8407V216.036H70.1087ZM72.8642 219.078C73.6382 219.078 74.1782 218.688 74.3042 218.04H73.6262C73.5422 218.322 73.2782 218.478 72.8762 218.478C72.3902 218.478 72.1142 218.214 72.0602 217.692L74.2922 217.686V217.464C74.2922 216.54 73.7282 215.946 72.8402 215.946C71.9702 215.946 71.3642 216.588 71.3642 217.518C71.3642 218.436 71.9822 219.078 72.8642 219.078ZM72.8462 216.546C73.2842 216.546 73.5662 216.816 73.5662 217.224H72.0782C72.1502 216.78 72.4142 216.546 72.8462 216.546ZM77.1492 219H77.8632L78.2712 217.728C78.4212 217.242 78.4752 217.032 78.5052 216.894C78.5292 217.044 78.5952 217.326 78.7152 217.716L79.1232 219H79.8072L80.8332 216.036H80.0592L79.6632 217.308C79.6092 217.494 79.5132 217.848 79.4652 218.07C79.4292 217.872 79.3092 217.428 79.2732 217.308L78.8772 216.036H78.1332L77.7252 217.308C77.6292 217.602 77.5752 217.788 77.5212 218.076C77.4672 217.8 77.4072 217.542 77.3412 217.308L76.9512 216.036H76.1892L77.1492 219ZM81.6424 215.442C81.8824 215.442 82.0804 215.244 82.0804 214.998C82.0804 214.752 81.8824 214.56 81.6424 214.56C81.3904 214.56 81.1924 214.752 81.1924 214.998C81.1924 215.244 81.3904 215.442 81.6424 215.442ZM81.2764 219H82.0084V216.036H81.2764V219ZM83.7727 219V216.648H84.3487V216.036H83.7727V215.112H83.0407V216.036H82.4707V216.648H83.0407V219H83.7727ZM85.5358 219V217.38C85.5358 216.936 85.8058 216.612 86.2678 216.612C86.6398 216.612 86.8858 216.852 86.8858 217.35V219H87.6178V217.176C87.6178 216.408 87.2338 215.946 86.5018 215.946C86.0758 215.946 85.7278 216.132 85.5418 216.42V214.536H84.8038V219H85.5358ZM92.4622 217.206V216.516H90.8302V215.322H92.7742V214.614H90.0622V219H90.8302V217.206H92.4622ZM94.0002 219.078C94.4622 219.078 94.8642 218.868 94.9902 218.562L95.0442 219H95.6862V217.2C95.6862 216.378 95.1942 215.946 94.3962 215.946C93.5922 215.946 93.0642 216.366 93.0642 217.008H93.6882C93.6882 216.696 93.9282 216.516 94.3602 216.516C94.7322 216.516 94.9722 216.678 94.9722 217.08V217.146L94.0842 217.212C93.3822 217.266 92.9862 217.608 92.9862 218.154C92.9862 218.712 93.3702 219.078 94.0002 219.078ZM94.2402 218.526C93.9102 218.526 93.7302 218.394 93.7302 218.124C93.7302 217.884 93.9042 217.734 94.3602 217.692L94.9782 217.644V217.8C94.9782 218.256 94.6902 218.526 94.2402 218.526ZM96.2313 217.512C96.2313 218.454 96.8193 219.078 97.7193 219.078C98.4933 219.078 99.0693 218.604 99.1593 217.914H98.4213C98.3433 218.238 98.0853 218.418 97.7193 218.418C97.2513 218.418 96.9633 218.07 96.9633 217.512C96.9633 216.954 97.2753 216.6 97.7433 216.6C98.0913 216.6 98.3373 216.774 98.4213 217.11H99.1533C99.0753 216.396 98.5233 215.946 97.7133 215.946C96.8373 215.946 96.2313 216.594 96.2313 217.512ZM101.03 219.078C101.804 219.078 102.344 218.688 102.47 218.04H101.792C101.708 218.322 101.444 218.478 101.042 218.478C100.556 218.478 100.28 218.214 100.226 217.692L102.458 217.686V217.464C102.458 216.54 101.894 215.946 101.006 215.946C100.136 215.946 99.5302 216.588 99.5302 217.518C99.5302 218.436 100.148 219.078 101.03 219.078ZM101.012 216.546C101.45 216.546 101.732 216.816 101.732 217.224H100.244C100.316 216.78 100.58 216.546 101.012 216.546ZM103.722 219L103.77 218.538C103.944 218.88 104.322 219.078 104.766 219.078C105.618 219.078 106.176 218.448 106.176 217.536C106.176 216.6 105.66 215.94 104.814 215.94C104.364 215.94 103.968 216.138 103.776 216.468V214.536H103.044V219H103.722ZM103.782 217.506C103.782 216.972 104.112 216.6 104.616 216.6C105.132 216.6 105.438 216.978 105.438 217.506C105.438 218.034 105.132 218.406 104.616 218.406C104.112 218.406 103.782 218.04 103.782 217.506ZM106.585 217.512C106.585 218.436 107.251 219.072 108.169 219.072C109.087 219.072 109.753 218.436 109.753 217.512C109.753 216.588 109.087 215.952 108.169 215.952C107.251 215.952 106.585 216.588 106.585 217.512ZM107.317 217.512C107.317 216.972 107.665 216.606 108.169 216.606C108.673 216.606 109.021 216.972 109.021 217.512C109.021 218.052 108.673 218.418 108.169 218.418C107.665 218.418 107.317 218.052 107.317 217.512ZM110.159 217.512C110.159 218.436 110.825 219.072 111.743 219.072C112.661 219.072 113.327 218.436 113.327 217.512C113.327 216.588 112.661 215.952 111.743 215.952C110.825 215.952 110.159 216.588 110.159 217.512ZM110.891 217.512C110.891 216.972 111.239 216.606 111.743 216.606C112.247 216.606 112.595 216.972 112.595 217.512C112.595 218.052 112.247 218.418 111.743 218.418C111.239 218.418 110.891 218.052 110.891 217.512ZM114.645 219V218.202L115.077 217.752L115.851 219H116.691L115.587 217.212L116.715 216.036H115.797L114.645 217.278V214.536H113.919V219H114.645Z" fill="#1E1E1E"/>
<path d="M26.938 255C28.222 255 29.086 254.124 29.086 252.834C29.086 251.538 28.21 250.662 26.914 250.662H25.504V255H26.938ZM26.872 251.202C27.862 251.202 28.474 251.826 28.474 252.834C28.474 253.83 27.862 254.454 26.896 254.454H26.092V251.202H26.872ZM29.5461 253.53C29.5461 254.436 30.1941 255.072 31.0761 255.072C31.9521 255.072 32.6001 254.436 32.6001 253.53C32.6001 252.624 31.9521 251.988 31.0761 251.988C30.1941 251.988 29.5461 252.624 29.5461 253.53ZM30.1161 253.53C30.1161 252.918 30.5061 252.492 31.0761 252.492C31.6401 252.492 32.0361 252.918 32.0361 253.53C32.0361 254.142 31.6401 254.568 31.0761 254.568C30.5061 254.568 30.1161 254.142 30.1161 253.53ZM33.7884 255V253.446C33.7884 252.876 34.0944 252.498 34.6224 252.498C35.0544 252.498 35.3304 252.738 35.3304 253.332V255H35.8944V253.206C35.8944 252.456 35.5404 251.982 34.7664 251.982C34.3524 251.982 33.9804 252.18 33.7944 252.516L33.7344 252.066H33.2244V255H33.7884ZM37.3504 251.1C37.3504 250.776 37.1584 250.578 36.9184 250.578C36.6784 250.578 36.5224 250.746 36.5224 250.974C36.5224 251.208 36.6784 251.34 36.8584 251.34C36.9304 251.34 36.9844 251.328 37.0264 251.304C37.0264 251.496 36.8584 251.652 36.6244 251.694V251.946C37.0444 251.892 37.3504 251.538 37.3504 251.1ZM38.9567 255V252.54H39.5327V252.066H38.9567V251.148H38.3927V252.066H37.8167V252.54H38.3927V255H38.9567ZM42.2435 254.994V253.398C42.2435 252.894 42.5375 252.498 43.0835 252.498C43.5035 252.498 43.7855 252.738 43.7855 253.332V255H44.3495V253.206C44.3495 252.456 43.9895 251.982 43.2395 251.982C42.7835 251.982 42.4295 252.198 42.2435 252.516V250.584H41.6795V254.994H42.2435ZM45.9887 255.072C46.4627 255.072 46.8647 254.862 47.0147 254.526L47.0747 255H47.5547V253.158C47.5547 252.366 47.0627 251.982 46.3367 251.982C45.5807 251.982 45.0767 252.384 45.0767 252.996H45.5687C45.5687 252.642 45.8387 252.432 46.3127 252.432C46.7087 252.432 47.0027 252.606 47.0027 253.098V253.182L46.0787 253.254C45.3887 253.308 44.9867 253.644 44.9867 254.184C44.9867 254.718 45.3587 255.072 45.9887 255.072ZM46.1507 254.634C45.7847 254.634 45.5567 254.478 45.5567 254.166C45.5567 253.878 45.7607 253.686 46.2587 253.638L47.0087 253.578V253.734C47.0087 254.286 46.6847 254.634 46.1507 254.634ZM49.0405 255H49.5985L50.8225 252.066H50.2345L49.5805 253.704C49.4785 253.962 49.3825 254.214 49.3345 254.406C49.2865 254.226 49.2025 253.98 49.1005 253.704L48.4585 252.066H47.8585L49.0405 255ZM52.4025 255.072C53.1285 255.072 53.6205 254.718 53.7645 254.088H53.2365C53.1405 254.424 52.8525 254.604 52.4145 254.604C51.8565 254.604 51.5325 254.262 51.4905 253.644L53.7585 253.638V253.428C53.7585 252.558 53.2125 251.982 52.3785 251.982C51.5265 251.982 50.9445 252.618 50.9445 253.536C50.9445 254.448 51.5385 255.072 52.4025 255.072ZM52.3785 252.456C52.8765 252.456 53.1945 252.78 53.1945 253.266H51.5025C51.5745 252.75 51.8865 252.456 52.3785 252.456ZM56.8871 255.072C57.3611 255.072 57.7631 254.862 57.9131 254.526L57.9731 255H58.4531V253.158C58.4531 252.366 57.9611 251.982 57.2351 251.982C56.4791 251.982 55.9751 252.384 55.9751 252.996H56.4671C56.4671 252.642 56.7371 252.432 57.2111 252.432C57.6071 252.432 57.9011 252.606 57.9011 253.098V253.182L56.9771 253.254C56.2871 253.308 55.8851 253.644 55.8851 254.184C55.8851 254.718 56.2571 255.072 56.8871 255.072ZM57.0491 254.634C56.6831 254.634 56.4551 254.478 56.4551 254.166C56.4551 253.878 56.6591 253.686 57.1571 253.638L57.9071 253.578V253.734C57.9071 254.286 57.5831 254.634 57.0491 254.634ZM59.7982 255V253.446C59.7982 252.876 60.1042 252.498 60.6322 252.498C61.0642 252.498 61.3402 252.738 61.3402 253.332V255H61.9042V253.206C61.9042 252.456 61.5502 251.982 60.7762 251.982C60.3622 251.982 59.9902 252.18 59.8042 252.516L59.7442 252.066H59.2342V255H59.7982ZM65.184 255.072C65.658 255.072 66.06 254.862 66.21 254.526L66.27 255H66.75V253.158C66.75 252.366 66.258 251.982 65.532 251.982C64.776 251.982 64.272 252.384 64.272 252.996H64.764C64.764 252.642 65.034 252.432 65.508 252.432C65.904 252.432 66.198 252.606 66.198 253.098V253.182L65.274 253.254C64.584 253.308 64.182 253.644 64.182 254.184C64.182 254.718 64.554 255.072 65.184 255.072ZM65.346 254.634C64.98 254.634 64.752 254.478 64.752 254.166C64.752 253.878 64.956 253.686 65.454 253.638L66.204 253.578V253.734C66.204 254.286 65.88 254.634 65.346 254.634ZM67.339 253.536C67.339 254.46 67.909 255.072 68.773 255.072C69.481 255.072 70.027 254.646 70.141 254.01H69.577C69.475 254.358 69.175 254.568 68.773 254.568C68.239 254.568 67.897 254.16 67.897 253.53C67.897 252.894 68.263 252.486 68.797 252.486C69.175 252.486 69.475 252.684 69.571 253.056H70.135C70.033 252.402 69.517 251.982 68.779 251.982C67.921 251.982 67.339 252.618 67.339 253.536ZM70.5441 253.536C70.5441 254.46 71.1141 255.072 71.9781 255.072C72.6861 255.072 73.2321 254.646 73.3461 254.01H72.7821C72.6801 254.358 72.3801 254.568 71.9781 254.568C71.4441 254.568 71.1021 254.16 71.1021 253.53C71.1021 252.894 71.4681 252.486 72.0021 252.486C72.3801 252.486 72.6801 252.684 72.7761 253.056H73.3401C73.2381 252.402 72.7221 251.982 71.9841 251.982C71.1261 251.982 70.5441 252.618 70.5441 253.536ZM73.7492 253.53C73.7492 254.436 74.3972 255.072 75.2792 255.072C76.1552 255.072 76.8032 254.436 76.8032 253.53C76.8032 252.624 76.1552 251.988 75.2792 251.988C74.3972 251.988 73.7492 252.624 73.7492 253.53ZM74.3192 253.53C74.3192 252.918 74.7092 252.492 75.2792 252.492C75.8432 252.492 76.2392 252.918 76.2392 253.53C76.2392 254.142 75.8432 254.568 75.2792 254.568C74.7092 254.568 74.3192 254.142 74.3192 253.53ZM79.3852 252.066V253.614C79.3852 254.244 79.1032 254.574 78.5872 254.574C78.1552 254.574 77.8852 254.334 77.8852 253.704V252.066H77.3212V253.89C77.3212 254.61 77.7052 255.072 78.3892 255.072C78.8212 255.072 79.2112 254.862 79.3792 254.556L79.4392 255H79.9432V252.066H79.3852ZM81.3255 255V253.446C81.3255 252.876 81.6315 252.498 82.1595 252.498C82.5915 252.498 82.8675 252.738 82.8675 253.332V255H83.4315V253.206C83.4315 252.456 83.0775 251.982 82.3035 251.982C81.8895 251.982 81.5175 252.18 81.3315 252.516L81.2715 252.066H80.7615V255H81.3255ZM85.0407 255V252.54H85.6167V252.066H85.0407V251.148H84.4767V252.066H83.9007V252.54H84.4767V255H85.0407ZM87.4248 253.95V253.8C87.4248 253.494 87.6408 253.302 87.9588 253.074C88.3068 252.822 88.7148 252.516 88.7148 251.886C88.7148 251.124 88.1868 250.584 87.3348 250.584C86.5248 250.584 85.9128 251.178 85.9128 251.976H86.4948C86.4948 251.484 86.8488 251.112 87.3228 251.112C87.8148 251.112 88.1208 251.454 88.1208 251.916C88.1208 252.312 87.8508 252.534 87.5568 252.762C87.2328 253.014 86.9028 253.29 86.9028 253.8V253.95H87.4248ZM87.1908 255.084C87.4188 255.084 87.6168 254.886 87.6168 254.658C87.6168 254.43 87.4188 254.232 87.1908 254.232C86.9508 254.232 86.7588 254.424 86.7588 254.658C86.7588 254.892 86.9508 255.084 87.1908 255.084Z" fill="#1E1E1E"/>
<path d="M92.8947 255.072C93.9327 255.072 94.7367 254.46 94.9047 253.536H94.1067C93.9627 254.022 93.5067 254.334 92.9127 254.334C92.1087 254.334 91.5927 253.734 91.5927 252.804C91.5927 251.868 92.1027 251.28 92.9127 251.28C93.4947 251.28 93.9327 251.58 94.0827 252.09H94.8927C94.7427 251.148 93.9687 250.542 92.9307 250.542C91.6467 250.542 90.7887 251.448 90.7887 252.81C90.7887 254.184 91.6167 255.072 92.8947 255.072ZM97.3454 252.024C97.2254 251.994 97.1234 251.982 97.0214 251.982C96.6254 251.982 96.3434 252.18 96.2174 252.474L96.1754 252.042H95.4854V255H96.2174V253.56C96.2174 252.984 96.5474 252.702 97.0754 252.702H97.3454V252.024ZM99.0673 255.078C99.8413 255.078 100.381 254.688 100.507 254.04H99.8293C99.7453 254.322 99.4813 254.478 99.0793 254.478C98.5933 254.478 98.3173 254.214 98.2633 253.692L100.495 253.686V253.464C100.495 252.54 99.9313 251.946 99.0433 251.946C98.1733 251.946 97.5673 252.588 97.5673 253.518C97.5673 254.436 98.1853 255.078 99.0673 255.078ZM99.0493 252.546C99.4873 252.546 99.7693 252.816 99.7693 253.224H98.2813C98.3533 252.78 98.6173 252.546 99.0493 252.546ZM101.934 255.078C102.396 255.078 102.798 254.868 102.924 254.562L102.978 255H103.62V253.2C103.62 252.378 103.128 251.946 102.33 251.946C101.526 251.946 100.998 252.366 100.998 253.008H101.622C101.622 252.696 101.862 252.516 102.294 252.516C102.666 252.516 102.906 252.678 102.906 253.08V253.146L102.018 253.212C101.316 253.266 100.92 253.608 100.92 254.154C100.92 254.712 101.304 255.078 101.934 255.078ZM102.174 254.526C101.844 254.526 101.664 254.394 101.664 254.124C101.664 253.884 101.838 253.734 102.294 253.692L102.912 253.644V253.8C102.912 254.256 102.624 254.526 102.174 254.526ZM105.306 255V252.648H105.882V252.036H105.306V251.112H104.574V252.036H104.004V252.648H104.574V255H105.306ZM107.634 255.078C108.408 255.078 108.948 254.688 109.074 254.04H108.396C108.312 254.322 108.048 254.478 107.646 254.478C107.16 254.478 106.884 254.214 106.83 253.692L109.062 253.686V253.464C109.062 252.54 108.498 251.946 107.61 251.946C106.74 251.946 106.134 252.588 106.134 253.518C106.134 254.436 106.752 255.078 107.634 255.078ZM107.616 252.546C108.054 252.546 108.336 252.816 108.336 253.224H106.848C106.92 252.78 107.184 252.546 107.616 252.546ZM111.751 255L112.105 253.986H113.743L114.097 255H114.907L113.323 250.614H112.537L110.953 255H111.751ZM112.831 251.922C112.873 251.802 112.909 251.67 112.927 251.586C112.939 251.676 112.981 251.808 113.017 251.922L113.521 253.338H112.333L112.831 251.922ZM115.04 253.512C115.04 254.454 115.628 255.078 116.528 255.078C117.302 255.078 117.878 254.604 117.968 253.914H117.23C117.152 254.238 116.894 254.418 116.528 254.418C116.06 254.418 115.772 254.07 115.772 253.512C115.772 252.954 116.084 252.6 116.552 252.6C116.9 252.6 117.146 252.774 117.23 253.11H117.962C117.884 252.396 117.332 251.946 116.522 251.946C115.646 251.946 115.04 252.594 115.04 253.512ZM118.339 253.512C118.339 254.454 118.927 255.078 119.827 255.078C120.601 255.078 121.177 254.604 121.267 253.914H120.529C120.451 254.238 120.193 254.418 119.827 254.418C119.359 254.418 119.071 254.07 119.071 253.512C119.071 252.954 119.383 252.6 119.851 252.6C120.199 252.6 120.445 252.774 120.529 253.11H121.261C121.183 252.396 120.631 251.946 119.821 251.946C118.945 251.946 118.339 252.594 118.339 253.512ZM121.638 253.512C121.638 254.436 122.304 255.072 123.222 255.072C124.14 255.072 124.806 254.436 124.806 253.512C124.806 252.588 124.14 251.952 123.222 251.952C122.304 251.952 121.638 252.588 121.638 253.512ZM122.37 253.512C122.37 252.972 122.718 252.606 123.222 252.606C123.726 252.606 124.074 252.972 124.074 253.512C124.074 254.052 123.726 254.418 123.222 254.418C122.718 254.418 122.37 254.052 122.37 253.512ZM127.326 252.036V253.59C127.326 254.154 127.104 254.424 126.642 254.424C126.234 254.424 126.012 254.196 126.012 253.632V252.036H125.28V253.89C125.28 254.616 125.682 255.078 126.366 255.078C126.762 255.078 127.146 254.886 127.326 254.604L127.38 255H128.058V252.036H127.326ZM129.546 255V253.404C129.546 252.924 129.822 252.612 130.272 252.612C130.65 252.612 130.896 252.852 130.896 253.35V255H131.628V253.176C131.628 252.408 131.244 251.946 130.5 251.946C130.098 251.946 129.738 252.12 129.552 252.42L129.492 252.036H128.814V255H129.546ZM133.355 255V252.648H133.931V252.036H133.355V251.112H132.623V252.036H132.053V252.648H132.623V255H133.355Z" fill="#FFD92C"/>
<path d="M21.129 273H22.845C23.703 273 24.225 272.562 24.225 271.842C24.225 271.326 23.979 270.978 23.499 270.822C23.931 270.642 24.147 270.306 24.147 269.808C24.147 269.094 23.631 268.662 22.785 268.662H21.129V273ZM22.749 269.184C23.259 269.184 23.547 269.43 23.547 269.862C23.547 270.312 23.271 270.576 22.785 270.576H21.717V269.184H22.749ZM22.833 271.086C23.331 271.086 23.619 271.338 23.619 271.77C23.619 272.22 23.337 272.478 22.833 272.478H21.717V271.086H22.833ZM24.5244 274.314C24.6744 274.35 24.8304 274.374 25.0164 274.374C25.4664 274.374 25.7604 274.164 25.9584 273.66L27.3444 270.066H26.7624L25.8924 272.43L25.0404 270.066H24.4464L25.6284 273.156L25.5264 273.438C25.3884 273.81 25.1724 273.852 24.9024 273.852H24.5244V274.314ZM31.3313 273.066C32.3093 273.066 33.0833 272.49 33.2693 271.626H32.6453C32.4833 272.16 31.9793 272.502 31.3433 272.502C30.4673 272.502 29.8913 271.842 29.8913 270.828C29.8913 269.814 30.4673 269.154 31.3433 269.154C31.9733 269.154 32.4593 269.496 32.6213 270.06H33.2513C33.0893 269.172 32.3393 268.59 31.3613 268.59C30.1193 268.59 29.2733 269.496 29.2733 270.834C29.2733 272.178 30.0953 273.066 31.3313 273.066ZM33.7023 271.53C33.7023 272.436 34.3503 273.072 35.2323 273.072C36.1083 273.072 36.7563 272.436 36.7563 271.53C36.7563 270.624 36.1083 269.988 35.2323 269.988C34.3503 269.988 33.7023 270.624 33.7023 271.53ZM34.2723 271.53C34.2723 270.918 34.6623 270.492 35.2323 270.492C35.7963 270.492 36.1923 270.918 36.1923 271.53C36.1923 272.142 35.7963 272.568 35.2323 272.568C34.6623 272.568 34.2723 272.142 34.2723 271.53ZM37.9447 273V271.446C37.9447 270.876 38.2507 270.498 38.7787 270.498C39.2107 270.498 39.4867 270.738 39.4867 271.332V273H40.0507V271.206C40.0507 270.456 39.6967 269.982 38.9227 269.982C38.5087 269.982 38.1367 270.18 37.9507 270.516L37.8907 270.066H37.3807V273H37.9447ZM41.6598 273V270.54H42.2358V270.066H41.6598V269.148H41.0958V270.066H40.5198V270.54H41.0958V273H41.6598ZM43.018 269.37C43.222 269.37 43.39 269.202 43.39 268.998C43.39 268.788 43.222 268.626 43.018 268.626C42.814 268.626 42.646 268.788 42.646 268.998C42.646 269.202 42.814 269.37 43.018 269.37ZM42.742 273H43.306V270.066H42.742V273ZM44.6888 273V271.446C44.6888 270.876 44.9948 270.498 45.5228 270.498C45.9548 270.498 46.2308 270.738 46.2308 271.332V273H46.7948V271.206C46.7948 270.456 46.4408 269.982 45.6668 269.982C45.2528 269.982 44.8808 270.18 44.6948 270.516L44.6348 270.066H44.1248V273H44.6888ZM47.852 269.37C48.056 269.37 48.224 269.202 48.224 268.998C48.224 268.788 48.056 268.626 47.852 268.626C47.648 268.626 47.48 268.788 47.48 268.998C47.48 269.202 47.648 269.37 47.852 269.37ZM47.576 273H48.14V270.066H47.576V273ZM50.8051 270.066V271.614C50.8051 272.244 50.5231 272.574 50.0071 272.574C49.5751 272.574 49.3051 272.334 49.3051 271.704V270.066H48.7411V271.89C48.7411 272.61 49.1251 273.072 49.8091 273.072C50.2411 273.072 50.6311 272.862 50.7991 272.556L50.8591 273H51.3631V270.066H50.8051ZM52.7454 273V271.446C52.7454 270.876 53.0514 270.498 53.5794 270.498C54.0114 270.498 54.2874 270.738 54.2874 271.332V273H54.8514V271.206C54.8514 270.456 54.4974 269.982 53.7234 269.982C53.3094 269.982 52.9374 270.18 52.7514 270.516L52.6914 270.066H52.1814V273H52.7454ZM55.9086 269.37C56.1126 269.37 56.2806 269.202 56.2806 268.998C56.2806 268.788 56.1126 268.626 55.9086 268.626C55.7046 268.626 55.5366 268.788 55.5366 268.998C55.5366 269.202 55.7046 269.37 55.9086 269.37ZM55.6326 273H56.1966V270.066H55.6326V273ZM57.5794 273V271.446C57.5794 270.876 57.8854 270.498 58.4134 270.498C58.8454 270.498 59.1214 270.738 59.1214 271.332V273H59.6854V271.206C59.6854 270.456 59.3314 269.982 58.5574 269.982C58.1434 269.982 57.7714 270.18 57.5854 270.516L57.5254 270.066H57.0154V273H57.5794ZM60.2806 271.458C60.2806 272.28 60.8086 272.922 61.6426 272.922C62.1046 272.922 62.4886 272.718 62.6806 272.376V272.964C62.6806 273.522 62.3206 273.882 61.7686 273.882C61.2766 273.882 60.9526 273.63 60.8806 273.198H60.3166C60.4246 273.942 60.9706 274.392 61.7686 274.392C62.6686 274.392 63.2386 273.804 63.2386 272.88V270.066H62.7346L62.6926 270.564C62.5066 270.198 62.1406 269.982 61.6666 269.982C60.8146 269.982 60.2806 270.63 60.2806 271.458ZM60.8446 271.446C60.8446 270.906 61.1806 270.474 61.7446 270.474C62.3206 270.474 62.6566 270.882 62.6566 271.446C62.6566 272.022 62.3086 272.43 61.7386 272.43C61.1866 272.43 60.8446 271.998 60.8446 271.446ZM64.8985 272.766C64.8985 272.436 64.6945 272.226 64.4425 272.226C64.2025 272.226 64.0405 272.4 64.0405 272.64C64.0405 272.862 64.2085 273.006 64.4065 273.006C64.4785 273.006 64.5265 272.994 64.5685 272.97C64.5685 273.156 64.3945 273.318 64.1485 273.36V273.612C64.5745 273.558 64.8985 273.198 64.8985 272.766ZM67.0694 274.314C67.2194 274.35 67.3754 274.374 67.5614 274.374C68.0114 274.374 68.3054 274.164 68.5034 273.66L69.8894 270.066H69.3074L68.4374 272.43L67.5854 270.066H66.9914L68.1734 273.156L68.0714 273.438C67.9334 273.81 67.7174 273.852 67.4474 273.852H67.0694V274.314ZM70.0363 271.53C70.0363 272.436 70.6843 273.072 71.5663 273.072C72.4423 273.072 73.0903 272.436 73.0903 271.53C73.0903 270.624 72.4423 269.988 71.5663 269.988C70.6843 269.988 70.0363 270.624 70.0363 271.53ZM70.6063 271.53C70.6063 270.918 70.9963 270.492 71.5663 270.492C72.1303 270.492 72.5263 270.918 72.5263 271.53C72.5263 272.142 72.1303 272.568 71.5663 272.568C70.9963 272.568 70.6063 272.142 70.6063 271.53ZM75.6723 270.066V271.614C75.6723 272.244 75.3903 272.574 74.8743 272.574C74.4423 272.574 74.1723 272.334 74.1723 271.704V270.066H73.6083V271.89C73.6083 272.61 73.9923 273.072 74.6763 273.072C75.1083 273.072 75.4983 272.862 75.6663 272.556L75.7263 273H76.2303V270.066H75.6723ZM79.5473 273.072C80.0213 273.072 80.4233 272.862 80.5733 272.526L80.6333 273H81.1133V271.158C81.1133 270.366 80.6213 269.982 79.8953 269.982C79.1393 269.982 78.6353 270.384 78.6353 270.996H79.1273C79.1273 270.642 79.3973 270.432 79.8713 270.432C80.2673 270.432 80.5613 270.606 80.5613 271.098V271.182L79.6373 271.254C78.9473 271.308 78.5453 271.644 78.5453 272.184C78.5453 272.718 78.9173 273.072 79.5473 273.072ZM79.7093 272.634C79.3433 272.634 79.1153 272.478 79.1153 272.166C79.1153 271.878 79.3193 271.686 79.8173 271.638L80.5673 271.578V271.734C80.5673 272.286 80.2433 272.634 79.7093 272.634ZM81.7023 271.536C81.7023 272.46 82.2723 273.072 83.1363 273.072C83.8443 273.072 84.3903 272.646 84.5043 272.01H83.9403C83.8383 272.358 83.5383 272.568 83.1363 272.568C82.6023 272.568 82.2603 272.16 82.2603 271.53C82.2603 270.894 82.6263 270.486 83.1603 270.486C83.5383 270.486 83.8383 270.684 83.9343 271.056H84.4983C84.3963 270.402 83.8803 269.982 83.1423 269.982C82.2843 269.982 81.7023 270.618 81.7023 271.536ZM84.9074 271.536C84.9074 272.46 85.4774 273.072 86.3414 273.072C87.0494 273.072 87.5954 272.646 87.7094 272.01H87.1454C87.0434 272.358 86.7434 272.568 86.3414 272.568C85.8074 272.568 85.4654 272.16 85.4654 271.53C85.4654 270.894 85.8314 270.486 86.3654 270.486C86.7434 270.486 87.0434 270.684 87.1394 271.056H87.7034C87.6014 270.402 87.0854 269.982 86.3474 269.982C85.4894 269.982 84.9074 270.618 84.9074 271.536ZM89.5705 273.072C90.2965 273.072 90.7885 272.718 90.9325 272.088H90.4045C90.3085 272.424 90.0205 272.604 89.5825 272.604C89.0245 272.604 88.7005 272.262 88.6585 271.644L90.9265 271.638V271.428C90.9265 270.558 90.3805 269.982 89.5465 269.982C88.6945 269.982 88.1125 270.618 88.1125 271.536C88.1125 272.448 88.7065 273.072 89.5705 273.072ZM89.5465 270.456C90.0445 270.456 90.3625 270.78 90.3625 271.266H88.6705C88.7425 270.75 89.0545 270.456 89.5465 270.456ZM91.5564 274.314H92.1204V272.52C92.3124 272.88 92.7024 273.078 93.1704 273.078C94.0404 273.078 94.5324 272.406 94.5324 271.512C94.5324 270.612 94.0104 269.982 93.1704 269.982C92.7024 269.982 92.3064 270.192 92.1084 270.594L92.0664 270.066H91.5564V274.314ZM92.1264 271.536C92.1264 270.924 92.4744 270.498 93.0504 270.498C93.6264 270.498 93.9684 270.93 93.9684 271.536C93.9684 272.136 93.6264 272.568 93.0504 272.568C92.4744 272.568 92.1264 272.136 92.1264 271.536ZM95.9528 273V270.54H96.5288V270.066H95.9528V269.148H95.3888V270.066H94.8128V270.54H95.3888V273H95.9528ZM98.4836 271.53C98.4836 272.436 99.1316 273.072 100.014 273.072C100.89 273.072 101.538 272.436 101.538 271.53C101.538 270.624 100.89 269.988 100.014 269.988C99.1316 269.988 98.4836 270.624 98.4836 271.53ZM99.0536 271.53C99.0536 270.918 99.4436 270.492 100.014 270.492C100.578 270.492 100.974 270.918 100.974 271.53C100.974 272.142 100.578 272.568 100.014 272.568C99.4436 272.568 99.0536 272.142 99.0536 271.53ZM104.12 270.066V271.614C104.12 272.244 103.838 272.574 103.322 272.574C102.89 272.574 102.62 272.334 102.62 271.704V270.066H102.056V271.89C102.056 272.61 102.44 273.072 103.124 273.072C103.556 273.072 103.946 272.862 104.114 272.556L104.174 273H104.678V270.066H104.12ZM107.176 270.042C107.062 270.018 106.978 270.006 106.876 270.006C106.474 270.006 106.18 270.21 106.06 270.516L106.024 270.072H105.496V273H106.06V271.446C106.06 270.882 106.39 270.558 106.924 270.558H107.176V270.042ZM109.022 269.202H110.33V273H110.918V269.202H112.22V268.662H109.022V269.202ZM113.506 273.072C114.232 273.072 114.724 272.718 114.868 272.088H114.34C114.244 272.424 113.956 272.604 113.518 272.604C112.96 272.604 112.636 272.262 112.594 271.644L114.862 271.638V271.428C114.862 270.558 114.316 269.982 113.482 269.982C112.63 269.982 112.048 270.618 112.048 271.536C112.048 272.448 112.642 273.072 113.506 273.072ZM113.482 270.456C113.98 270.456 114.298 270.78 114.298 271.266H112.606C112.678 270.75 112.99 270.456 113.482 270.456ZM117.172 270.042C117.058 270.018 116.974 270.006 116.872 270.006C116.47 270.006 116.176 270.21 116.056 270.516L116.02 270.072H115.492V273H116.056V271.446C116.056 270.882 116.386 270.558 116.92 270.558H117.172V270.042ZM118.265 273V271.26C118.265 270.792 118.547 270.498 118.973 270.498C119.369 270.498 119.621 270.75 119.621 271.212V273H120.179V271.26C120.179 270.792 120.461 270.492 120.887 270.492C121.283 270.492 121.541 270.756 121.541 271.218V273H122.093V271.08C122.093 270.402 121.685 269.982 121.013 269.982C120.557 269.982 120.203 270.21 120.065 270.576C119.915 270.21 119.591 269.982 119.135 269.982C118.721 269.982 118.409 270.174 118.259 270.45L118.205 270.066H117.701V273H118.265ZM122.6 272.148C122.6 272.706 123.038 273.072 123.728 273.072C124.424 273.072 124.904 272.718 124.904 272.16C124.904 271.722 124.658 271.494 124.16 271.374L123.644 271.248C123.356 271.176 123.212 271.044 123.212 270.846C123.212 270.576 123.41 270.42 123.764 270.42C124.106 270.42 124.304 270.606 124.316 270.9H124.856C124.844 270.342 124.424 269.982 123.782 269.982C123.134 269.982 122.678 270.324 122.678 270.864C122.678 271.296 122.924 271.554 123.446 271.68L123.962 271.8C124.268 271.878 124.364 271.998 124.364 272.196C124.364 272.466 124.136 272.628 123.74 272.628C123.368 272.628 123.14 272.448 123.14 272.148H122.6ZM128.028 273.072C128.502 273.072 128.904 272.862 129.054 272.526L129.114 273H129.594V271.158C129.594 270.366 129.102 269.982 128.376 269.982C127.62 269.982 127.116 270.384 127.116 270.996H127.608C127.608 270.642 127.878 270.432 128.352 270.432C128.748 270.432 129.042 270.606 129.042 271.098V271.182L128.118 271.254C127.428 271.308 127.026 271.644 127.026 272.184C127.026 272.718 127.398 273.072 128.028 273.072ZM128.19 272.634C127.824 272.634 127.596 272.478 127.596 272.166C127.596 271.878 127.8 271.686 128.298 271.638L129.048 271.578V271.734C129.048 272.286 128.724 272.634 128.19 272.634ZM130.939 273V271.446C130.939 270.876 131.245 270.498 131.773 270.498C132.205 270.498 132.481 270.738 132.481 271.332V273H133.045V271.206C133.045 270.456 132.691 269.982 131.917 269.982C131.503 269.982 131.131 270.18 130.945 270.516L130.885 270.066H130.375V273H130.939ZM135.002 273.072C135.47 273.072 135.866 272.868 136.058 272.466L136.106 273H136.61V268.584H136.052V270.54C135.854 270.18 135.476 269.982 135.026 269.982C134.156 269.982 133.634 270.642 133.634 271.542C133.634 272.436 134.15 273.072 135.002 273.072ZM135.116 272.562C134.54 272.562 134.204 272.13 134.204 271.524C134.204 270.924 134.54 270.492 135.116 270.492C135.692 270.492 136.046 270.924 136.046 271.524C136.046 272.136 135.692 272.562 135.116 272.562ZM45.3909 281.066C46.3689 281.066 47.1429 280.49 47.3289 279.626H46.7049C46.5429 280.16 46.0389 280.502 45.4029 280.502C44.5269 280.502 43.9509 279.842 43.9509 278.828C43.9509 277.814 44.5269 277.154 45.4029 277.154C46.0329 277.154 46.5189 277.496 46.6809 278.06H47.3109C47.1489 277.172 46.3989 276.59 45.4209 276.59C44.1789 276.59 43.3329 277.496 43.3329 278.834C43.3329 280.178 44.1549 281.066 45.3909 281.066ZM47.7619 279.53C47.7619 280.436 48.4099 281.072 49.2919 281.072C50.1679 281.072 50.8159 280.436 50.8159 279.53C50.8159 278.624 50.1679 277.988 49.2919 277.988C48.4099 277.988 47.7619 278.624 47.7619 279.53ZM48.3319 279.53C48.3319 278.918 48.7219 278.492 49.2919 278.492C49.8559 278.492 50.2519 278.918 50.2519 279.53C50.2519 280.142 49.8559 280.568 49.2919 280.568C48.7219 280.568 48.3319 280.142 48.3319 279.53ZM52.0042 281V279.446C52.0042 278.876 52.3102 278.498 52.8382 278.498C53.2702 278.498 53.5462 278.738 53.5462 279.332V281H54.1102V279.206C54.1102 278.456 53.7562 277.982 52.9822 277.982C52.5682 277.982 52.1962 278.18 52.0102 278.516L51.9502 278.066H51.4402V281H52.0042ZM56.0674 281.072C56.5354 281.072 56.9314 280.868 57.1234 280.466L57.1714 281H57.6754V276.584H57.1174V278.54C56.9194 278.18 56.5414 277.982 56.0914 277.982C55.2214 277.982 54.6994 278.642 54.6994 279.542C54.6994 280.436 55.2154 281.072 56.0674 281.072ZM56.1814 280.562C55.6054 280.562 55.2694 280.13 55.2694 279.524C55.2694 278.924 55.6054 278.492 56.1814 278.492C56.7574 278.492 57.1114 278.924 57.1114 279.524C57.1114 280.136 56.7574 280.562 56.1814 280.562ZM58.7651 277.37C58.9691 277.37 59.1371 277.202 59.1371 276.998C59.1371 276.788 58.9691 276.626 58.7651 276.626C58.5611 276.626 58.3931 276.788 58.3931 276.998C58.3931 277.202 58.5611 277.37 58.7651 277.37ZM58.4891 281H59.0531V278.066H58.4891V281ZM60.6999 281V278.54H61.2759V278.066H60.6999V277.148H60.1359V278.066H59.5599V278.54H60.1359V281H60.6999ZM62.058 277.37C62.262 277.37 62.43 277.202 62.43 276.998C62.43 276.788 62.262 276.626 62.058 276.626C61.854 276.626 61.686 276.788 61.686 276.998C61.686 277.202 61.854 277.37 62.058 277.37ZM61.782 281H62.346V278.066H61.782V281ZM62.9728 279.53C62.9728 280.436 63.6208 281.072 64.5028 281.072C65.3788 281.072 66.0268 280.436 66.0268 279.53C66.0268 278.624 65.3788 277.988 64.5028 277.988C63.6208 277.988 62.9728 278.624 62.9728 279.53ZM63.5428 279.53C63.5428 278.918 63.9328 278.492 64.5028 278.492C65.0668 278.492 65.4628 278.918 65.4628 279.53C65.4628 280.142 65.0668 280.568 64.5028 280.568C63.9328 280.568 63.5428 280.142 63.5428 279.53ZM67.2152 281V279.446C67.2152 278.876 67.5212 278.498 68.0492 278.498C68.4812 278.498 68.7572 278.738 68.7572 279.332V281H69.3212V279.206C69.3212 278.456 68.9672 277.982 68.1932 277.982C67.7792 277.982 67.4072 278.18 67.2212 278.516L67.1612 278.066H66.6512V281H67.2152ZM69.8272 280.148C69.8272 280.706 70.2652 281.072 70.9552 281.072C71.6512 281.072 72.1312 280.718 72.1312 280.16C72.1312 279.722 71.8852 279.494 71.3872 279.374L70.8712 279.248C70.5832 279.176 70.4392 279.044 70.4392 278.846C70.4392 278.576 70.6372 278.42 70.9912 278.42C71.3332 278.42 71.5312 278.606 71.5432 278.9H72.0832C72.0712 278.342 71.6512 277.982 71.0092 277.982C70.3612 277.982 69.9052 278.324 69.9052 278.864C69.9052 279.296 70.1512 279.554 70.6732 279.68L71.1892 279.8C71.4952 279.878 71.5912 279.998 71.5912 280.196C71.5912 280.466 71.3632 280.628 70.9672 280.628C70.5952 280.628 70.3672 280.448 70.3672 280.148H69.8272ZM73.6026 280.766C73.6026 280.436 73.3986 280.226 73.1466 280.226C72.9066 280.226 72.7446 280.4 72.7446 280.64C72.7446 280.862 72.9126 281.006 73.1106 281.006C73.1826 281.006 73.2306 280.994 73.2726 280.97C73.2726 281.156 73.0986 281.318 72.8526 281.36V281.612C73.2786 281.558 73.6026 281.198 73.6026 280.766ZM77.8375 279.452C78.6835 279.452 79.2355 278.864 79.2355 278.054C79.2355 277.22 78.6895 276.662 77.8375 276.662H76.1515V281H76.7395V279.452H77.8375ZM77.7355 277.19C78.2875 277.19 78.6175 277.502 78.6175 278.048C78.6175 278.582 78.2935 278.924 77.7115 278.924H76.7395V277.19H77.7355ZM81.4855 278.042C81.3715 278.018 81.2875 278.006 81.1855 278.006C80.7835 278.006 80.4895 278.21 80.3695 278.516L80.3335 278.072H79.8055V281H80.3695V279.446C80.3695 278.882 80.6995 278.558 81.2335 278.558H81.4855V278.042ZM82.2904 277.37C82.4944 277.37 82.6624 277.202 82.6624 276.998C82.6624 276.788 82.4944 276.626 82.2904 276.626C82.0864 276.626 81.9184 276.788 81.9184 276.998C81.9184 277.202 82.0864 277.37 82.2904 277.37ZM82.0144 281H82.5784V278.066H82.0144V281ZM84.2193 281H84.7773L86.0013 278.066H85.4133L84.7593 279.704C84.6573 279.962 84.5613 280.214 84.5133 280.406C84.4653 280.226 84.3813 279.98 84.2793 279.704L83.6373 278.066H83.0373L84.2193 281ZM87.1732 281.072C87.6472 281.072 88.0492 280.862 88.1992 280.526L88.2592 281H88.7392V279.158C88.7392 278.366 88.2472 277.982 87.5212 277.982C86.7652 277.982 86.2612 278.384 86.2612 278.996H86.7532C86.7532 278.642 87.0232 278.432 87.4972 278.432C87.8932 278.432 88.1872 278.606 88.1872 279.098V279.182L87.2632 279.254C86.5732 279.308 86.1712 279.644 86.1712 280.184C86.1712 280.718 86.5432 281.072 87.1732 281.072ZM87.3352 280.634C86.9692 280.634 86.7412 280.478 86.7412 280.166C86.7412 279.878 86.9452 279.686 87.4432 279.638L88.1932 279.578V279.734C88.1932 280.286 87.8692 280.634 87.3352 280.634ZM89.3283 279.536C89.3283 280.46 89.8983 281.072 90.7623 281.072C91.4703 281.072 92.0163 280.646 92.1303 280.01H91.5663C91.4643 280.358 91.1643 280.568 90.7623 280.568C90.2283 280.568 89.8863 280.16 89.8863 279.53C89.8863 278.894 90.2523 278.486 90.7863 278.486C91.1643 278.486 91.4643 278.684 91.5603 279.056H92.1243C92.0223 278.402 91.5063 277.982 90.7683 277.982C89.9103 277.982 89.3283 278.618 89.3283 279.536ZM92.3848 282.314C92.5348 282.35 92.6908 282.374 92.8768 282.374C93.3268 282.374 93.6208 282.164 93.8188 281.66L95.2048 278.066H94.6228L93.7528 280.43L92.9008 278.066H92.3068L93.4888 281.156L93.3868 281.438C93.2488 281.81 93.0328 281.852 92.7628 281.852H92.3848V282.314ZM99.0777 279.452C99.9237 279.452 100.476 278.864 100.476 278.054C100.476 277.22 99.9297 276.662 99.0777 276.662H97.3917V281H97.9797V279.452H99.0777ZM98.9757 277.19C99.5277 277.19 99.8577 277.502 99.8577 278.048C99.8577 278.582 99.5337 278.924 98.9517 278.924H97.9797V277.19H98.9757ZM100.719 279.53C100.719 280.436 101.367 281.072 102.249 281.072C103.125 281.072 103.773 280.436 103.773 279.53C103.773 278.624 103.125 277.988 102.249 277.988C101.367 277.988 100.719 278.624 100.719 279.53ZM101.289 279.53C101.289 278.918 101.679 278.492 102.249 278.492C102.813 278.492 103.209 278.918 103.209 279.53C103.209 280.142 102.813 280.568 102.249 280.568C101.679 280.568 101.289 280.142 101.289 279.53ZM104.973 281V276.584H104.409V281H104.973ZM106.08 277.37C106.284 277.37 106.452 277.202 106.452 276.998C106.452 276.788 106.284 276.626 106.08 276.626C105.876 276.626 105.708 276.788 105.708 276.998C105.708 277.202 105.876 277.37 106.08 277.37ZM105.804 281H106.368V278.066H105.804V281ZM106.994 279.536C106.994 280.46 107.564 281.072 108.428 281.072C109.136 281.072 109.682 280.646 109.796 280.01H109.232C109.13 280.358 108.83 280.568 108.428 280.568C107.894 280.568 107.552 280.16 107.552 279.53C107.552 278.894 107.918 278.486 108.452 278.486C108.83 278.486 109.13 278.684 109.226 279.056H109.79C109.688 278.402 109.172 277.982 108.434 277.982C107.576 277.982 106.994 278.618 106.994 279.536ZM110.051 282.314C110.201 282.35 110.357 282.374 110.543 282.374C110.993 282.374 111.287 282.164 111.485 281.66L112.871 278.066H112.289L111.419 280.43L110.567 278.066H109.973L111.155 281.156L111.053 281.438C110.915 281.81 110.699 281.852 110.429 281.852H110.051V282.314Z" fill="#1E1E1E"/>
<path d="M108.938 274.41H137.018V274.89H108.938V274.41ZM43.0869 282.41H72.3472V282.89H43.0869V282.41ZM75.6475 282.41H112.913V282.89H75.6475V282.41Z" fill="#1E1E1E"/>
</svg>
