<svg width="142" height="506" viewBox="0 0 142 506" fill="none" xmlns="http://www.w3.org/2000/svg">
<path opacity="0.36" d="M117 479.51H119V477.51H117V479.51ZM74.25 479.51H72.25V481.51H74.25V479.51ZM74.25 410.768H76.25V408.768H74.25V410.768ZM51.336 410.768V408.768H49.336V410.768H51.336ZM51.336 479.51V481.51H53.336V479.51H51.336ZM25.515 479.51H23.515V481.51H25.515V479.51ZM25.515 408.203H27.515V406.203H25.515V408.203ZM2.42999 408.203V406.203H0.429994V408.203H2.42999ZM2.42999 505.16H0.429994V507.16H2.42999V505.16ZM117 505.16V507.16H119V505.16H117ZM117 477.51H74.25V481.51H117V477.51ZM76.25 479.51L76.25 410.768H72.25L72.25 479.51H76.25ZM74.25 408.768H51.336V412.768H74.25V408.768ZM49.336 410.768L49.336 479.51H53.336L53.336 410.768H49.336ZM51.336 477.51H25.515V481.51H51.336V477.51ZM27.515 479.51L27.515 408.203H23.515L23.515 479.51H27.515ZM25.515 406.203H2.42999V410.203H25.515V406.203ZM0.429994 408.203L0.429994 505.16H4.42999L4.42999 408.203H0.429994ZM2.42999 507.16H117V503.16H2.42999V507.16ZM119 505.16V479.51H115V505.16H119ZM117 376.25H119V374.936L117.794 374.414L117 376.25ZM91.692 365.306H89.692V366.62L90.8982 367.142L91.692 365.306ZM91.692 308.021L90.9087 306.181L89.692 306.699V308.021H91.692ZM117 297.248L117.783 299.088L119 298.57V297.248H117ZM117 267.836H119V264.77L116.194 266.006L117 267.836ZM2.42999 318.281L1.62406 316.451L0.429994 316.976V318.281H2.42999ZM2.42999 354.875H0.429994V356.183L1.62864 356.707L2.42999 354.875ZM117 404.978L116.199 406.81L119 408.036V404.978H117ZM43.641 344.615L44.4334 342.779L44.4041 342.766L44.3745 342.754L43.641 344.615ZM25.857 337.604H23.857V338.965L25.1235 339.465L25.857 337.604ZM25.857 335.723L25.1235 333.862L23.857 334.362V335.723H25.857ZM43.641 328.712L44.3745 330.573L44.4041 330.561L44.4334 330.548L43.641 328.712ZM68.607 317.939H70.607L70.607 314.898L67.8146 316.103L68.607 317.939ZM68.607 355.388L67.8146 357.224L70.607 358.429V355.388H68.607ZM117.794 374.414L92.4858 363.47L90.8982 367.142L116.206 378.086L117.794 374.414ZM93.692 365.306V308.021H89.692V365.306H93.692ZM92.4753 309.861L117.783 299.088L116.217 295.408L90.9087 306.181L92.4753 309.861ZM119 297.248L119 267.836H115L115 297.248H119ZM116.194 266.006L1.62406 316.451L3.23593 320.111L117.806 269.666L116.194 266.006ZM0.429994 318.281L0.429994 354.875H4.42999L4.42999 318.281H0.429994ZM1.62864 356.707L116.199 406.81L117.801 403.146L3.23134 353.043L1.62864 356.707ZM119 404.978V376.25H115V404.978H119ZM44.3745 342.754L26.5905 335.743L25.1235 339.465L42.9075 346.476L44.3745 342.754ZM27.857 337.604V335.723H23.857V337.604H27.857ZM26.5905 337.584L44.3745 330.573L42.9075 326.851L25.1235 333.862L26.5905 337.584ZM44.4334 330.548L69.3994 319.775L67.8146 316.103L42.8486 326.876L44.4334 330.548ZM66.607 317.939V355.388H70.607V317.939H66.607ZM69.3994 353.552L44.4334 342.779L42.8486 346.451L67.8146 357.224L69.3994 353.552ZM141.111 156.858H143.111V152.412L139.784 155.362L141.111 156.858ZM115.461 179.601L113.547 180.182L114.453 183.168L116.788 181.098L115.461 179.601ZM118.539 207.987L117.301 206.416L116.595 206.973L116.542 207.871L118.539 207.987ZM141.111 190.203L142.349 191.774L143.111 191.174V190.203H141.111ZM139.784 155.362L114.134 178.105L116.788 181.098L142.438 158.355L139.784 155.362ZM117.375 179.021C109.568 153.295 88.3738 138.613 59.715 138.613V142.613C86.8022 142.613 106.306 156.318 113.547 180.182L117.375 179.021ZM59.715 138.613C41.397 138.613 26.0929 144.628 15.3727 155.794C4.65994 166.952 -1.28001 183.05 -1.28001 202.857H2.71999C2.71999 183.848 8.40806 168.824 18.2581 158.564C28.1006 148.312 42.294 142.613 59.715 142.613V138.613ZM-1.28001 202.857C-1.28001 222.248 4.66645 238.174 15.3768 249.263C26.0935 260.358 41.3933 266.417 59.715 266.417V262.417C42.2976 262.417 28.1 256.678 18.2539 246.484C8.40154 236.283 2.71999 221.428 2.71999 202.857H-1.28001ZM59.715 266.417C77.1572 266.417 91.8728 260.931 102.499 250.795C113.123 240.661 119.485 226.045 120.536 208.104L116.542 207.871C115.541 224.985 109.505 238.584 99.7379 247.901C89.9722 257.216 76.3017 262.417 59.715 262.417V266.417ZM119.777 209.558L142.349 191.774L139.873 188.632L117.301 206.416L119.777 209.558ZM143.111 190.203V156.858H139.111V190.203H143.111ZM92.086 202.857C92.086 215.286 89.867 223.191 85.0353 228.061C80.2072 232.927 72.3063 235.228 59.715 235.228L59.715 239.228C72.6027 239.228 81.8873 236.913 87.8749 230.878C93.859 224.846 96.086 215.566 96.086 202.857H92.086ZM59.715 235.228C47.1237 235.228 39.2228 232.927 34.3946 228.061C29.563 223.191 27.344 215.286 27.344 202.857H23.344C23.344 215.566 25.571 224.846 31.5551 230.878C37.5427 236.913 46.8273 239.228 59.715 239.228L59.715 235.228ZM27.344 202.857C27.344 190.432 29.5616 182.384 34.4109 177.381C39.2454 172.394 47.1471 169.973 59.715 169.973V165.973C46.8039 165.973 37.5201 168.427 31.5388 174.597C25.5724 180.752 23.344 190.146 23.344 202.857H27.344ZM59.715 169.973C72.2829 169.973 80.1846 172.394 85.0191 177.381C89.8684 182.384 92.086 190.432 92.086 202.857H96.086C96.086 190.146 93.8576 180.752 87.8912 174.597C81.9099 168.427 72.6261 165.973 59.715 165.973V169.973ZM2.42999 98.1346V96.1346H0.429994V98.1346H2.42999ZM2.42999 131.138H0.429994V133.138H2.42999V131.138ZM32.355 131.138V133.138H34.355V131.138H32.355ZM32.355 116.603V114.603H30.355V116.603H32.355ZM40.563 130.112H38.563V132.112H40.563V130.112ZM56.466 130.112V132.112H58.466V130.112H56.466ZM58.466 121.049C58.466 113.49 56.6446 107.205 52.6463 102.797C48.6172 98.3555 42.6656 96.1346 35.091 96.1346V100.135C41.8804 100.135 46.6163 102.103 49.6836 105.485C52.7818 108.9 54.466 114.072 54.466 121.049H58.466ZM35.091 96.1346H2.42999L2.42999 100.135H35.091V96.1346ZM0.429994 98.1346L0.429994 131.138H4.42999L4.42999 98.1346H0.429994ZM2.42999 133.138H32.355V129.138H2.42999V133.138ZM34.355 131.138V116.603H30.355V131.138H34.355ZM32.355 118.603H35.262V114.603H32.355V118.603ZM35.262 118.603C37.219 118.603 37.8316 119.01 38.0474 119.243C38.2936 119.509 38.563 120.114 38.563 121.733H42.563C42.563 119.931 42.3194 117.971 40.9838 116.527C39.6178 115.05 37.58 114.603 35.262 114.603V118.603ZM38.563 121.733V130.112H42.563V121.733H38.563ZM40.563 132.112H56.466V128.112H40.563V132.112ZM58.466 130.112V121.049H54.466V130.112H58.466ZM67.581 31.9696L69.5664 32.2108L69.5675 32.2015L69.5686 32.1921L67.581 31.9696ZM65.358 50.2666L63.3726 50.0254L63.3725 50.026L65.358 50.2666ZM61.596 28.7206V30.7206H63.596V28.7206H61.596ZM61.596 3.07062H63.596V1.07062H61.596V3.07062ZM80.577 62.5786L78.5914 62.3392L78.5901 62.3496L78.589 62.36L80.577 62.5786ZM83.484 38.4676L81.5021 38.1989L81.5001 38.2136L81.4984 38.2282L83.484 38.4676ZM87.075 62.0656V60.0656H85.075V62.0656H87.075ZM87.075 87.7156H85.075V89.7156H87.075V87.7156ZM120.71 42.9136C120.71 29.4307 118.019 18.4109 113.085 10.693C108.106 2.90442 100.838 -1.49435 92.034 -1.49435V2.50565C99.304 2.50565 105.374 6.05832 109.715 12.8475C114.1 19.7074 116.71 29.8916 116.71 42.9136H120.71ZM92.034 -1.49435C84.4833 -1.49435 78.3719 0.811066 73.8879 6.39224C69.5109 11.8402 66.8897 20.1667 65.5934 31.7471L69.5686 32.1921C70.8373 20.8585 73.3461 13.4531 77.0061 8.89752C80.5591 4.47519 85.3917 2.50565 92.034 2.50565V-1.49435ZM65.5956 31.7284L63.3726 50.0254L67.3434 50.5078L69.5664 32.2108L65.5956 31.7284ZM63.3725 50.026C62.6856 55.6935 61.9009 58.7133 60.9465 60.3153C60.5124 61.0439 60.0888 61.3956 59.6729 61.5981C59.2249 61.8163 58.6099 61.9466 57.663 61.9466V65.9466C58.9391 65.9466 60.2265 65.7777 61.4243 65.1943C62.6544 64.5953 63.6201 63.6431 64.3829 62.3625C65.8226 59.9459 66.6624 56.1258 67.3435 50.5073L63.3725 50.026ZM57.663 61.9466C56.4765 61.9466 55.6627 61.7677 55.0698 61.4615C54.5134 61.1742 54.0006 60.6977 53.5428 59.8057C52.5462 57.8641 51.968 54.2926 51.968 47.8726H47.968C47.968 54.2776 48.5013 58.7431 49.9842 61.6323C50.7661 63.1556 51.8351 64.293 53.2345 65.0156C54.5974 65.7194 56.1135 65.9466 57.663 65.9466V61.9466ZM51.968 47.8726C51.968 40.0346 52.8872 35.7611 54.333 33.4617C55.011 32.3834 55.8063 31.7405 56.7431 31.3393C57.7221 30.92 58.9613 30.7206 60.57 30.7206V26.7206C58.6731 26.7206 56.8343 26.9488 55.1683 27.6623C53.4599 28.394 52.0429 29.5893 50.9468 31.3325C48.8443 34.6761 47.968 39.9787 47.968 47.8726H51.968ZM60.57 30.7206H61.596V26.7206H60.57V30.7206ZM63.596 28.7206V3.07062H59.596V28.7206H63.596ZM61.596 1.07062H61.083V5.07062H61.596V1.07062ZM61.083 1.07062C50.0699 1.07062 41.5623 5.3093 35.8915 13.3776C30.2989 21.3345 27.619 32.7947 27.619 47.0176H31.619C31.619 33.1966 34.2401 22.6833 39.164 15.6777C44.0097 8.78345 51.2341 5.07062 61.083 5.07062V1.07062ZM27.619 47.0176C27.619 61.9571 30.6534 72.9784 35.8527 80.3214C41.1067 87.7414 48.4738 91.2546 56.637 91.2546V87.2546C49.7522 87.2546 43.6103 84.3553 39.1172 78.0099C34.5696 71.5874 31.619 61.4902 31.619 47.0176H27.619ZM56.637 91.2546C64.3101 91.2546 70.4074 88.6721 74.795 83.6441C79.1209 78.6869 81.6007 71.5634 82.565 62.7973L78.589 62.36C77.6723 70.6938 75.3641 76.9083 71.7812 81.0141C68.2601 85.0492 63.3279 87.2546 56.637 87.2546V91.2546ZM82.5626 62.818L85.4696 38.707L81.4984 38.2282L78.5914 62.3392L82.5626 62.818ZM85.4659 38.7364C86.1589 33.6253 86.8129 30.868 87.6903 29.3662C88.0801 28.6991 88.4672 28.3701 88.8758 28.1725C89.3235 27.9558 89.9712 27.8136 91.008 27.8136V23.8136C89.6507 23.8136 88.332 23.992 87.1338 24.5717C85.8966 25.1702 84.9584 26.113 84.2366 27.3483C82.8911 29.6513 82.1771 33.2209 81.5021 38.1989L85.4659 38.7364ZM91.008 27.8136C92.0934 27.8136 92.8197 27.9878 93.3473 28.2819C93.8461 28.56 94.345 29.0439 94.8014 30.0056C95.785 32.0783 96.361 35.8938 96.361 42.7426H100.361C100.361 35.9114 99.8255 31.2625 98.4151 28.2906C97.6745 26.7301 96.6557 25.5467 95.295 24.7881C93.9629 24.0456 92.4875 23.8136 91.008 23.8136V27.8136ZM96.361 42.7426C96.361 50.0487 95.8216 54.4317 94.5767 56.9756C93.9961 58.1621 93.2938 58.8739 92.4461 59.3235C91.5606 59.7932 90.3473 60.0656 88.614 60.0656V64.0656C90.7282 64.0656 92.657 63.7395 94.3204 62.8572C96.0217 61.9549 97.2753 60.5613 98.1695 58.7339C99.8744 55.25 100.361 49.9716 100.361 42.7426H96.361ZM88.614 60.0656H87.075V64.0656H88.614V60.0656ZM85.075 62.0656V87.7156H89.075V62.0656H85.075ZM87.075 89.7156H87.588V85.7156H87.075V89.7156ZM87.588 89.7156C98.1198 89.7156 106.53 85.4524 112.227 77.2971C117.854 69.2425 120.71 57.5778 120.71 42.9136H116.71C116.71 57.1485 113.923 67.8847 108.948 75.0064C104.043 82.0273 96.8922 85.7156 87.588 85.7156V89.7156Z" fill="#1E1E1E"/>
</svg>
