<svg width="18" height="11" viewBox="0 0 18 11" fill="none" xmlns="http://www.w3.org/2000/svg">
<path d="M10.9354 4.71213C10.9891 4.98976 11.0275 5.2674 11.0275 5.62753C11.0275 8.7715 8.87106 11 5.625 11C2.51707 11 0 8.53889 0 5.5C0 2.46111 2.51707 0 5.625 0C7.14445 0 8.41063 0.540232 9.3929 1.44066L7.86577 2.87381C7.45137 2.48362 6.72237 2.02592 5.625 2.02592C3.70652 2.02592 2.14102 3.57913 2.14102 5.5C2.14102 7.42088 3.70652 8.97408 5.625 8.97408C7.85042 8.97408 8.6869 7.40586 8.81733 6.60298H5.625V4.7121H10.9354V4.71213ZM16.3672 4.89652V3.3H14.7265V4.89652H13.0937V6.50071H14.7265V8.09723H16.3672V6.50071H18V4.89652H16.3672Z" fill="#1E1E1E"/>
</svg>
