<svg width="160" height="317" viewBox="0 0 160 317" fill="none" xmlns="http://www.w3.org/2000/svg">
<g clip-path="url(#clip0_2_521)">
<path d="M1 23C1 10.8497 10.8497 1 23 1H137C149.15 1 159 10.8497 159 23V294C159 306.15 149.15 316 137 316H23C10.8497 316 1 306.15 1 294V23Z" fill="white" stroke="#1E1E1E" stroke-width="2"/>
<path opacity="0.35" fill-rule="evenodd" clip-rule="evenodd" d="M136.494 16C135.908 16 135.676 16.0385 135.437 16.1485C135.235 16.2414 135.078 16.3762 134.97 16.5498C134.843 16.7555 134.798 16.9548 134.798 17.4588V19.7062C134.798 20.2102 134.843 20.4095 134.97 20.6152C135.078 20.7888 135.235 20.9236 135.437 21.0165C135.676 21.1265 135.908 21.165 136.494 21.165H145.305C145.891 21.165 146.122 21.1265 146.361 21.0165C146.563 20.9236 146.72 20.7888 146.828 20.6152C146.956 20.4095 147.001 20.2102 147.001 19.7062V17.4588C147.001 16.9548 146.956 16.7555 146.828 16.5498C146.72 16.3762 146.563 16.2414 146.361 16.1485C146.122 16.0385 145.891 16 145.305 16H136.494Z" stroke="black"/>
<path opacity="0.4" d="M95.873 22.0854V24.0848C96.3407 23.9155 96.6447 23.5216 96.6447 23.0851C96.6447 22.6487 96.3407 22.2548 95.873 22.0854Z" fill="black"/>
<path d="M136.662 17H145.135C145.481 17 145.606 17.0309 145.732 17.089C145.858 17.1471 145.957 17.2323 146.025 17.3409C146.092 17.4495 146.128 17.5573 146.128 17.8544V19.8111C146.128 20.1082 146.092 20.2159 146.025 20.3245C145.957 20.4331 145.858 20.5184 145.732 20.5765C145.606 20.6346 145.481 20.6655 145.135 20.6655H136.662C136.317 20.6655 136.192 20.6346 136.065 20.5765C135.939 20.5184 135.84 20.4331 135.772 20.3245C135.705 20.2159 135.669 20.1082 135.669 19.8111V17.8544C135.669 17.5573 135.705 17.4495 135.772 17.3409C135.84 17.2323 135.939 17.1471 136.065 17.089C136.192 17.0309 136.317 17 136.662 17Z" fill="black"/>
<path d="M125.341 17.1422C126.635 17.1423 127.878 17.5693 128.815 18.3351C128.886 18.3943 128.999 18.3935 129.068 18.3335L129.743 17.7483C129.778 17.7178 129.798 17.6766 129.798 17.6337C129.797 17.5907 129.777 17.5497 129.741 17.5196C127.282 15.4935 123.401 15.4935 120.941 17.5196C120.905 17.5497 120.885 17.5907 120.885 17.6336C120.884 17.6766 120.904 17.7178 120.939 17.7483L121.614 18.3335C121.683 18.3936 121.796 18.3944 121.867 18.3351C122.804 17.5693 124.048 17.1422 125.341 17.1422ZM125.341 19.046C126.052 19.046 126.737 19.273 127.264 19.6829C127.335 19.741 127.447 19.7398 127.517 19.68L128.19 19.0948C128.226 19.0642 128.246 19.0225 128.245 18.9792C128.245 18.936 128.224 18.8947 128.188 18.8646C126.584 17.5824 124.1 17.5824 122.496 18.8646C122.46 18.8947 122.44 18.936 122.439 18.9793C122.439 19.0226 122.458 19.0642 122.494 19.0948L123.168 19.68C123.237 19.7398 123.349 19.741 123.42 19.6829C123.947 19.2732 124.631 19.0463 125.341 19.046ZM126.636 20.4426C126.672 20.4122 126.692 20.3703 126.691 20.3269C126.69 20.2836 126.668 20.2425 126.631 20.2134C125.887 19.6722 124.796 19.6722 124.052 20.2134C124.014 20.2424 123.993 20.2835 123.991 20.3269C123.99 20.3703 124.01 20.4121 124.046 20.4426L125.212 21.4536C125.246 21.4833 125.293 21.5 125.341 21.5C125.39 21.5 125.437 21.4833 125.471 21.4536L126.636 20.4426Z" fill="black"/>
<path d="M108.581 19.3344H109.163C109.484 19.3344 109.744 19.5583 109.744 19.8345V20.8348C109.744 21.1111 109.484 21.335 109.163 21.335H108.581C108.26 21.335 108 21.1111 108 20.8348V19.8345C108 19.5583 108.26 19.3344 108.581 19.3344ZM111.295 18.3341H111.876C112.197 18.3341 112.458 18.558 112.458 18.8342V20.8348C112.458 21.1111 112.197 21.335 111.876 21.335H111.295C110.974 21.335 110.713 21.1111 110.713 20.8348V18.8342C110.713 18.558 110.974 18.3341 111.295 18.3341ZM114.008 17.167H114.59C114.911 17.167 115.171 17.391 115.171 17.6672V20.8348C115.171 21.1111 114.911 21.335 114.59 21.335H114.008C113.687 21.335 113.427 21.1111 113.427 20.8348V17.6672C113.427 17.391 113.687 17.167 114.008 17.167ZM116.722 16H117.303C117.624 16 117.885 16.2239 117.885 16.5002V20.8348C117.885 21.1111 117.624 21.335 117.303 21.335H116.722C116.401 21.335 116.14 21.1111 116.14 20.8348V16.5002C116.14 16.2239 116.401 16 116.722 16Z" fill="black"/>
<path d="M15.3011 15.4709C15.5249 15.4727 15.7486 15.5153 15.9723 15.5987C16.196 15.6822 16.4002 15.8207 16.5849 16.0142C16.7695 16.206 16.9178 16.4679 17.0297 16.7999C17.1415 17.1319 17.1974 17.5483 17.1974 18.049C17.1974 18.5337 17.1513 18.9643 17.0589 19.3407C16.9684 19.7154 16.837 20.0314 16.6648 20.2889C16.4943 20.5463 16.2866 20.7417 16.0415 20.8748C15.7983 21.008 15.5231 21.0746 15.2159 21.0746C14.9105 21.0746 14.638 21.0142 14.3983 20.8935C14.1603 20.771 13.965 20.6014 13.8123 20.3848C13.6614 20.1664 13.5646 19.9134 13.522 19.6257H14.1719C14.2305 19.8761 14.3468 20.0829 14.5208 20.2463C14.6966 20.4078 14.9283 20.4886 15.2159 20.4886C15.6367 20.4886 15.9688 20.3049 16.212 19.9373C16.457 19.5698 16.5795 19.0504 16.5795 18.3793H16.5369C16.4375 18.5284 16.3194 18.6571 16.1827 18.7654C16.046 18.8738 15.8942 18.9572 15.7273 19.0158C15.5604 19.0744 15.3828 19.1037 15.1946 19.1037C14.8821 19.1037 14.5953 19.0265 14.3343 18.872C14.0751 18.7157 13.8674 18.5018 13.7111 18.2301C13.5566 17.9567 13.4794 17.6442 13.4794 17.2926C13.4794 16.9588 13.554 16.6534 13.7031 16.3764C13.854 16.0977 14.0653 15.8757 14.337 15.7106C14.6104 15.5455 14.9318 15.4656 15.3011 15.4709ZM15.3011 16.0568C15.0774 16.0568 14.8759 16.1127 14.6966 16.2246C14.519 16.3347 14.3778 16.4838 14.2731 16.6721C14.1701 16.8585 14.1186 17.0653 14.1186 17.2926C14.1186 17.5199 14.1683 17.7267 14.2678 17.9132C14.369 18.0978 14.5066 18.2452 14.6806 18.3553C14.8564 18.4636 15.0561 18.5178 15.2798 18.5178C15.4485 18.5178 15.6056 18.4849 15.7512 18.4192C15.8968 18.3517 16.0238 18.2603 16.1321 18.1449C16.2422 18.0277 16.3283 17.8954 16.3904 17.748C16.4526 17.5989 16.4837 17.4435 16.4837 17.282C16.4837 17.0689 16.4322 16.8691 16.3292 16.6827C16.228 16.4963 16.0877 16.3453 15.9084 16.2299C15.7308 16.1145 15.5284 16.0568 15.3011 16.0568ZM18.7136 20.3022C18.5822 20.3022 18.4694 20.2551 18.3753 20.161C18.2812 20.0669 18.2342 19.9542 18.2342 19.8228C18.2342 19.6914 18.2812 19.5787 18.3753 19.4846C18.4694 19.3904 18.5822 19.3434 18.7136 19.3434C18.8449 19.3434 18.9577 19.3904 19.0518 19.4846C19.1459 19.5787 19.193 19.6914 19.193 19.8228C19.193 19.9098 19.1708 19.9897 19.1264 20.0625C19.0838 20.1353 19.0261 20.1939 18.9533 20.2383C18.8822 20.2809 18.8023 20.3022 18.7136 20.3022ZM18.7136 17.543C18.5822 17.543 18.4694 17.4959 18.3753 17.4018C18.2812 17.3077 18.2342 17.195 18.2342 17.0636C18.2342 16.9322 18.2812 16.8194 18.3753 16.7253C18.4694 16.6312 18.5822 16.5842 18.7136 16.5842C18.8449 16.5842 18.9577 16.6312 19.0518 16.7253C19.1459 16.8194 19.193 16.9322 19.193 17.0636C19.193 17.1506 19.1708 17.2305 19.1264 17.3033C19.0838 17.3761 19.0261 17.4347 18.9533 17.479C18.8822 17.5217 18.8023 17.543 18.7136 17.543ZM20.1824 19.8814V19.3381L22.5794 15.5455H22.9736V16.3871H22.7073L20.8962 19.2528V19.2955H24.1242V19.8814H20.1824ZM22.7499 21V19.7163V19.4632V15.5455H23.3784V21H22.7499ZM26.9666 15.5455V21H26.3061V16.2379H26.2741L24.9425 17.1222V16.451L26.3061 15.5455H26.9666Z" fill="black"/>
<path d="M59.725 41C61.6 41 62.475 40.1 62.475 38.675C62.475 37.55 61.725 36.775 60.175 36.6625V36.55C61.575 36.45 62.125 35.7 62.125 34.6625C62.125 33.35 61.2 32.625 59.4875 32.625H54.4625V41H59.725ZM56.3375 34.3125H59.25C59.95 34.3125 60.25 34.5625 60.25 35.1375C60.25 35.7125 59.9625 35.95 59.275 35.95H56.3375V34.3125ZM56.3375 37.5H59.5C60.2625 37.5 60.575 37.7375 60.575 38.4C60.575 39.075 60.2625 39.3125 59.5 39.3125H56.3375V37.5ZM65.7545 41.125C67.4045 41.125 68.167 40.1375 68.3295 39.0875H68.4295V41H70.1795V34.7375H68.3045V37.9125C68.3045 38.975 67.867 39.45 66.642 39.45C65.4545 39.45 65.0295 39.025 65.0295 38.0125V34.7375H63.1545V38.6375C63.1545 40.0375 63.992 41.125 65.7545 41.125ZM73.9382 41.125C75.3757 41.125 76.2007 40.5 76.4382 39.2625H76.5382V41H78.2882V32.625H76.4132V36.4H76.3007C76.0882 35.35 75.3257 34.6125 73.8382 34.6125C71.9757 34.6125 70.9132 35.875 70.9132 37.875C70.9132 39.85 71.9882 41.125 73.9382 41.125ZM72.8132 37.875C72.8132 36.725 73.3757 36.325 74.5757 36.325C75.7757 36.325 76.4132 36.725 76.4132 37.8125V37.9125C76.4132 39 75.7632 39.4125 74.5757 39.4125C73.3757 39.4125 72.8132 39.0125 72.8132 37.875ZM82.0303 40.3625C83.4303 40.3625 84.1678 39.725 84.3678 38.8H84.4678V40.2125C84.4678 41.4375 84.1053 41.6875 82.9053 41.6875C81.6303 41.6875 81.3553 41.475 81.3553 40.775H79.4803C79.4803 42.35 80.7553 43.25 82.7803 43.25C85.0178 43.25 86.3428 42.275 86.3428 40.0875V34.7375H84.5928V36.25H84.4928C84.2928 35.1625 83.3803 34.6125 82.1053 34.6125C80.2303 34.6125 79.0928 35.7375 79.0928 37.4875C79.0928 39.25 80.1678 40.3625 82.0303 40.3625ZM80.9803 37.4875C80.9803 36.5625 81.5053 36.2375 82.7053 36.2375C83.8678 36.2375 84.4678 36.5625 84.4678 37.4125V37.55C84.4678 38.4125 83.8803 38.75 82.6803 38.75C81.5053 38.75 80.9803 38.4125 80.9803 37.4875ZM90.6619 41.125C92.6494 41.125 93.9744 40.175 93.9744 38.8125V38.675H92.0994V38.8C92.0994 39.3375 91.7119 39.625 90.5994 39.625C89.3869 39.625 88.9369 39.2125 88.8869 38.25H93.9869C94.0119 38.0375 94.0369 37.875 94.0369 37.65C94.0369 35.6875 92.6744 34.6125 90.6244 34.6125C88.5619 34.6125 87.1494 35.875 87.1494 37.875C87.1494 40.1 88.5744 41.125 90.6619 41.125ZM90.5869 36.075C91.6869 36.075 92.1869 36.4375 92.2369 37.2625H88.9119C88.9994 36.45 89.4744 36.075 90.5869 36.075ZM99.2445 41V39.3125H98.1195C97.457 39.3125 97.2195 39.15 97.2195 38.525V36.2875H99.2445V34.7375H97.2195V33.525H95.3445V34.7375H94.357V36.2875H95.3445V38.7375C95.3445 40.3125 96.232 41 97.6945 41H99.2445ZM103.109 41.125C105.047 41.125 106.209 40.35 106.209 39.175C106.209 38.1375 105.584 37.575 103.909 37.3875L102.572 37.225C101.747 37.125 101.572 36.9875 101.572 36.6625C101.572 36.2625 101.809 36.1 102.747 36.1C103.897 36.1 104.147 36.3625 104.147 36.875V36.95H106.022V36.9125C106.022 35.3875 104.859 34.6125 102.809 34.6125C100.659 34.6125 99.7218 35.4875 99.7218 36.5875C99.7218 37.6375 100.422 38.2 101.672 38.3375L103.434 38.55C104.172 38.65 104.359 38.75 104.359 39.1C104.359 39.475 104.122 39.6375 103.122 39.6375C102.059 39.6375 101.709 39.4875 101.709 38.925V38.8125H99.8343V38.85C99.8343 40.3 100.997 41.125 103.109 41.125Z" fill="#1E1E1E"/>
<path d="M18.799 76.679H19.247V76.07C20.171 75.986 20.766 75.426 20.766 74.593C20.766 73.893 20.36 73.452 19.52 73.263L19.247 73.2V71.464C19.702 71.527 19.975 71.814 20.003 72.262H20.682C20.633 71.45 20.094 70.932 19.247 70.855V70.253H18.799V70.862C17.889 70.939 17.294 71.506 17.294 72.304C17.294 73.025 17.721 73.487 18.547 73.676L18.799 73.732V75.475C18.267 75.419 17.938 75.125 17.924 74.677H17.224C17.266 75.496 17.875 76.021 18.799 76.077V76.679ZM18.687 73.067C18.197 72.948 17.966 72.689 17.966 72.283C17.966 71.835 18.281 71.534 18.799 71.464V73.095L18.687 73.067ZM19.38 73.872C19.863 73.984 20.094 74.243 20.094 74.649C20.094 75.09 19.772 75.391 19.247 75.461V73.844L19.38 73.872ZM23.084 76.084C24.176 76.084 24.925 75.349 24.925 74.299C24.925 73.326 24.26 72.605 23.231 72.605C22.853 72.605 22.517 72.71 22.251 72.913L22.587 71.569H24.624V70.939H22.09L21.474 73.536L22.055 73.683C22.286 73.396 22.678 73.193 23.105 73.193C23.812 73.193 24.225 73.676 24.225 74.327C24.225 75.013 23.784 75.468 23.098 75.468C22.454 75.468 22.055 75.069 22.055 74.418H21.376C21.376 75.426 22.048 76.084 23.084 76.084ZM25.5188 73.473C25.5188 75.048 26.2958 76.091 27.6048 76.091C28.9068 76.091 29.6838 75.048 29.6838 73.473C29.6838 71.905 28.8718 70.841 27.6048 70.841C26.3308 70.841 25.5188 71.905 25.5188 73.473ZM26.1978 73.473C26.1978 72.213 26.7158 71.457 27.6048 71.457C28.4938 71.457 29.0048 72.213 29.0048 73.473C29.0048 74.719 28.4938 75.475 27.6048 75.475C26.7158 75.475 26.1978 74.719 26.1978 73.473ZM30.3723 73.473C30.3723 75.048 31.1493 76.091 32.4583 76.091C33.7603 76.091 34.5373 75.048 34.5373 73.473C34.5373 71.905 33.7253 70.841 32.4583 70.841C31.1843 70.841 30.3723 71.905 30.3723 73.473ZM31.0513 73.473C31.0513 72.213 31.5693 71.457 32.4583 71.457C33.3473 71.457 33.8583 72.213 33.8583 73.473C33.8583 74.719 33.3473 75.475 32.4583 75.475C31.5693 75.475 31.0513 74.719 31.0513 73.473Z" fill="#1E1E1E"/>
<path d="M17.799 94.679H18.247V94.07C19.171 93.986 19.766 93.426 19.766 92.593C19.766 91.893 19.36 91.452 18.52 91.263L18.247 91.2V89.464C18.702 89.527 18.975 89.814 19.003 90.262H19.682C19.633 89.45 19.094 88.932 18.247 88.855V88.253H17.799V88.862C16.889 88.939 16.294 89.506 16.294 90.304C16.294 91.025 16.721 91.487 17.547 91.676L17.799 91.732V93.475C17.267 93.419 16.938 93.125 16.924 92.677H16.224C16.266 93.496 16.875 94.021 17.799 94.077V94.679ZM17.687 91.067C17.197 90.948 16.966 90.689 16.966 90.283C16.966 89.835 17.281 89.534 17.799 89.464V91.095L17.687 91.067ZM18.38 91.872C18.863 91.984 19.094 92.243 19.094 92.649C19.094 93.09 18.772 93.391 18.247 93.461V91.844L18.38 91.872ZM24.156 92.978V92.369H23.554V88.939H22.665L20.278 92.369V92.978H22.896V94H23.554V92.978H24.156ZM21.02 92.369L22.896 89.667V92.369H21.02ZM24.8332 91.473C24.8332 93.048 25.6102 94.091 26.9192 94.091C28.2212 94.091 28.9982 93.048 28.9982 91.473C28.9982 89.905 28.1862 88.841 26.9192 88.841C25.6452 88.841 24.8332 89.905 24.8332 91.473ZM25.5122 91.473C25.5122 90.213 26.0302 89.457 26.9192 89.457C27.8082 89.457 28.3192 90.213 28.3192 91.473C28.3192 92.719 27.8082 93.475 26.9192 93.475C26.0302 93.475 25.5122 92.719 25.5122 91.473ZM29.6868 91.473C29.6868 93.048 30.4638 94.091 31.7728 94.091C33.0748 94.091 33.8518 93.048 33.8518 91.473C33.8518 89.905 33.0397 88.841 31.7728 88.841C30.4988 88.841 29.6868 89.905 29.6868 91.473ZM30.3658 91.473C30.3658 90.213 30.8838 89.457 31.7728 89.457C32.6618 89.457 33.1728 90.213 33.1728 91.473C33.1728 92.719 32.6618 93.475 31.7728 93.475C30.8838 93.475 30.3658 92.719 30.3658 91.473Z" fill="#1E1E1E"/>
<path d="M18.799 112.679H19.247V112.07C20.171 111.986 20.766 111.426 20.766 110.593C20.766 109.893 20.36 109.452 19.52 109.263L19.247 109.2V107.464C19.702 107.527 19.975 107.814 20.003 108.262H20.682C20.633 107.45 20.094 106.932 19.247 106.855V106.253H18.799V106.862C17.889 106.939 17.294 107.506 17.294 108.304C17.294 109.025 17.721 109.487 18.547 109.676L18.799 109.732V111.475C18.267 111.419 17.938 111.125 17.924 110.677H17.224C17.266 111.496 17.875 112.021 18.799 112.077V112.679ZM18.687 109.067C18.197 108.948 17.966 108.689 17.966 108.283C17.966 107.835 18.281 107.534 18.799 107.464V109.095L18.687 109.067ZM19.38 109.872C19.863 109.984 20.094 110.243 20.094 110.649C20.094 111.09 19.772 111.391 19.247 111.461V109.844L19.38 109.872ZM22.832 109.382C23.637 109.382 24.057 109.788 24.057 110.397C24.057 111.048 23.63 111.468 22.972 111.468C22.335 111.468 21.929 111.083 21.929 110.425H21.25C21.25 111.475 21.964 112.084 22.958 112.084C23.987 112.084 24.757 111.433 24.757 110.411C24.757 109.501 24.106 108.92 23.245 108.815L24.631 107.492V106.939H21.488V107.548H23.763L22.328 108.927V109.382H22.832ZM25.3616 109.473C25.3616 111.048 26.1386 112.091 27.4476 112.091C28.7496 112.091 29.5266 111.048 29.5266 109.473C29.5266 107.905 28.7146 106.841 27.4476 106.841C26.1736 106.841 25.3616 107.905 25.3616 109.473ZM26.0406 109.473C26.0406 108.213 26.5586 107.457 27.4476 107.457C28.3366 107.457 28.8476 108.213 28.8476 109.473C28.8476 110.719 28.3366 111.475 27.4476 111.475C26.5586 111.475 26.0406 110.719 26.0406 109.473ZM30.2151 109.473C30.2151 111.048 30.9921 112.091 32.3011 112.091C33.6031 112.091 34.3801 111.048 34.3801 109.473C34.3801 107.905 33.5681 106.841 32.3011 106.841C31.0271 106.841 30.2151 107.905 30.2151 109.473ZM30.8941 109.473C30.8941 108.213 31.4121 107.457 32.3011 107.457C33.1901 107.457 33.7011 108.213 33.7011 109.473C33.7011 110.719 33.1901 111.475 32.3011 111.475C31.4121 111.475 30.8941 110.719 30.8941 109.473Z" fill="#1E1E1E"/>
<path d="M18.799 130.679H19.247V130.07C20.171 129.986 20.766 129.426 20.766 128.593C20.766 127.893 20.36 127.452 19.52 127.263L19.247 127.2V125.464C19.702 125.527 19.975 125.814 20.003 126.262H20.682C20.633 125.45 20.094 124.932 19.247 124.855V124.253H18.799V124.862C17.889 124.939 17.294 125.506 17.294 126.304C17.294 127.025 17.721 127.487 18.547 127.676L18.799 127.732V129.475C18.267 129.419 17.938 129.125 17.924 128.677H17.224C17.266 129.496 17.875 130.021 18.799 130.077V130.679ZM18.687 127.067C18.197 126.948 17.966 126.689 17.966 126.283C17.966 125.835 18.281 125.534 18.799 125.464V127.095L18.687 127.067ZM19.38 127.872C19.863 127.984 20.094 128.243 20.094 128.649C20.094 129.09 19.772 129.391 19.247 129.461V127.844L19.38 127.872ZM24.778 129.993V129.356H22.44L23.49 128.446C24.386 127.669 24.743 127.158 24.743 126.437C24.743 125.464 24.092 124.848 23.077 124.848C22.048 124.848 21.362 125.555 21.341 126.64H22.027C22.041 125.919 22.447 125.464 23.07 125.464C23.679 125.464 24.043 125.842 24.043 126.479C24.043 127.018 23.812 127.361 22.993 128.068L21.362 129.475V130L24.778 129.993ZM25.4094 127.473C25.4094 129.048 26.1864 130.091 27.4954 130.091C28.7974 130.091 29.5744 129.048 29.5744 127.473C29.5744 125.905 28.7624 124.841 27.4954 124.841C26.2214 124.841 25.4094 125.905 25.4094 127.473ZM26.0884 127.473C26.0884 126.213 26.6064 125.457 27.4954 125.457C28.3844 125.457 28.8954 126.213 28.8954 127.473C28.8954 128.719 28.3844 129.475 27.4954 129.475C26.6064 129.475 26.0884 128.719 26.0884 127.473ZM30.2629 127.473C30.2629 129.048 31.0399 130.091 32.3489 130.091C33.6509 130.091 34.4279 129.048 34.4279 127.473C34.4279 125.905 33.6159 124.841 32.3489 124.841C31.0749 124.841 30.2629 125.905 30.2629 127.473ZM30.9419 127.473C30.9419 126.213 31.4599 125.457 32.3489 125.457C33.2379 125.457 33.7489 126.213 33.7489 127.473C33.7489 128.719 33.2379 129.475 32.3489 129.475C31.4599 129.475 30.9419 128.719 30.9419 127.473Z" fill="#1E1E1E"/>
<path d="M18.799 148.679H19.247V148.07C20.171 147.986 20.766 147.426 20.766 146.593C20.766 145.893 20.36 145.452 19.52 145.263L19.247 145.2V143.464C19.702 143.527 19.975 143.814 20.003 144.262H20.682C20.633 143.45 20.094 142.932 19.247 142.855V142.253H18.799V142.862C17.889 142.939 17.294 143.506 17.294 144.304C17.294 145.025 17.721 145.487 18.547 145.676L18.799 145.732V147.475C18.267 147.419 17.938 147.125 17.924 146.677H17.224C17.266 147.496 17.875 148.021 18.799 148.077V148.679ZM18.687 145.067C18.197 144.948 17.966 144.689 17.966 144.283C17.966 143.835 18.281 143.534 18.799 143.464V145.095L18.687 145.067ZM19.38 145.872C19.863 145.984 20.094 146.243 20.094 146.649C20.094 147.09 19.772 147.391 19.247 147.461V145.844L19.38 145.872ZM22.349 143.555V148H23.007V142.939H21.285V143.555H22.349ZM23.9328 145.473C23.9328 147.048 24.7098 148.091 26.0188 148.091C27.3208 148.091 28.0978 147.048 28.0978 145.473C28.0978 143.905 27.2858 142.841 26.0188 142.841C24.7448 142.841 23.9328 143.905 23.9328 145.473ZM24.6118 145.473C24.6118 144.213 25.1298 143.457 26.0188 143.457C26.9078 143.457 27.4188 144.213 27.4188 145.473C27.4188 146.719 26.9078 147.475 26.0188 147.475C25.1298 147.475 24.6118 146.719 24.6118 145.473ZM28.7864 145.473C28.7864 147.048 29.5634 148.091 30.8724 148.091C32.1744 148.091 32.9514 147.048 32.9514 145.473C32.9514 143.905 32.1394 142.841 30.8724 142.841C29.5984 142.841 28.7864 143.905 28.7864 145.473ZM29.4654 145.473C29.4654 144.213 29.9834 143.457 30.8724 143.457C31.7614 143.457 32.2724 144.213 32.2724 145.473C32.2724 146.719 31.7614 147.475 30.8724 147.475C29.9834 147.475 29.4654 146.719 29.4654 145.473Z" fill="#1E1E1E"/>
<path d="M20.799 166.679H21.247V166.07C22.171 165.986 22.766 165.426 22.766 164.593C22.766 163.893 22.36 163.452 21.52 163.263L21.247 163.2V161.464C21.702 161.527 21.975 161.814 22.003 162.262H22.682C22.633 161.45 22.094 160.932 21.247 160.855V160.253H20.799V160.862C19.889 160.939 19.294 161.506 19.294 162.304C19.294 163.025 19.721 163.487 20.547 163.676L20.799 163.732V165.475C20.267 165.419 19.938 165.125 19.924 164.677H19.224C19.266 165.496 19.875 166.021 20.799 166.077V166.679ZM20.687 163.067C20.197 162.948 19.966 162.689 19.966 162.283C19.966 161.835 20.281 161.534 20.799 161.464V163.095L20.687 163.067ZM21.38 163.872C21.863 163.984 22.094 164.243 22.094 164.649C22.094 165.09 21.772 165.391 21.247 165.461V163.844L21.38 163.872ZM25.084 166.084C26.176 166.084 26.925 165.349 26.925 164.299C26.925 163.326 26.26 162.605 25.231 162.605C24.853 162.605 24.517 162.71 24.251 162.913L24.587 161.569H26.624V160.939H24.09L23.474 163.536L24.055 163.683C24.286 163.396 24.678 163.193 25.105 163.193C25.812 163.193 26.225 163.676 26.225 164.327C26.225 165.013 25.784 165.468 25.098 165.468C24.454 165.468 24.055 165.069 24.055 164.418H23.376C23.376 165.426 24.048 166.084 25.084 166.084ZM27.5188 163.473C27.5188 165.048 28.2958 166.091 29.6048 166.091C30.9068 166.091 31.6838 165.048 31.6838 163.473C31.6838 161.905 30.8718 160.841 29.6048 160.841C28.3308 160.841 27.5188 161.905 27.5188 163.473ZM28.1978 163.473C28.1978 162.213 28.7158 161.457 29.6048 161.457C30.4938 161.457 31.0048 162.213 31.0048 163.473C31.0048 164.719 30.4938 165.475 29.6048 165.475C28.7158 165.475 28.1978 164.719 28.1978 163.473Z" fill="#1E1E1E"/>
<path d="M22.799 184.679H23.247V184.07C24.171 183.986 24.766 183.426 24.766 182.593C24.766 181.893 24.36 181.452 23.52 181.263L23.247 181.2V179.464C23.702 179.527 23.975 179.814 24.003 180.262H24.682C24.633 179.45 24.094 178.932 23.247 178.855V178.253H22.799V178.862C21.889 178.939 21.294 179.506 21.294 180.304C21.294 181.025 21.721 181.487 22.547 181.676L22.799 181.732V183.475C22.267 183.419 21.938 183.125 21.924 182.677H21.224C21.266 183.496 21.875 184.021 22.799 184.077V184.679ZM22.687 181.067C22.197 180.948 21.966 180.689 21.966 180.283C21.966 179.835 22.281 179.534 22.799 179.464V181.095L22.687 181.067ZM23.38 181.872C23.863 181.984 24.094 182.243 24.094 182.649C24.094 183.09 23.772 183.391 23.247 183.461V181.844L23.38 181.872ZM25.383 181.473C25.383 183.048 26.16 184.091 27.469 184.091C28.771 184.091 29.548 183.048 29.548 181.473C29.548 179.905 28.736 178.841 27.469 178.841C26.195 178.841 25.383 179.905 25.383 181.473ZM26.062 181.473C26.062 180.213 26.58 179.457 27.469 179.457C28.358 179.457 28.869 180.213 28.869 181.473C28.869 182.719 28.358 183.475 27.469 183.475C26.58 183.475 26.062 182.719 26.062 181.473Z" fill="#1E1E1E"/>
<path d="M84.274 53.939H83.588V59H84.274V53.939ZM86.0002 59V57.187C86.0002 56.522 86.3572 56.081 86.9732 56.081C87.4772 56.081 87.7992 56.361 87.7992 57.054V59H88.4572V56.907C88.4572 56.032 88.0442 55.479 87.1412 55.479C86.6582 55.479 86.2242 55.71 86.0072 56.102L85.9372 55.577H85.3422V59H86.0002ZM89.1446 57.292C89.1446 58.37 89.8096 59.084 90.8176 59.084C91.6436 59.084 92.2806 58.587 92.4136 57.845H91.7556C91.6366 58.251 91.2866 58.496 90.8176 58.496C90.1946 58.496 89.7956 58.02 89.7956 57.285C89.7956 56.543 90.2226 56.067 90.8456 56.067C91.2866 56.067 91.6366 56.298 91.7486 56.732H92.4066C92.2876 55.969 91.6856 55.479 90.8246 55.479C89.8236 55.479 89.1446 56.221 89.1446 57.292ZM92.8838 57.285C92.8838 58.342 93.6398 59.084 94.6688 59.084C95.6908 59.084 96.4468 58.342 96.4468 57.285C96.4468 56.228 95.6908 55.486 94.6688 55.486C93.6398 55.486 92.8838 56.228 92.8838 57.285ZM93.5488 57.285C93.5488 56.571 94.0038 56.074 94.6688 56.074C95.3268 56.074 95.7888 56.571 95.7888 57.285C95.7888 57.999 95.3268 58.496 94.6688 58.496C94.0038 58.496 93.5488 57.999 93.5488 57.285ZM97.8332 59V56.97C97.8332 56.424 98.1622 56.081 98.6592 56.081C99.1212 56.081 99.4152 56.375 99.4152 56.914V59H100.066V56.97C100.066 56.424 100.395 56.074 100.892 56.074C101.354 56.074 101.655 56.382 101.655 56.921V59H102.299V56.76C102.299 55.969 101.823 55.479 101.039 55.479C100.507 55.479 100.094 55.745 99.9332 56.172C99.7582 55.745 99.3802 55.479 98.8482 55.479C98.3652 55.479 98.0012 55.703 97.8262 56.025L97.7632 55.577H97.1752V59H97.8332ZM104.688 59.084C105.535 59.084 106.109 58.671 106.277 57.936H105.661C105.549 58.328 105.213 58.538 104.702 58.538C104.051 58.538 103.673 58.139 103.624 57.418L106.27 57.411V57.166C106.27 56.151 105.633 55.479 104.66 55.479C103.666 55.479 102.987 56.221 102.987 57.292C102.987 58.356 103.68 59.084 104.688 59.084ZM104.66 56.032C105.241 56.032 105.612 56.41 105.612 56.977H103.638C103.722 56.375 104.086 56.032 104.66 56.032Z" fill="#AEAEAE"/>
<path d="M12.274 212.939H11.588V218H12.274V212.939ZM14.0002 218V216.187C14.0002 215.522 14.3572 215.081 14.9732 215.081C15.4772 215.081 15.7992 215.361 15.7992 216.054V218H16.4572V215.907C16.4572 215.032 16.0442 214.479 15.1412 214.479C14.6582 214.479 14.2242 214.71 14.0072 215.102L13.9372 214.577H13.3422V218H14.0002ZM17.1446 216.292C17.1446 217.37 17.8096 218.084 18.8176 218.084C19.6436 218.084 20.2806 217.587 20.4136 216.845H19.7556C19.6366 217.251 19.2866 217.496 18.8176 217.496C18.1946 217.496 17.7956 217.02 17.7956 216.285C17.7956 215.543 18.2226 215.067 18.8456 215.067C19.2866 215.067 19.6366 215.298 19.7486 215.732H20.4066C20.2876 214.969 19.6856 214.479 18.8246 214.479C17.8236 214.479 17.1446 215.221 17.1446 216.292ZM20.8838 216.285C20.8838 217.342 21.6398 218.084 22.6688 218.084C23.6908 218.084 24.4468 217.342 24.4468 216.285C24.4468 215.228 23.6908 214.486 22.6688 214.486C21.6398 214.486 20.8838 215.228 20.8838 216.285ZM21.5488 216.285C21.5488 215.571 22.0038 215.074 22.6688 215.074C23.3268 215.074 23.7888 215.571 23.7888 216.285C23.7888 216.999 23.3268 217.496 22.6688 217.496C22.0038 217.496 21.5488 216.999 21.5488 216.285ZM25.8332 218V215.97C25.8332 215.424 26.1622 215.081 26.6592 215.081C27.1212 215.081 27.4152 215.375 27.4152 215.914V218H28.0662V215.97C28.0662 215.424 28.3952 215.074 28.8922 215.074C29.3542 215.074 29.6552 215.382 29.6552 215.921V218H30.2992V215.76C30.2992 214.969 29.8232 214.479 29.0392 214.479C28.5072 214.479 28.0942 214.745 27.9332 215.172C27.7582 214.745 27.3802 214.479 26.8482 214.479C26.3652 214.479 26.0012 214.703 25.8262 215.025L25.7632 214.577H25.1752V218H25.8332ZM32.6884 218.084C33.5354 218.084 34.1094 217.671 34.2774 216.936H33.6614C33.5494 217.328 33.2134 217.538 32.7024 217.538C32.0514 217.538 31.6734 217.139 31.6244 216.418L34.2704 216.411V216.166C34.2704 215.151 33.6334 214.479 32.6604 214.479C31.6664 214.479 30.9874 215.221 30.9874 216.292C30.9874 217.356 31.6804 218.084 32.6884 218.084ZM32.6604 215.032C33.2414 215.032 33.6124 215.41 33.6124 215.977H31.6384C31.7224 215.375 32.0864 215.032 32.6604 215.032Z" fill="#AEAEAE"/>
<path d="M115.675 59V58.363H113.274V56.76H115.437V56.151H113.274V54.569H115.675V53.939H112.588V59H115.675ZM116.907 59L117.747 57.747L118.601 59H119.364L118.195 57.306L119.385 55.577H118.636L117.789 56.851L116.921 55.577H116.158L117.348 57.306L116.151 59H116.907ZM119.934 60.533H120.592V58.44C120.816 58.86 121.271 59.091 121.817 59.091C122.832 59.091 123.406 58.307 123.406 57.264C123.406 56.214 122.797 55.479 121.817 55.479C121.271 55.479 120.809 55.724 120.578 56.193L120.529 55.577H119.934V60.533ZM120.599 57.292C120.599 56.578 121.005 56.081 121.677 56.081C122.349 56.081 122.748 56.585 122.748 57.292C122.748 57.992 122.349 58.496 121.677 58.496C121.005 58.496 120.599 57.992 120.599 57.292ZM125.608 59.084C126.455 59.084 127.029 58.671 127.197 57.936H126.581C126.469 58.328 126.133 58.538 125.622 58.538C124.971 58.538 124.593 58.139 124.544 57.418L127.19 57.411V57.166C127.19 56.151 126.553 55.479 125.58 55.479C124.586 55.479 123.907 56.221 123.907 57.292C123.907 58.356 124.6 59.084 125.608 59.084ZM125.58 56.032C126.161 56.032 126.532 56.41 126.532 56.977H124.558C124.642 56.375 125.006 56.032 125.58 56.032ZM128.583 59V57.187C128.583 56.522 128.94 56.081 129.556 56.081C130.06 56.081 130.382 56.361 130.382 57.054V59H131.04V56.907C131.04 56.032 130.627 55.479 129.724 55.479C129.241 55.479 128.807 55.71 128.59 56.102L128.52 55.577H127.925V59H128.583ZM131.631 58.006C131.631 58.657 132.142 59.084 132.947 59.084C133.759 59.084 134.319 58.671 134.319 58.02C134.319 57.509 134.032 57.243 133.451 57.103L132.849 56.956C132.513 56.872 132.345 56.718 132.345 56.487C132.345 56.172 132.576 55.99 132.989 55.99C133.388 55.99 133.619 56.207 133.633 56.55H134.263C134.249 55.899 133.759 55.479 133.01 55.479C132.254 55.479 131.722 55.878 131.722 56.508C131.722 57.012 132.009 57.313 132.618 57.46L133.22 57.6C133.577 57.691 133.689 57.831 133.689 58.062C133.689 58.377 133.423 58.566 132.961 58.566C132.527 58.566 132.261 58.356 132.261 58.006H131.631ZM136.525 59.084C137.372 59.084 137.946 58.671 138.114 57.936H137.498C137.386 58.328 137.05 58.538 136.539 58.538C135.888 58.538 135.51 58.139 135.461 57.418L138.107 57.411V57.166C138.107 56.151 137.47 55.479 136.497 55.479C135.503 55.479 134.824 56.221 134.824 57.292C134.824 58.356 135.517 59.084 136.525 59.084ZM136.497 56.032C137.078 56.032 137.449 56.41 137.449 56.977H135.475C135.559 56.375 135.923 56.032 136.497 56.032ZM138.562 58.006C138.562 58.657 139.073 59.084 139.878 59.084C140.69 59.084 141.25 58.671 141.25 58.02C141.25 57.509 140.963 57.243 140.382 57.103L139.78 56.956C139.444 56.872 139.276 56.718 139.276 56.487C139.276 56.172 139.507 55.99 139.92 55.99C140.319 55.99 140.55 56.207 140.564 56.55H141.194C141.18 55.899 140.69 55.479 139.941 55.479C139.185 55.479 138.653 55.878 138.653 56.508C138.653 57.012 138.94 57.313 139.549 57.46L140.151 57.6C140.508 57.691 140.62 57.831 140.62 58.062C140.62 58.377 140.354 58.566 139.892 58.566C139.458 58.566 139.192 58.356 139.192 58.006H138.562Z" fill="#1E1E1E"/>
<path d="M123.675 218V217.363H121.274V215.76H123.437V215.151H121.274V213.569H123.675V212.939H120.588V218H123.675ZM124.907 218L125.747 216.747L126.601 218H127.364L126.195 216.306L127.385 214.577H126.636L125.789 215.851L124.921 214.577H124.158L125.348 216.306L124.151 218H124.907ZM127.934 219.533H128.592V217.44C128.816 217.86 129.271 218.091 129.817 218.091C130.832 218.091 131.406 217.307 131.406 216.264C131.406 215.214 130.797 214.479 129.817 214.479C129.271 214.479 128.809 214.724 128.578 215.193L128.529 214.577H127.934V219.533ZM128.599 216.292C128.599 215.578 129.005 215.081 129.677 215.081C130.349 215.081 130.748 215.585 130.748 216.292C130.748 216.992 130.349 217.496 129.677 217.496C129.005 217.496 128.599 216.992 128.599 216.292ZM133.608 218.084C134.455 218.084 135.029 217.671 135.197 216.936H134.581C134.469 217.328 134.133 217.538 133.622 217.538C132.971 217.538 132.593 217.139 132.544 216.418L135.19 216.411V216.166C135.19 215.151 134.553 214.479 133.58 214.479C132.586 214.479 131.907 215.221 131.907 216.292C131.907 217.356 132.6 218.084 133.608 218.084ZM133.58 215.032C134.161 215.032 134.532 215.41 134.532 215.977H132.558C132.642 215.375 133.006 215.032 133.58 215.032ZM136.583 218V216.187C136.583 215.522 136.94 215.081 137.556 215.081C138.06 215.081 138.382 215.361 138.382 216.054V218H139.04V215.907C139.04 215.032 138.627 214.479 137.724 214.479C137.241 214.479 136.807 214.71 136.59 215.102L136.52 214.577H135.925V218H136.583ZM139.631 217.006C139.631 217.657 140.142 218.084 140.947 218.084C141.759 218.084 142.319 217.671 142.319 217.02C142.319 216.509 142.032 216.243 141.451 216.103L140.849 215.956C140.513 215.872 140.345 215.718 140.345 215.487C140.345 215.172 140.576 214.99 140.989 214.99C141.388 214.99 141.619 215.207 141.633 215.55H142.263C142.249 214.899 141.759 214.479 141.01 214.479C140.254 214.479 139.722 214.878 139.722 215.508C139.722 216.012 140.009 216.313 140.618 216.46L141.22 216.6C141.577 216.691 141.689 216.831 141.689 217.062C141.689 217.377 141.423 217.566 140.961 217.566C140.527 217.566 140.261 217.356 140.261 217.006H139.631ZM144.525 218.084C145.372 218.084 145.946 217.671 146.114 216.936H145.498C145.386 217.328 145.05 217.538 144.539 217.538C143.888 217.538 143.51 217.139 143.461 216.418L146.107 216.411V216.166C146.107 215.151 145.47 214.479 144.497 214.479C143.503 214.479 142.824 215.221 142.824 216.292C142.824 217.356 143.517 218.084 144.525 218.084ZM144.497 215.032C145.078 215.032 145.449 215.41 145.449 215.977H143.475C143.559 215.375 143.923 215.032 144.497 215.032ZM146.562 217.006C146.562 217.657 147.073 218.084 147.878 218.084C148.69 218.084 149.25 217.671 149.25 217.02C149.25 216.509 148.963 216.243 148.382 216.103L147.78 215.956C147.444 215.872 147.276 215.718 147.276 215.487C147.276 215.172 147.507 214.99 147.92 214.99C148.319 214.99 148.55 215.207 148.564 215.55H149.194C149.18 214.899 148.69 214.479 147.941 214.479C147.185 214.479 146.653 214.878 146.653 215.508C146.653 216.012 146.94 216.313 147.549 216.46L148.151 216.6C148.508 216.691 148.62 216.831 148.62 217.062C148.62 217.377 148.354 217.566 147.892 217.566C147.458 217.566 147.192 217.356 147.192 217.006H146.562Z" fill="#1E1E1E"/>
<rect x="112" y="62" width="9" height="1" rx="0.5" fill="#1E1E1E"/>
<path d="M19.008 59L19.421 57.817H21.332L21.745 59H22.69L20.842 53.883H19.925L18.077 59H19.008ZM20.268 55.409C20.317 55.269 20.359 55.115 20.38 55.017C20.394 55.122 20.443 55.276 20.485 55.409L21.073 57.061H19.687L20.268 55.409ZM23.2056 60.603H24.0596V58.538C24.2766 58.888 24.7246 59.091 25.2426 59.091C26.2716 59.091 26.8596 58.307 26.8596 57.229C26.8596 56.144 26.2156 55.437 25.2426 55.437C24.7176 55.437 24.2626 55.668 24.0526 56.067L23.9966 55.542H23.2056V60.603ZM24.0666 57.271C24.0666 56.648 24.4516 56.214 25.0396 56.214C25.6416 56.214 25.9986 56.655 25.9986 57.271C25.9986 57.887 25.6416 58.321 25.0396 58.321C24.4516 58.321 24.0666 57.894 24.0666 57.271ZM29.7096 55.528C29.5696 55.493 29.4506 55.479 29.3316 55.479C28.8696 55.479 28.5406 55.71 28.3936 56.053L28.3446 55.549H27.5396V59H28.3936V57.32C28.3936 56.648 28.7786 56.319 29.3946 56.319H29.7096V55.528ZM30.7147 54.849C30.9947 54.849 31.2257 54.618 31.2257 54.331C31.2257 54.044 30.9947 53.82 30.7147 53.82C30.4207 53.82 30.1897 54.044 30.1897 54.331C30.1897 54.618 30.4207 54.849 30.7147 54.849ZM30.2877 59H31.1417V55.542H30.2877V59ZM32.885 59V53.792H32.038V59H32.885Z" fill="#1E1E1E"/>
<path d="M36.738 201.993V201.356H34.4L35.45 200.446C36.346 199.669 36.703 199.158 36.703 198.437C36.703 197.464 36.052 196.848 35.037 196.848C34.008 196.848 33.322 197.555 33.301 198.64H33.987C34.001 197.919 34.407 197.464 35.03 197.464C35.639 197.464 36.003 197.842 36.003 198.479C36.003 199.018 35.772 199.361 34.953 200.068L33.322 201.475V202L36.738 201.993ZM41.0056 200.978V200.369H40.4036V196.939H39.5146L37.1276 200.369V200.978H39.7456V202H40.4036V200.978H41.0056ZM37.8696 200.369L39.7456 197.667V200.369H37.8696Z" fill="#1E1E1E"/>
<path d="M52.738 201.993V201.356H50.4L51.45 200.446C52.346 199.669 52.703 199.158 52.703 198.437C52.703 197.464 52.052 196.848 51.037 196.848C50.008 196.848 49.322 197.555 49.301 198.64H49.987C50.001 197.919 50.407 197.464 51.03 197.464C51.639 197.464 52.003 197.842 52.003 198.479C52.003 199.018 51.772 199.361 50.953 200.068L49.322 201.475V202L52.738 201.993ZM55.0225 202.084C56.1145 202.084 56.8635 201.349 56.8635 200.299C56.8635 199.326 56.1985 198.605 55.1695 198.605C54.7915 198.605 54.4555 198.71 54.1895 198.913L54.5255 197.569H56.5625V196.939H54.0285L53.4125 199.536L53.9935 199.683C54.2245 199.396 54.6165 199.193 55.0435 199.193C55.7505 199.193 56.1635 199.676 56.1635 200.327C56.1635 201.013 55.7225 201.468 55.0365 201.468C54.3925 201.468 53.9935 201.069 53.9935 200.418H53.3145C53.3145 201.426 53.9865 202.084 55.0225 202.084Z" fill="#1E1E1E"/>
<path d="M68.738 201.993V201.356H66.4L67.45 200.446C68.346 199.669 68.703 199.158 68.703 198.437C68.703 197.464 68.052 196.848 67.037 196.848C66.008 196.848 65.322 197.555 65.301 198.64H65.987C66.001 197.919 66.407 197.464 67.03 197.464C67.639 197.464 68.003 197.842 68.003 198.479C68.003 199.018 67.772 199.361 66.953 200.068L65.322 201.475V202L68.738 201.993ZM70.0134 198.542C69.4954 199.249 69.3134 199.669 69.3134 200.271C69.3134 201.293 70.1254 202.084 71.1754 202.084C72.2184 202.084 73.0164 201.328 73.0164 200.271C73.0164 199.27 72.3094 198.514 71.2594 198.514C71.0844 198.514 70.9024 198.549 70.7274 198.619L71.9944 196.939H71.1964L70.0134 198.542ZM70.0134 200.278C70.0134 199.585 70.4894 199.095 71.1754 199.095C71.8474 199.095 72.3234 199.585 72.3234 200.278C72.3234 200.971 71.8474 201.468 71.1754 201.468C70.4894 201.468 70.0134 200.971 70.0134 200.278Z" fill="#1E1E1E"/>
<path d="M84.738 201.993V201.356H82.4L83.45 200.446C84.346 199.669 84.703 199.158 84.703 198.437C84.703 197.464 84.052 196.848 83.037 196.848C82.008 196.848 81.322 197.555 81.301 198.64H81.987C82.001 197.919 82.407 197.464 83.03 197.464C83.639 197.464 84.003 197.842 84.003 198.479C84.003 199.018 83.772 199.361 82.953 200.068L81.322 201.475V202L84.738 201.993ZM85.0414 196.939V197.569H87.8834L85.9444 202H86.6584L88.5764 197.569V196.939H85.0414Z" fill="#1E1E1E"/>
<path d="M99.738 201.993V201.356H97.4L98.45 200.446C99.346 199.669 99.703 199.158 99.703 198.437C99.703 197.464 99.052 196.848 98.037 196.848C97.008 196.848 96.322 197.555 96.301 198.64H96.987C97.001 197.919 97.407 197.464 98.03 197.464C98.639 197.464 99.003 197.842 99.003 198.479C99.003 199.018 98.772 199.361 97.953 200.068L96.322 201.475V202L99.738 201.993ZM100.355 200.593C100.355 201.489 101.09 202.084 102.217 202.084C103.337 202.084 104.079 201.489 104.079 200.6C104.079 199.977 103.715 199.473 103.148 199.291C103.624 199.102 103.89 198.703 103.89 198.185C103.89 197.387 103.218 196.848 102.224 196.848C101.216 196.848 100.537 197.387 100.537 198.178C100.537 198.689 100.796 199.088 101.272 199.291C100.712 199.494 100.355 199.984 100.355 200.593ZM101.167 198.22C101.167 197.751 101.58 197.443 102.21 197.443C102.847 197.443 103.246 197.751 103.246 198.234C103.246 198.724 102.847 199.039 102.21 199.039C101.58 199.039 101.167 198.717 101.167 198.22ZM101.027 200.544C101.027 199.984 101.489 199.627 102.21 199.627C102.938 199.627 103.4 199.984 103.4 200.544C103.4 201.111 102.931 201.475 102.217 201.475C101.496 201.475 101.027 201.111 101.027 200.544Z" fill="#1E1E1E"/>
<path d="M115.738 201.993V201.356H113.4L114.45 200.446C115.346 199.669 115.703 199.158 115.703 198.437C115.703 197.464 115.052 196.848 114.037 196.848C113.008 196.848 112.322 197.555 112.301 198.64H112.987C113.001 197.919 113.407 197.464 114.03 197.464C114.639 197.464 115.003 197.842 115.003 198.479C115.003 199.018 114.772 199.361 113.953 200.068L112.322 201.475V202L115.738 201.993ZM119.316 200.397C119.834 199.69 120.016 199.263 120.016 198.668C120.016 197.639 119.204 196.848 118.154 196.848C117.111 196.848 116.313 197.611 116.313 198.661C116.313 199.669 117.02 200.425 118.07 200.425C118.245 200.425 118.427 200.39 118.602 200.32L117.335 202H118.133L119.316 200.397ZM119.316 198.661C119.316 199.354 118.84 199.844 118.154 199.844C117.482 199.844 117.006 199.354 117.006 198.661C117.006 197.968 117.482 197.464 118.154 197.464C118.84 197.464 119.316 197.968 119.316 198.661Z" fill="#1E1E1E"/>
<path d="M129.792 199.382C130.597 199.382 131.017 199.788 131.017 200.397C131.017 201.048 130.59 201.468 129.932 201.468C129.295 201.468 128.889 201.083 128.889 200.425H128.21C128.21 201.475 128.924 202.084 129.918 202.084C130.947 202.084 131.717 201.433 131.717 200.411C131.717 199.501 131.066 198.92 130.205 198.815L131.591 197.492V196.939H128.448V197.548H130.723L129.288 198.927V199.382H129.792ZM132.322 199.473C132.322 201.048 133.099 202.091 134.408 202.091C135.71 202.091 136.487 201.048 136.487 199.473C136.487 197.905 135.675 196.841 134.408 196.841C133.134 196.841 132.322 197.905 132.322 199.473ZM133.001 199.473C133.001 198.213 133.519 197.457 134.408 197.457C135.297 197.457 135.808 198.213 135.808 199.473C135.808 200.719 135.297 201.475 134.408 201.475C133.519 201.475 133.001 200.719 133.001 199.473Z" fill="#1E1E1E"/>
<path d="M13.105 231.75V231.045C14.32 230.902 14.815 230.242 14.815 229.522C14.815 228.832 14.41 228.285 13.285 228.105L11.875 227.88C11.455 227.805 11.29 227.7 11.29 227.407C11.29 227.085 11.5375 226.927 12.3475 226.927C13.345 226.927 13.5925 227.13 13.5925 227.61V227.715H14.725V227.67C14.725 226.77 14.2075 226.125 13.105 225.945V225.225H12.055V225.915C10.675 226.035 10.1575 226.763 10.1575 227.452C10.1575 228.27 10.69 228.72 11.59 228.862L13 229.065C13.5175 229.155 13.69 229.267 13.69 229.575C13.69 229.912 13.48 230.047 12.58 230.047C11.56 230.047 11.3275 229.86 11.3275 229.395V229.26H10.2025V229.305C10.2025 230.332 10.8625 230.917 12.055 231.045V231.75H13.105ZM17.5456 231.075C19.0081 231.075 19.8781 230.565 19.8781 229.59C19.8781 228.855 19.3981 228.48 18.6631 228.375V228.292C19.3156 228.21 19.6606 227.82 19.6606 227.242C19.6606 226.357 18.9181 225.9 17.5756 225.9C15.9406 225.9 15.1606 226.62 15.1606 227.677V227.715H16.3531V227.677C16.3531 227.167 16.5781 226.98 17.4781 226.98C18.3331 226.98 18.5431 227.13 18.5431 227.482C18.5431 227.797 18.3481 227.955 17.9131 227.955H16.5706V228.877H18.0181C18.4906 228.877 18.7306 229.035 18.7306 229.41C18.7306 229.845 18.4381 229.995 17.4931 229.995C16.4956 229.995 16.3531 229.807 16.3531 229.297V229.177H15.1606V229.297C15.1606 230.407 15.9031 231.075 17.5456 231.075ZM22.7049 231.075C24.3174 231.075 25.2174 230.055 25.2174 228.487C25.2174 226.927 24.3174 225.9 22.7049 225.9C21.0849 225.9 20.1924 226.927 20.1924 228.487C20.1924 230.055 21.0849 231.075 22.7049 231.075ZM22.7049 229.98C21.7449 229.98 21.3999 229.567 21.3999 228.487C21.3999 227.407 21.7449 226.995 22.7049 226.995C23.6574 226.995 24.0099 227.407 24.0099 228.487C24.0099 229.567 23.6574 229.98 22.7049 229.98ZM26.063 232.058C26.7005 232.058 27.068 231.75 27.068 231.12V229.687H25.6205V231H26.258V231.128C26.258 231.323 26.183 231.36 26.033 231.36H25.6655V232.058H26.063ZM29.9925 231.075C31.605 231.075 32.505 230.055 32.505 228.487C32.505 226.927 31.605 225.9 29.9925 225.9C28.3725 225.9 27.48 226.927 27.48 228.487C27.48 230.055 28.3725 231.075 29.9925 231.075ZM29.9925 229.98C29.0325 229.98 28.6875 229.567 28.6875 228.487C28.6875 227.407 29.0325 226.995 29.9925 226.995C30.945 226.995 31.2975 227.407 31.2975 228.487C31.2975 229.567 30.945 229.98 29.9925 229.98ZM35.3831 231.075C36.9956 231.075 37.8956 230.055 37.8956 228.487C37.8956 226.927 36.9956 225.9 35.3831 225.9C33.7631 225.9 32.8706 226.927 32.8706 228.487C32.8706 230.055 33.7631 231.075 35.3831 231.075ZM35.3831 229.98C34.4231 229.98 34.0781 229.567 34.0781 228.487C34.0781 227.407 34.4231 226.995 35.3831 226.995C36.3356 226.995 36.6881 227.407 36.6881 228.487C36.6881 229.567 36.3356 229.98 35.3831 229.98ZM40.7737 231.075C42.3862 231.075 43.2862 230.055 43.2862 228.487C43.2862 226.927 42.3862 225.9 40.7737 225.9C39.1537 225.9 38.2612 226.927 38.2612 228.487C38.2612 230.055 39.1537 231.075 40.7737 231.075ZM40.7737 229.98C39.8137 229.98 39.4687 229.567 39.4687 228.487C39.4687 227.407 39.8137 226.995 40.7737 226.995C41.7262 226.995 42.0787 227.407 42.0787 228.487C42.0787 229.567 41.7262 229.98 40.7737 229.98Z" fill="#1E1E1E"/>
<path d="M121.105 231.75V231.045C122.32 230.902 122.815 230.242 122.815 229.522C122.815 228.832 122.41 228.285 121.285 228.105L119.875 227.88C119.455 227.805 119.29 227.7 119.29 227.407C119.29 227.085 119.538 226.927 120.348 226.927C121.345 226.927 121.593 227.13 121.593 227.61V227.715H122.725V227.67C122.725 226.77 122.208 226.125 121.105 225.945V225.225H120.055V225.915C118.675 226.035 118.158 226.763 118.158 227.452C118.158 228.27 118.69 228.72 119.59 228.862L121 229.065C121.518 229.155 121.69 229.267 121.69 229.575C121.69 229.912 121.48 230.047 120.58 230.047C119.56 230.047 119.328 229.86 119.328 229.395V229.26H118.203V229.305C118.203 230.332 118.863 230.917 120.055 231.045V231.75H121.105ZM125.463 231V225.975H124.436C124.188 226.47 123.813 226.597 123.258 226.597H123.048V227.37H124.338V231H125.463ZM128.464 231.075C130.076 231.075 130.976 230.055 130.976 228.487C130.976 226.927 130.076 225.9 128.464 225.9C126.844 225.9 125.951 226.927 125.951 228.487C125.951 230.055 126.844 231.075 128.464 231.075ZM128.464 229.98C127.504 229.98 127.159 229.567 127.159 228.487C127.159 227.407 127.504 226.995 128.464 226.995C129.416 226.995 129.769 227.407 129.769 228.487C129.769 229.567 129.416 229.98 128.464 229.98ZM131.822 232.058C132.459 232.058 132.827 231.75 132.827 231.12V229.687H131.379V231H132.017V231.128C132.017 231.323 131.942 231.36 131.792 231.36H131.424V232.058H131.822ZM135.751 231.075C137.364 231.075 138.264 230.055 138.264 228.487C138.264 226.927 137.364 225.9 135.751 225.9C134.131 225.9 133.239 226.927 133.239 228.487C133.239 230.055 134.131 231.075 135.751 231.075ZM135.751 229.98C134.791 229.98 134.446 229.567 134.446 228.487C134.446 227.407 134.791 226.995 135.751 226.995C136.704 226.995 137.056 227.407 137.056 228.487C137.056 229.567 136.704 229.98 135.751 229.98ZM141.142 231.075C142.754 231.075 143.654 230.055 143.654 228.487C143.654 226.927 142.754 225.9 141.142 225.9C139.522 225.9 138.629 226.927 138.629 228.487C138.629 230.055 139.522 231.075 141.142 231.075ZM141.142 229.98C140.182 229.98 139.837 229.567 139.837 228.487C139.837 227.407 140.182 226.995 141.142 226.995C142.094 226.995 142.447 227.407 142.447 228.487C142.447 229.567 142.094 229.98 141.142 229.98ZM146.533 231.075C148.145 231.075 149.045 230.055 149.045 228.487C149.045 226.927 148.145 225.9 146.533 225.9C144.913 225.9 144.02 226.927 144.02 228.487C144.02 230.055 144.913 231.075 146.533 231.075ZM146.533 229.98C145.573 229.98 145.228 229.567 145.228 228.487C145.228 227.407 145.573 226.995 146.533 226.995C147.485 226.995 147.838 227.407 147.838 228.487C147.838 229.567 147.485 229.98 146.533 229.98Z" fill="#1E1E1E"/>
<path d="M12.59 247.236C13.612 247.236 14.284 246.543 14.284 245.556C14.284 244.555 13.619 243.883 12.59 243.883H10.567V249H11.463V247.236H12.59ZM12.415 244.681C13.01 244.681 13.346 244.989 13.346 245.549C13.346 246.109 13.017 246.438 12.401 246.438H11.463V244.681H12.415ZM15.804 249.091C16.343 249.091 16.812 248.846 16.959 248.489L17.022 249H17.771V246.9C17.771 245.941 17.197 245.437 16.266 245.437C15.328 245.437 14.712 245.927 14.712 246.676H15.44C15.44 246.312 15.72 246.102 16.224 246.102C16.658 246.102 16.938 246.291 16.938 246.76V246.837L15.902 246.914C15.083 246.977 14.621 247.376 14.621 248.013C14.621 248.664 15.069 249.091 15.804 249.091ZM16.084 248.447C15.699 248.447 15.489 248.293 15.489 247.978C15.489 247.698 15.692 247.523 16.224 247.474L16.945 247.418V247.6C16.945 248.132 16.609 248.447 16.084 248.447ZM18.2132 250.603C18.4022 250.652 18.6122 250.68 18.8502 250.68C19.4172 250.68 19.7812 250.414 20.0402 249.77L21.7342 245.542H20.8522L19.9142 248.062L19.0252 245.542H18.1222L19.5152 249.147L19.4172 249.406C19.2702 249.812 19.0602 249.889 18.7242 249.889H18.2132V250.603ZM23.0733 249V247.04C23.0733 246.48 23.4023 246.214 23.8083 246.214C24.2143 246.214 24.4733 246.473 24.4733 246.956V249H25.3273V247.04C25.3273 246.473 25.6423 246.207 26.0553 246.207C26.4613 246.207 26.7273 246.466 26.7273 246.963V249H27.5743V246.739C27.5743 245.941 27.1123 245.437 26.2723 245.437C25.7473 245.437 25.3413 245.696 25.1663 246.095C24.9843 245.696 24.6203 245.437 24.0953 245.437C23.5983 245.437 23.2483 245.661 23.0733 245.948L23.0033 245.542H22.2193V249H23.0733ZM29.9597 249.091C30.8627 249.091 31.4927 248.636 31.6397 247.88H30.8487C30.7507 248.209 30.4427 248.391 29.9737 248.391C29.4067 248.391 29.0847 248.083 29.0217 247.474L31.6257 247.467V247.208C31.6257 246.13 30.9677 245.437 29.9317 245.437C28.9167 245.437 28.2097 246.186 28.2097 247.271C28.2097 248.342 28.9307 249.091 29.9597 249.091ZM29.9387 246.137C30.4497 246.137 30.7787 246.452 30.7787 246.928H29.0427C29.1267 246.41 29.4347 246.137 29.9387 246.137ZM33.1632 249V247.138C33.1632 246.578 33.4852 246.214 34.0102 246.214C34.4512 246.214 34.7382 246.494 34.7382 247.075V249H35.5922V246.872C35.5922 245.976 35.1442 245.437 34.2762 245.437C33.8072 245.437 33.3872 245.64 33.1702 245.99L33.1002 245.542H32.3092V249H33.1632ZM37.6072 249V246.256H38.2792V245.542H37.6072V244.464H36.7532V245.542H36.0882V246.256H36.7532V249H37.6072ZM38.5441 247.95C38.5441 248.629 39.0901 249.091 39.9511 249.091C40.8051 249.091 41.4001 248.657 41.4001 247.957C41.4001 247.425 41.1061 247.159 40.5251 247.026L39.9021 246.879C39.6081 246.809 39.4541 246.683 39.4541 246.487C39.4541 246.228 39.6501 246.074 39.9861 246.074C40.3151 246.074 40.5111 246.263 40.5181 246.557H41.3301C41.3231 245.885 40.7981 245.437 40.0211 245.437C39.2231 245.437 38.6491 245.843 38.6491 246.522C38.6491 247.075 38.9501 247.369 39.5731 247.509L40.1961 247.656C40.5041 247.726 40.5951 247.852 40.5951 248.027C40.5951 248.279 40.3781 248.44 39.9791 248.44C39.5871 248.44 39.3631 248.251 39.3561 247.95H38.5441Z" fill="#1E1E1E"/>
<rect x="10.25" y="255.25" width="23" height="23" rx="0.75" stroke="#1E1E1E" stroke-width="0.5"/>
<rect x="45.25" y="255.25" width="23" height="23" rx="0.75" stroke="#1E1E1E" stroke-width="0.5"/>
<rect x="80.25" y="255.25" width="23" height="23" rx="0.75" stroke="#1E1E1E" stroke-width="0.5"/>
<rect x="115.25" y="255.25" width="23" height="23" rx="0.75" stroke="#1E1E1E" stroke-width="0.5"/>
<rect x="150.25" y="255.25" width="23" height="23" rx="0.75" stroke="#1E1E1E" stroke-width="0.5"/>
<path d="M17.5812 271.165L17.8272 270.946L17.5932 270.685C17.7642 270.487 17.8602 270.217 17.8602 269.902C17.8602 269.233 17.4222 268.768 16.7952 268.768C16.1682 268.768 15.7332 269.236 15.7332 269.902C15.7332 270.571 16.1652 271.036 16.7922 271.036C16.9992 271.036 17.1852 270.985 17.3412 270.895L17.5812 271.165ZM17.4552 269.902C17.4552 270.094 17.4102 270.259 17.3292 270.385L17.0382 270.058L16.7952 270.277L17.0862 270.604C16.9992 270.646 16.9032 270.667 16.7952 270.667C16.3932 270.667 16.1352 270.37 16.1352 269.902C16.1352 269.434 16.3932 269.137 16.7952 269.137C17.1972 269.137 17.4552 269.434 17.4552 269.902ZM18.6016 271V270.181H19.0726L19.4446 271H19.8646L19.4476 270.1C19.7056 269.995 19.8436 269.785 19.8436 269.491C19.8436 269.059 19.5526 268.807 19.0546 268.807H18.2176V271H18.6016ZM18.6016 269.149H19.0546C19.2976 269.149 19.4416 269.272 19.4416 269.491C19.4416 269.713 19.2976 269.842 19.0546 269.842H18.6016V269.149ZM21.963 271.036C22.482 271.036 22.884 270.73 22.968 270.268H22.569C22.497 270.511 22.269 270.667 21.972 270.667C21.57 270.667 21.312 270.367 21.312 269.902C21.312 269.434 21.567 269.14 21.972 269.14C22.263 269.14 22.482 269.29 22.557 269.545H22.962C22.887 269.074 22.5 268.771 21.981 268.771C21.339 268.771 20.91 269.224 20.91 269.905C20.91 270.592 21.324 271.036 21.963 271.036ZM23.1713 270.256C23.1713 270.718 23.5043 271.036 23.9633 271.036C24.4223 271.036 24.7553 270.718 24.7553 270.256C24.7553 269.794 24.4223 269.476 23.9633 269.476C23.5043 269.476 23.1713 269.794 23.1713 270.256ZM23.5373 270.256C23.5373 269.986 23.7113 269.803 23.9633 269.803C24.2153 269.803 24.3893 269.986 24.3893 270.256C24.3893 270.526 24.2153 270.709 23.9633 270.709C23.7113 270.709 23.5373 270.526 23.5373 270.256ZM25.6544 271.039C25.8794 271.039 26.0714 270.94 26.1614 270.769L26.1854 271H26.5214V268.768H26.1584V269.707C26.0654 269.56 25.8824 269.473 25.6754 269.473C25.2284 269.473 24.9584 269.803 24.9584 270.265C24.9584 270.724 25.2254 271.039 25.6544 271.039ZM25.7354 270.703C25.4804 270.703 25.3244 270.517 25.3244 270.253C25.3244 269.989 25.4804 269.8 25.7354 269.8C25.9904 269.8 26.1554 269.986 26.1554 270.253C26.1554 270.52 25.9904 270.703 25.7354 270.703ZM27.5659 271.039C27.9529 271.039 28.2229 270.844 28.2859 270.52H27.9469C27.9049 270.661 27.7729 270.739 27.5719 270.739C27.3289 270.739 27.1909 270.607 27.1639 270.346L28.2799 270.343V270.232C28.2799 269.77 27.9979 269.473 27.5539 269.473C27.1189 269.473 26.8159 269.794 26.8159 270.259C26.8159 270.718 27.1249 271.039 27.5659 271.039ZM27.5569 269.773C27.7759 269.773 27.9169 269.908 27.9169 270.112H27.1729C27.2089 269.89 27.3409 269.773 27.5569 269.773ZM18.6995 273.419C18.6995 273.755 18.8945 273.968 19.2665 274.049L19.6145 274.127C19.7945 274.166 19.8695 274.253 19.8695 274.4C19.8695 274.583 19.7075 274.694 19.4525 274.694C19.2065 274.694 19.0565 274.583 19.0535 274.397H18.6695C18.6785 274.79 18.9845 275.039 19.4525 275.039C19.9355 275.039 20.2535 274.775 20.2535 274.367C20.2535 274.04 20.0705 273.848 19.6955 273.767L19.3505 273.692C19.1675 273.65 19.0835 273.563 19.0835 273.407C19.0835 273.224 19.2365 273.11 19.4735 273.11C19.6895 273.11 19.8245 273.221 19.8335 273.41H20.2175C20.2055 273.014 19.9235 272.768 19.4795 272.768C19.0175 272.768 18.6995 273.035 18.6995 273.419ZM20.4599 274.256C20.4599 274.727 20.7539 275.039 21.2039 275.039C21.5909 275.039 21.8789 274.802 21.9239 274.457H21.5549C21.5159 274.619 21.3869 274.709 21.2039 274.709C20.9699 274.709 20.8259 274.535 20.8259 274.256C20.8259 273.977 20.9819 273.8 21.2159 273.8C21.3899 273.8 21.5129 273.887 21.5549 274.055H21.9209C21.8819 273.698 21.6059 273.473 21.2009 273.473C20.7629 273.473 20.4599 273.797 20.4599 274.256ZM22.6373 275.039C22.8683 275.039 23.0693 274.934 23.1323 274.781L23.1593 275H23.4803V274.1C23.4803 273.689 23.2343 273.473 22.8353 273.473C22.4333 273.473 22.1693 273.683 22.1693 274.004H22.4813C22.4813 273.848 22.6013 273.758 22.8173 273.758C23.0033 273.758 23.1233 273.839 23.1233 274.04V274.073L22.6793 274.106C22.3283 274.133 22.1303 274.304 22.1303 274.577C22.1303 274.856 22.3223 275.039 22.6373 275.039ZM22.7573 274.763C22.5923 274.763 22.5023 274.697 22.5023 274.562C22.5023 274.442 22.5893 274.367 22.8173 274.346L23.1263 274.322V274.4C23.1263 274.628 22.9823 274.763 22.7573 274.763ZM24.2059 275V274.202C24.2059 273.962 24.3439 273.806 24.5689 273.806C24.7579 273.806 24.8809 273.926 24.8809 274.175V275H25.2469V274.088C25.2469 273.704 25.0549 273.473 24.6829 273.473C24.4819 273.473 24.3019 273.56 24.2089 273.71L24.1789 273.518H23.8399V275H24.2059Z" fill="#1E1E1E"/>
<path d="M53.1253 269.419C53.1253 269.755 53.3203 269.968 53.6923 270.049L54.0403 270.127C54.2203 270.166 54.2953 270.253 54.2953 270.4C54.2953 270.583 54.1333 270.694 53.8783 270.694C53.6323 270.694 53.4823 270.583 53.4793 270.397H53.0953C53.1043 270.79 53.4103 271.039 53.8783 271.039C54.3613 271.039 54.6793 270.775 54.6793 270.367C54.6793 270.04 54.4963 269.848 54.1213 269.767L53.7763 269.692C53.5933 269.65 53.5093 269.563 53.5093 269.407C53.5093 269.224 53.6623 269.11 53.8993 269.11C54.1153 269.11 54.2503 269.221 54.2593 269.41H54.6433C54.6313 269.014 54.3493 268.768 53.9053 268.768C53.4433 268.768 53.1253 269.035 53.1253 269.419ZM55.3387 271V270.19C55.3387 269.968 55.4737 269.806 55.7047 269.806C55.8907 269.806 56.0137 269.926 56.0137 270.175V271H56.3797V270.088C56.3797 269.704 56.1877 269.473 55.8217 269.473C55.6087 269.473 55.4347 269.566 55.3417 269.71V268.768H54.9727V271H55.3387ZM57.1803 271.039C57.4113 271.039 57.6123 270.934 57.6753 270.781L57.7023 271H58.0233V270.1C58.0233 269.689 57.7773 269.473 57.3783 269.473C56.9763 269.473 56.7123 269.683 56.7123 270.004H57.0243C57.0243 269.848 57.1443 269.758 57.3603 269.758C57.5463 269.758 57.6663 269.839 57.6663 270.04V270.073L57.2223 270.106C56.8713 270.133 56.6733 270.304 56.6733 270.577C56.6733 270.856 56.8653 271.039 57.1803 271.039ZM57.3003 270.763C57.1353 270.763 57.0453 270.697 57.0453 270.562C57.0453 270.442 57.1323 270.367 57.3603 270.346L57.6693 270.322V270.4C57.6693 270.628 57.5253 270.763 57.3003 270.763ZM59.3128 269.512C59.2528 269.497 59.2018 269.491 59.1508 269.491C58.9528 269.491 58.8118 269.59 58.7488 269.737L58.7278 269.521H58.3828V271H58.7488V270.28C58.7488 269.992 58.9138 269.851 59.1778 269.851H59.3128V269.512ZM60.1738 271.039C60.5608 271.039 60.8308 270.844 60.8938 270.52H60.5548C60.5128 270.661 60.3808 270.739 60.1798 270.739C59.9368 270.739 59.7988 270.607 59.7718 270.346L60.8878 270.343V270.232C60.8878 269.77 60.6058 269.473 60.1618 269.473C59.7268 269.473 59.4238 269.794 59.4238 270.259C59.4238 270.718 59.7328 271.039 60.1738 271.039ZM60.1648 269.773C60.3838 269.773 60.5248 269.908 60.5248 270.112H59.7808C59.8168 269.89 59.9488 269.773 60.1648 269.773ZM52.1334 274.244C52.5714 274.244 52.8594 273.947 52.8594 273.524C52.8594 273.095 52.5744 272.807 52.1334 272.807H51.2664V275H51.6504V274.244H52.1334ZM52.0584 273.149C52.3134 273.149 52.4574 273.281 52.4574 273.521C52.4574 273.761 52.3164 273.902 52.0524 273.902H51.6504V273.149H52.0584ZM52.9939 274.55C52.9939 274.841 53.2279 275.039 53.5969 275.039C53.9629 275.039 54.2179 274.853 54.2179 274.553C54.2179 274.325 54.0919 274.211 53.8429 274.154L53.5759 274.091C53.4499 274.061 53.3839 274.007 53.3839 273.923C53.3839 273.812 53.4679 273.746 53.6119 273.746C53.7529 273.746 53.8369 273.827 53.8399 273.953H54.1879C54.1849 273.665 53.9599 273.473 53.6269 273.473C53.2849 273.473 53.0389 273.647 53.0389 273.938C53.0389 274.175 53.1679 274.301 53.4349 274.361L53.7019 274.424C53.8339 274.454 53.8729 274.508 53.8729 274.583C53.8729 274.691 53.7799 274.76 53.6089 274.76C53.4409 274.76 53.3449 274.679 53.3419 274.55H52.9939ZM54.3383 275.687C54.4193 275.708 54.5093 275.72 54.6113 275.72C54.8543 275.72 55.0103 275.606 55.1213 275.33L55.8473 273.518H55.4693L55.0673 274.598L54.6863 273.518H54.2993L54.8963 275.063L54.8543 275.174C54.7913 275.348 54.7013 275.381 54.5573 275.381H54.3383V275.687ZM56.4212 275V274.16C56.4212 273.92 56.5622 273.806 56.7362 273.806C56.9102 273.806 57.0212 273.917 57.0212 274.124V275H57.3872V274.16C57.3872 273.917 57.5222 273.803 57.6992 273.803C57.8732 273.803 57.9872 273.914 57.9872 274.127V275H58.3502V274.031C58.3502 273.689 58.1522 273.473 57.7922 273.473C57.5672 273.473 57.3932 273.584 57.3182 273.755C57.2402 273.584 57.0842 273.473 56.8592 273.473C56.6462 273.473 56.4962 273.569 56.4212 273.692L56.3912 273.518H56.0552V275H56.4212ZM59.3725 275.039C59.7595 275.039 60.0295 274.844 60.0925 274.52H59.7535C59.7115 274.661 59.5795 274.739 59.3785 274.739C59.1355 274.739 58.9975 274.607 58.9705 274.346L60.0865 274.343V274.232C60.0865 273.77 59.8045 273.473 59.3605 273.473C58.9255 273.473 58.6225 273.794 58.6225 274.259C58.6225 274.718 58.9315 275.039 59.3725 275.039ZM59.3635 273.773C59.5825 273.773 59.7235 273.908 59.7235 274.112H58.9795C59.0155 273.89 59.1475 273.773 59.3635 273.773ZM60.7454 275V274.202C60.7454 273.962 60.8834 273.806 61.1084 273.806C61.2974 273.806 61.4204 273.926 61.4204 274.175V275H61.7864V274.088C61.7864 273.704 61.5944 273.473 61.2224 273.473C61.0214 273.473 60.8414 273.56 60.7484 273.71L60.7184 273.518H60.3794V275H60.7454ZM62.65 275V273.824H62.938V273.518H62.65V273.056H62.284V273.518H61.999V273.824H62.284V275H62.65Z" fill="#1E1E1E"/>
<path d="M87.4617 269.419C87.4617 269.755 87.6567 269.968 88.0287 270.049L88.3767 270.127C88.5567 270.166 88.6317 270.253 88.6317 270.4C88.6317 270.583 88.4697 270.694 88.2147 270.694C87.9687 270.694 87.8187 270.583 87.8157 270.397H87.4317C87.4407 270.79 87.7467 271.039 88.2147 271.039C88.6977 271.039 89.0157 270.775 89.0157 270.367C89.0157 270.04 88.8327 269.848 88.4577 269.767L88.1127 269.692C87.9297 269.65 87.8457 269.563 87.8457 269.407C87.8457 269.224 87.9987 269.11 88.2357 269.11C88.4517 269.11 88.5867 269.221 88.5957 269.41H88.9797C88.9677 269.014 88.6857 268.768 88.2417 268.768C87.7797 268.768 87.4617 269.035 87.4617 269.419ZM89.9721 271.039C90.3591 271.039 90.6291 270.844 90.6921 270.52H90.3531C90.3111 270.661 90.1791 270.739 89.9781 270.739C89.7351 270.739 89.5971 270.607 89.5701 270.346L90.6861 270.343V270.232C90.6861 269.77 90.4041 269.473 89.9601 269.473C89.5251 269.473 89.2221 269.794 89.2221 270.259C89.2221 270.718 89.5311 271.039 89.9721 271.039ZM89.9631 269.773C90.1821 269.773 90.3231 269.908 90.3231 270.112H89.5791C89.6151 269.89 89.7471 269.773 89.9631 269.773ZM91.4684 271V269.824H91.7564V269.518H91.4684V269.056H91.1024V269.518H90.8174V269.824H91.1024V271H91.4684ZM92.8315 270.199C92.8315 270.715 93.1675 271.036 93.6985 271.036C94.2325 271.036 94.5685 270.712 94.5685 270.199V268.807H94.1845V270.175C94.1845 270.487 94.0105 270.664 93.6985 270.664C93.3865 270.664 93.2155 270.49 93.2155 270.175V268.807H92.8315V270.199ZM94.9869 271.687H95.3529V270.802C95.4459 270.952 95.6379 271.039 95.8599 271.039C96.3009 271.039 96.5529 270.703 96.5529 270.241C96.5529 269.776 96.2769 269.473 95.8599 269.473C95.6349 269.473 95.4399 269.572 95.3499 269.743L95.3259 269.518H94.9869V271.687ZM95.3559 270.259C95.3559 269.992 95.5209 269.806 95.7729 269.806C96.0309 269.806 96.1839 269.995 96.1839 270.259C96.1839 270.523 96.0309 270.709 95.7729 270.709C95.5209 270.709 95.3559 270.526 95.3559 270.259ZM88.5445 272.807H88.1605V275H89.4625V274.646H88.5445V272.807ZM89.9037 273.221C90.0237 273.221 90.1227 273.122 90.1227 272.999C90.1227 272.876 90.0237 272.78 89.9037 272.78C89.7777 272.78 89.6787 272.876 89.6787 272.999C89.6787 273.122 89.7777 273.221 89.9037 273.221ZM89.7207 275H90.0867V273.518H89.7207V275ZM90.8309 275V274.16C90.8309 273.92 90.9719 273.806 91.1459 273.806C91.3199 273.806 91.4309 273.917 91.4309 274.124V275H91.7969V274.16C91.7969 273.917 91.9319 273.803 92.1089 273.803C92.2829 273.803 92.3969 273.914 92.3969 274.127V275H92.7599V274.031C92.7599 273.689 92.5619 273.473 92.2019 273.473C91.9769 273.473 91.8029 273.584 91.7279 273.755C91.6499 273.584 91.4939 273.473 91.2689 273.473C91.0559 273.473 90.9059 273.569 90.8309 273.692L90.8009 273.518H90.4649V275H90.8309ZM93.3022 273.221C93.4222 273.221 93.5212 273.122 93.5212 272.999C93.5212 272.876 93.4222 272.78 93.3022 272.78C93.1762 272.78 93.0772 272.876 93.0772 272.999C93.0772 273.122 93.1762 273.221 93.3022 273.221ZM93.1192 275H93.4852V273.518H93.1192V275ZM94.3673 275V273.824H94.6553V273.518H94.3673V273.056H94.0013V273.518H93.7163V273.824H94.0013V275H94.3673ZM94.7688 274.55C94.7688 274.841 95.0028 275.039 95.3718 275.039C95.7378 275.039 95.9928 274.853 95.9928 274.553C95.9928 274.325 95.8668 274.211 95.6178 274.154L95.3508 274.091C95.2248 274.061 95.1588 274.007 95.1588 273.923C95.1588 273.812 95.2428 273.746 95.3868 273.746C95.5278 273.746 95.6118 273.827 95.6148 273.953H95.9628C95.9598 273.665 95.7348 273.473 95.4018 273.473C95.0598 273.473 94.8138 273.647 94.8138 273.938C94.8138 274.175 94.9428 274.301 95.2098 274.361L95.4768 274.424C95.6088 274.454 95.6478 274.508 95.6478 274.583C95.6478 274.691 95.5548 274.76 95.3838 274.76C95.2158 274.76 95.1198 274.679 95.1168 274.55H94.7688Z" fill="#1E1E1E"/>
<path d="M119.52 271C120.156 271 120.594 270.553 120.594 269.908C120.594 269.254 120.147 268.807 119.499 268.807H118.731V271H119.52ZM119.463 269.161C119.916 269.161 120.189 269.443 120.189 269.908C120.189 270.364 119.922 270.646 119.484 270.646H119.115V269.161H119.463ZM121.56 271.039C121.947 271.039 122.217 270.844 122.28 270.52H121.941C121.899 270.661 121.767 270.739 121.566 270.739C121.323 270.739 121.185 270.607 121.158 270.346L122.274 270.343V270.232C122.274 269.77 121.992 269.473 121.548 269.473C121.113 269.473 120.81 269.794 120.81 270.259C120.81 270.718 121.119 271.039 121.56 271.039ZM121.551 269.773C121.77 269.773 121.911 269.908 121.911 270.112H121.167C121.203 269.89 121.335 269.773 121.551 269.773ZM122.936 271V268.768H122.573V271H122.936ZM123.503 269.221C123.623 269.221 123.722 269.122 123.722 268.999C123.722 268.876 123.623 268.78 123.503 268.78C123.377 268.78 123.278 268.876 123.278 268.999C123.278 269.122 123.377 269.221 123.503 269.221ZM123.32 271H123.686V269.518H123.32V271ZM124.484 271H124.844L125.462 269.518H125.084L124.814 270.199C124.751 270.361 124.697 270.517 124.676 270.61C124.658 270.529 124.607 270.376 124.544 270.199L124.286 269.518H123.896L124.484 271ZM126.263 271.039C126.65 271.039 126.92 270.844 126.983 270.52H126.644C126.602 270.661 126.47 270.739 126.269 270.739C126.026 270.739 125.888 270.607 125.861 270.346L126.977 270.343V270.232C126.977 269.77 126.695 269.473 126.251 269.473C125.816 269.473 125.513 269.794 125.513 270.259C125.513 270.718 125.822 271.039 126.263 271.039ZM126.254 269.773C126.473 269.773 126.614 269.908 126.614 270.112H125.87C125.906 269.89 126.038 269.773 126.254 269.773ZM128.2 269.512C128.14 269.497 128.089 269.491 128.038 269.491C127.84 269.491 127.699 269.59 127.636 269.737L127.615 269.521H127.27V271H127.636V270.28C127.636 269.992 127.801 269.851 128.065 269.851H128.2V269.512ZM128.83 271.039C129.061 271.039 129.262 270.934 129.325 270.781L129.352 271H129.673V270.1C129.673 269.689 129.427 269.473 129.028 269.473C128.626 269.473 128.362 269.683 128.362 270.004H128.674C128.674 269.848 128.794 269.758 129.01 269.758C129.196 269.758 129.316 269.839 129.316 270.04V270.073L128.872 270.106C128.521 270.133 128.323 270.304 128.323 270.577C128.323 270.856 128.515 271.039 128.83 271.039ZM128.95 270.763C128.785 270.763 128.695 270.697 128.695 270.562C128.695 270.442 128.782 270.367 129.01 270.346L129.319 270.322V270.4C129.319 270.628 129.175 270.763 128.95 270.763ZM130.371 271L130.395 270.769C130.482 270.94 130.671 271.039 130.893 271.039C131.319 271.039 131.598 270.724 131.598 270.268C131.598 269.8 131.34 269.47 130.917 269.47C130.692 269.47 130.494 269.569 130.398 269.734V268.768H130.032V271H130.371ZM130.401 270.253C130.401 269.986 130.566 269.8 130.818 269.8C131.076 269.8 131.229 269.989 131.229 270.253C131.229 270.517 131.076 270.703 130.818 270.703C130.566 270.703 130.401 270.52 130.401 270.253ZM132.259 271V268.768H131.896V271H132.259ZM133.306 271.039C133.693 271.039 133.963 270.844 134.026 270.52H133.687C133.645 270.661 133.513 270.739 133.312 270.739C133.069 270.739 132.931 270.607 132.904 270.346L134.02 270.343V270.232C134.02 269.77 133.738 269.473 133.294 269.473C132.859 269.473 132.556 269.794 132.556 270.259C132.556 270.718 132.865 271.039 133.306 271.039ZM133.297 269.773C133.516 269.773 133.657 269.908 133.657 270.112H132.913C132.949 269.89 133.081 269.773 133.297 269.773ZM134.199 270.55C134.199 270.841 134.433 271.039 134.802 271.039C135.168 271.039 135.423 270.853 135.423 270.553C135.423 270.325 135.297 270.211 135.048 270.154L134.781 270.091C134.655 270.061 134.589 270.007 134.589 269.923C134.589 269.812 134.673 269.746 134.817 269.746C134.958 269.746 135.042 269.827 135.045 269.953H135.393C135.39 269.665 135.165 269.473 134.832 269.473C134.49 269.473 134.244 269.647 134.244 269.938C134.244 270.175 134.373 270.301 134.64 270.361L134.907 270.424C135.039 270.454 135.078 270.508 135.078 270.583C135.078 270.691 134.985 270.76 134.814 270.76C134.646 270.76 134.55 270.679 134.547 270.55H134.199ZM120.517 275.039C120.748 275.039 120.949 274.934 121.012 274.781L121.039 275H121.36V274.1C121.36 273.689 121.114 273.473 120.715 273.473C120.313 273.473 120.049 273.683 120.049 274.004H120.361C120.361 273.848 120.481 273.758 120.697 273.758C120.883 273.758 121.003 273.839 121.003 274.04V274.073L120.559 274.106C120.208 274.133 120.01 274.304 120.01 274.577C120.01 274.856 120.202 275.039 120.517 275.039ZM120.637 274.763C120.472 274.763 120.382 274.697 120.382 274.562C120.382 274.442 120.469 274.367 120.697 274.346L121.006 274.322V274.4C121.006 274.628 120.862 274.763 120.637 274.763ZM122.085 275V274.202C122.085 273.962 122.223 273.806 122.448 273.806C122.637 273.806 122.76 273.926 122.76 274.175V275H123.126V274.088C123.126 273.704 122.934 273.473 122.562 273.473C122.361 273.473 122.181 273.56 122.088 273.71L122.058 273.518H121.719V275H122.085ZM124.095 275.039C124.32 275.039 124.512 274.94 124.602 274.769L124.626 275H124.962V272.768H124.599V273.707C124.506 273.56 124.323 273.473 124.116 273.473C123.669 273.473 123.399 273.803 123.399 274.265C123.399 274.724 123.666 275.039 124.095 275.039ZM124.176 274.703C123.921 274.703 123.765 274.517 123.765 274.253C123.765 273.989 123.921 273.8 124.176 273.8C124.431 273.8 124.596 273.986 124.596 274.253C124.596 274.52 124.431 274.703 124.176 274.703ZM127.073 274.244C127.511 274.244 127.799 273.947 127.799 273.524C127.799 273.095 127.514 272.807 127.073 272.807H126.206V275H126.59V274.244H127.073ZM126.998 273.149C127.253 273.149 127.397 273.281 127.397 273.521C127.397 273.761 127.256 273.902 126.992 273.902H126.59V273.149H126.998ZM128.45 275.039C128.681 275.039 128.882 274.934 128.945 274.781L128.972 275H129.293V274.1C129.293 273.689 129.047 273.473 128.648 273.473C128.246 273.473 127.982 273.683 127.982 274.004H128.294C128.294 273.848 128.414 273.758 128.63 273.758C128.816 273.758 128.936 273.839 128.936 274.04V274.073L128.492 274.106C128.141 274.133 127.943 274.304 127.943 274.577C127.943 274.856 128.135 275.039 128.45 275.039ZM128.57 274.763C128.405 274.763 128.315 274.697 128.315 274.562C128.315 274.442 128.402 274.367 128.63 274.346L128.939 274.322V274.4C128.939 274.628 128.795 274.763 128.57 274.763ZM129.566 274.256C129.566 274.727 129.86 275.039 130.31 275.039C130.697 275.039 130.985 274.802 131.03 274.457H130.661C130.622 274.619 130.493 274.709 130.31 274.709C130.076 274.709 129.932 274.535 129.932 274.256C129.932 273.977 130.088 273.8 130.322 273.8C130.496 273.8 130.619 273.887 130.661 274.055H131.027C130.988 273.698 130.712 273.473 130.307 273.473C129.869 273.473 129.566 273.797 129.566 274.256ZM131.671 275V274.601L131.887 274.376L132.274 275H132.694L132.142 274.106L132.706 273.518H132.247L131.671 274.139V272.768H131.308V275H131.671ZM132.8 274.55C132.8 274.841 133.034 275.039 133.403 275.039C133.769 275.039 134.024 274.853 134.024 274.553C134.024 274.325 133.898 274.211 133.649 274.154L133.382 274.091C133.256 274.061 133.19 274.007 133.19 273.923C133.19 273.812 133.274 273.746 133.418 273.746C133.559 273.746 133.643 273.827 133.646 273.953H133.994C133.991 273.665 133.766 273.473 133.433 273.473C133.091 273.473 132.845 273.647 132.845 273.938C132.845 274.175 132.974 274.301 133.241 274.361L133.508 274.424C133.64 274.454 133.679 274.508 133.679 274.583C133.679 274.691 133.586 274.76 133.415 274.76C133.247 274.76 133.151 274.679 133.148 274.55H132.8Z" fill="#1E1E1E"/>
<path d="M157.581 271.165L157.827 270.946L157.593 270.685C157.764 270.487 157.86 270.217 157.86 269.902C157.86 269.233 157.422 268.768 156.795 268.768C156.168 268.768 155.733 269.236 155.733 269.902C155.733 270.571 156.165 271.036 156.792 271.036C156.999 271.036 157.185 270.985 157.341 270.895L157.581 271.165ZM157.455 269.902C157.455 270.094 157.41 270.259 157.329 270.385L157.038 270.058L156.795 270.277L157.086 270.604C156.999 270.646 156.903 270.667 156.795 270.667C156.393 270.667 156.135 270.37 156.135 269.902C156.135 269.434 156.393 269.137 156.795 269.137C157.197 269.137 157.455 269.434 157.455 269.902ZM158.602 271V270.181H159.073L159.445 271H159.865L159.448 270.1C159.706 269.995 159.844 269.785 159.844 269.491C159.844 269.059 159.553 268.807 159.055 268.807H158.218V271H158.602ZM158.602 269.149H159.055C159.298 269.149 159.442 269.272 159.442 269.491C159.442 269.713 159.298 269.842 159.055 269.842H158.602V269.149ZM161.963 271.036C162.482 271.036 162.884 270.73 162.968 270.268H162.569C162.497 270.511 162.269 270.667 161.972 270.667C161.57 270.667 161.312 270.367 161.312 269.902C161.312 269.434 161.567 269.14 161.972 269.14C162.263 269.14 162.482 269.29 162.557 269.545H162.962C162.887 269.074 162.5 268.771 161.981 268.771C161.339 268.771 160.91 269.224 160.91 269.905C160.91 270.592 161.324 271.036 161.963 271.036ZM163.171 270.256C163.171 270.718 163.504 271.036 163.963 271.036C164.422 271.036 164.755 270.718 164.755 270.256C164.755 269.794 164.422 269.476 163.963 269.476C163.504 269.476 163.171 269.794 163.171 270.256ZM163.537 270.256C163.537 269.986 163.711 269.803 163.963 269.803C164.215 269.803 164.389 269.986 164.389 270.256C164.389 270.526 164.215 270.709 163.963 270.709C163.711 270.709 163.537 270.526 163.537 270.256ZM165.654 271.039C165.879 271.039 166.071 270.94 166.161 270.769L166.185 271H166.521V268.768H166.158V269.707C166.065 269.56 165.882 269.473 165.675 269.473C165.228 269.473 164.958 269.803 164.958 270.265C164.958 270.724 165.225 271.039 165.654 271.039ZM165.735 270.703C165.48 270.703 165.324 270.517 165.324 270.253C165.324 269.989 165.48 269.8 165.735 269.8C165.99 269.8 166.155 269.986 166.155 270.253C166.155 270.52 165.99 270.703 165.735 270.703ZM167.566 271.039C167.953 271.039 168.223 270.844 168.286 270.52H167.947C167.905 270.661 167.773 270.739 167.572 270.739C167.329 270.739 167.191 270.607 167.164 270.346L168.28 270.343V270.232C168.28 269.77 167.998 269.473 167.554 269.473C167.119 269.473 166.816 269.794 166.816 270.259C166.816 270.718 167.125 271.039 167.566 271.039ZM167.557 269.773C167.776 269.773 167.917 269.908 167.917 270.112H167.173C167.209 269.89 167.341 269.773 167.557 269.773ZM158.7 273.419C158.7 273.755 158.895 273.968 159.267 274.049L159.615 274.127C159.795 274.166 159.87 274.253 159.87 274.4C159.87 274.583 159.708 274.694 159.453 274.694C159.207 274.694 159.057 274.583 159.054 274.397H158.67C158.679 274.79 158.985 275.039 159.453 275.039C159.936 275.039 160.254 274.775 160.254 274.367C160.254 274.04 160.071 273.848 159.696 273.767L159.351 273.692C159.168 273.65 159.084 273.563 159.084 273.407C159.084 273.224 159.237 273.11 159.474 273.11C159.69 273.11 159.825 273.221 159.834 273.41H160.218C160.206 273.014 159.924 272.768 159.48 272.768C159.018 272.768 158.7 273.035 158.7 273.419ZM160.46 274.256C160.46 274.727 160.754 275.039 161.204 275.039C161.591 275.039 161.879 274.802 161.924 274.457H161.555C161.516 274.619 161.387 274.709 161.204 274.709C160.97 274.709 160.826 274.535 160.826 274.256C160.826 273.977 160.982 273.8 161.216 273.8C161.39 273.8 161.513 273.887 161.555 274.055H161.921C161.882 273.698 161.606 273.473 161.201 273.473C160.763 273.473 160.46 273.797 160.46 274.256ZM162.637 275.039C162.868 275.039 163.069 274.934 163.132 274.781L163.159 275H163.48V274.1C163.48 273.689 163.234 273.473 162.835 273.473C162.433 273.473 162.169 273.683 162.169 274.004H162.481C162.481 273.848 162.601 273.758 162.817 273.758C163.003 273.758 163.123 273.839 163.123 274.04V274.073L162.679 274.106C162.328 274.133 162.13 274.304 162.13 274.577C162.13 274.856 162.322 275.039 162.637 275.039ZM162.757 274.763C162.592 274.763 162.502 274.697 162.502 274.562C162.502 274.442 162.589 274.367 162.817 274.346L163.126 274.322V274.4C163.126 274.628 162.982 274.763 162.757 274.763ZM164.206 275V274.202C164.206 273.962 164.344 273.806 164.569 273.806C164.758 273.806 164.881 273.926 164.881 274.175V275H165.247V274.088C165.247 273.704 165.055 273.473 164.683 273.473C164.482 273.473 164.302 273.56 164.209 273.71L164.179 273.518H163.84V275H164.206Z" fill="#1E1E1E"/>
<circle cx="21.5" cy="261.5" r="4.25" fill="#C0A3BA" stroke="black" stroke-width="0.5"/>
<path d="M22.6399 259.872H23.454V260.686" stroke="#1E1E1E" stroke-width="0.5" stroke-linecap="round" stroke-linejoin="round"/>
<path d="M20.3603 263.128H19.5461V262.314" stroke="#1E1E1E" stroke-width="0.5" stroke-linecap="round" stroke-linejoin="round"/>
<path d="M23.454 262.314V263.128H22.6399" stroke="#1E1E1E" stroke-width="0.5" stroke-linecap="round" stroke-linejoin="round"/>
<path d="M19.5461 260.686V259.872H20.3603" stroke="#1E1E1E" stroke-width="0.5" stroke-linecap="round" stroke-linejoin="round"/>
<path d="M20.5232 260.686V262.314" stroke="#1E1E1E" stroke-width="0.5" stroke-linecap="round" stroke-linejoin="round"/>
<path d="M22.4773 260.686V262.314" stroke="#1E1E1E" stroke-width="0.5" stroke-linecap="round" stroke-linejoin="round"/>
<path d="M21.8262 260.686V262.314" stroke="#1E1E1E" stroke-width="0.5" stroke-linecap="round" stroke-linejoin="round"/>
<path d="M21.1743 260.686V262.314" stroke="#1E1E1E" stroke-width="0.5" stroke-linecap="round" stroke-linejoin="round"/>
<circle cx="56.5" cy="261.5" r="4.25" fill="#FF9393" stroke="black" stroke-width="0.5"/>
<path opacity="0.2" d="M54.625 261.344H55.7344C55.7704 261.344 55.8053 261.356 55.8331 261.379C55.8609 261.402 55.8799 261.433 55.8867 261.469C55.9166 261.609 55.9938 261.735 56.1054 261.826C56.217 261.916 56.3563 261.965 56.5 261.965C56.6437 261.965 56.783 261.916 56.8946 261.826C57.0062 261.735 57.0834 261.609 57.1133 261.469C57.1201 261.433 57.1391 261.402 57.1669 261.379C57.1947 261.356 57.2296 261.344 57.2656 261.344H58.375V260.406C58.375 260.323 58.3421 260.244 58.2835 260.185C58.2249 260.127 58.1454 260.094 58.0625 260.094H54.9375C54.8546 260.094 54.7751 260.127 54.7165 260.185C54.6579 260.244 54.625 260.323 54.625 260.406V261.344Z" fill="black"/>
<path d="M58.0625 260.094H54.9375C54.7649 260.094 54.625 260.234 54.625 260.406V262.594C54.625 262.766 54.7649 262.906 54.9375 262.906H58.0625C58.2351 262.906 58.375 262.766 58.375 262.594V260.406C58.375 260.234 58.2351 260.094 58.0625 260.094Z" stroke="black" stroke-width="0.5" stroke-linecap="round" stroke-linejoin="round"/>
<path d="M54.625 261.344H55.7344C55.7704 261.344 55.8053 261.356 55.8331 261.379C55.8609 261.402 55.8799 261.433 55.8867 261.469C55.9166 261.609 55.9938 261.735 56.1054 261.826C56.217 261.916 56.3563 261.965 56.5 261.965C56.6437 261.965 56.783 261.916 56.8946 261.826C57.0062 261.735 57.0834 261.609 57.1133 261.469C57.1201 261.433 57.1391 261.402 57.1669 261.379C57.1947 261.356 57.2296 261.344 57.2656 261.344H58.375" stroke="black" stroke-width="0.5" stroke-linecap="round" stroke-linejoin="round"/>
<path d="M54.625 260.719H58.375" stroke="black" stroke-width="0.5" stroke-linecap="round" stroke-linejoin="round"/>
<circle cx="91.5" cy="261.5" r="4.25" fill="#EEFFAC" stroke="black" stroke-width="0.5"/>
<path opacity="0.2" d="M90.5625 262.125C90.9077 262.125 91.1875 261.845 91.1875 261.5C91.1875 261.155 90.9077 260.875 90.5625 260.875C90.2173 260.875 89.9375 261.155 89.9375 261.5C89.9375 261.845 90.2173 262.125 90.5625 262.125Z" fill="#1E1E1E"/>
<path d="M92.4375 260.25H90.5625C89.8721 260.25 89.3125 260.81 89.3125 261.5C89.3125 262.19 89.8721 262.75 90.5625 262.75H92.4375C93.1279 262.75 93.6875 262.19 93.6875 261.5C93.6875 260.81 93.1279 260.25 92.4375 260.25Z" stroke="#1E1E1E" stroke-width="0.5" stroke-linecap="round" stroke-linejoin="round"/>
<path d="M90.5625 262.125C90.9077 262.125 91.1875 261.845 91.1875 261.5C91.1875 261.155 90.9077 260.875 90.5625 260.875C90.2173 260.875 89.9375 261.155 89.9375 261.5C89.9375 261.845 90.2173 262.125 90.5625 262.125Z" stroke="#1E1E1E" stroke-width="0.5" stroke-linecap="round" stroke-linejoin="round"/>
<circle cx="126.5" cy="261.5" r="4.25" fill="#FFAA6C" stroke="black" stroke-width="0.5"/>
<path opacity="0.2" d="M126.5 259.469C126.044 259.469 125.607 259.65 125.285 259.972C124.962 260.294 124.781 260.732 124.781 261.188C124.781 262.137 125.875 263.531 126.5 263.531C127.125 263.531 128.219 262.137 128.219 261.188C128.219 260.732 128.038 260.294 127.715 259.972C127.393 259.65 126.956 259.469 126.5 259.469ZM126.188 261.734C126.188 261.776 126.171 261.816 126.142 261.845C126.112 261.874 126.073 261.891 126.031 261.891C125.865 261.891 125.707 261.825 125.589 261.708C125.472 261.59 125.406 261.431 125.406 261.266V261.188C125.406 261.146 125.423 261.106 125.452 261.077C125.481 261.048 125.521 261.031 125.562 261.031C125.728 261.031 125.887 261.097 126.004 261.214C126.122 261.332 126.188 261.49 126.188 261.656V261.734ZM127.594 261.266C127.594 261.431 127.528 261.59 127.411 261.708C127.293 261.825 127.135 261.891 126.969 261.891C126.927 261.891 126.888 261.874 126.858 261.845C126.829 261.816 126.812 261.776 126.812 261.734V261.656C126.812 261.49 126.878 261.332 126.996 261.214C127.113 261.097 127.272 261.031 127.438 261.031C127.479 261.031 127.519 261.048 127.548 261.077C127.577 261.106 127.594 261.146 127.594 261.188V261.266Z" fill="black"/>
<path d="M128.219 261.188C128.219 262.137 127.125 263.531 126.5 263.531C125.875 263.531 124.781 262.137 124.781 261.188C124.781 260.732 124.962 260.294 125.285 259.972C125.607 259.65 126.044 259.469 126.5 259.469C126.956 259.469 127.393 259.65 127.715 259.972C128.038 260.294 128.219 260.732 128.219 261.188V261.188Z" stroke="black" stroke-width="0.5" stroke-linecap="round" stroke-linejoin="round"/>
<path d="M126.031 261.891C125.865 261.891 125.707 261.825 125.589 261.708C125.472 261.59 125.406 261.431 125.406 261.266V261.188C125.406 261.146 125.423 261.106 125.452 261.077C125.481 261.048 125.521 261.031 125.562 261.031C125.728 261.031 125.887 261.097 126.004 261.214C126.122 261.332 126.188 261.49 126.188 261.656V261.734C126.188 261.776 126.171 261.816 126.142 261.845C126.112 261.874 126.073 261.891 126.031 261.891V261.891Z" stroke="black" stroke-width="0.5" stroke-linecap="round" stroke-linejoin="round"/>
<path d="M127.438 261.031C127.479 261.031 127.519 261.048 127.548 261.077C127.577 261.106 127.594 261.146 127.594 261.188V261.266C127.594 261.431 127.528 261.59 127.411 261.708C127.293 261.825 127.135 261.891 126.969 261.891C126.927 261.891 126.888 261.874 126.858 261.845C126.829 261.816 126.812 261.776 126.812 261.734V261.656C126.812 261.49 126.878 261.332 126.996 261.214C127.113 261.097 127.272 261.031 127.438 261.031Z" stroke="black" stroke-width="0.5" stroke-linecap="round" stroke-linejoin="round"/>
<path d="M126.188 262.594H126.812" stroke="black" stroke-width="0.5" stroke-linecap="round" stroke-linejoin="round"/>
<rect x="51.25" y="146.25" width="5.5" height="44.5" rx="2.75" stroke="#1E1E1E" stroke-width="0.5"/>
<rect x="51.25" y="166.738" width="5.5" height="24.0122" rx="2.75" fill="#FFD92C" stroke="#1E1E1E" stroke-width="0.5"/>
<rect x="67.25" y="76.25" width="5.5" height="114.5" rx="2.75" stroke="#1E1E1E" stroke-width="0.5"/>
<rect x="67.25" y="128.764" width="5.5" height="61.9855" rx="2.75" fill="#E98F8D" stroke="#1E1E1E" stroke-width="0.5"/>
<rect x="82.25" y="105.25" width="5.5" height="85.5" rx="2.75" fill="#9AE4D4" stroke="#1E1E1E" stroke-width="0.5"/>
<rect x="98.25" y="92.25" width="5.5" height="98.5" rx="2.75" stroke="#1E1E1E" stroke-width="0.5"/>
<rect x="98.25" y="162.808" width="5.5" height="27.942" rx="2.75" fill="#BFBEF7" stroke="#1E1E1E" stroke-width="0.5"/>
<rect x="114.25" y="88.25" width="5.5" height="102.5" rx="2.75" stroke="#1E1E1E" stroke-width="0.5"/>
<rect x="114.25" y="165.25" width="5.5" height="25.5" rx="2.75" fill="#FFD92C" stroke="#1E1E1E" stroke-width="0.5"/>
<rect x="130.25" y="123.25" width="5.5" height="66.5" rx="2.75" stroke="#1E1E1E" stroke-width="0.5"/>
<rect x="130.25" y="158.25" width="5.5" height="32.5" rx="2.75" fill="#E98F8D" stroke="#1E1E1E" stroke-width="0.5"/>
</g>
<defs>
<clipPath id="clip0_2_521">
<rect width="160" height="317" fill="white"/>
</clipPath>
</defs>
</svg>
