<svg width="181" height="318" viewBox="0 0 181 318" fill="none" xmlns="http://www.w3.org/2000/svg">
<path d="M11 23C11 10.8497 20.8497 1 33 1H147C159.15 1 169 10.8497 169 23V294C169 306.15 159.15 316 147 316H33C20.8497 316 11 306.15 11 294V23Z" fill="white" stroke="#1E1E1E" stroke-width="2"/>
<g filter="url(#filter0_b_2_618)">
<path d="M10 23C10 10.2974 20.2975 0 33 0H147C159.703 0 170 10.2975 170 23V294C170 306.703 159.703 317 147 317H33C20.2975 317 10 306.703 10 294V23Z" fill="white" fill-opacity="0.01"/>
<path d="M10.5 23C10.5 10.5736 20.5736 0.5 33 0.5H147C159.426 0.5 169.5 10.5736 169.5 23V294C169.5 306.426 159.426 316.5 147 316.5H33C20.5736 316.5 10.5 306.426 10.5 294V23Z" stroke="black"/>
</g>
<mask id="path-4-inside-1_2_618" fill="white">
<path fill-rule="evenodd" clip-rule="evenodd" d="M47 31C36.5066 31 28 39.5066 28 50V58.0952V267C28 268.64 28.2077 270.231 28.5982 271.748C30.7068 279.944 38.1462 286 47 286H153V267V58.0952V50C153 39.5066 144.493 31 134 31H47Z"/>
</mask>
<path fill-rule="evenodd" clip-rule="evenodd" d="M47 31C36.5066 31 28 39.5066 28 50V58.0952V267C28 268.64 28.2077 270.231 28.5982 271.748C30.7068 279.944 38.1462 286 47 286H153V267V58.0952V50C153 39.5066 144.493 31 134 31H47Z" fill="white"/>
<path d="M28.5982 271.748L27.6297 271.998H27.6297L28.5982 271.748ZM153 286V287H154V286H153ZM29 50C29 40.0589 37.0589 32 47 32V30C35.9543 30 27 38.9543 27 50H29ZM29 58.0952V50H27V58.0952H29ZM29 267V58.0952H27V267H29ZM29.5666 271.499C29.1969 270.062 29 268.555 29 267H27C27 268.724 27.2185 270.399 27.6297 271.998L29.5666 271.499ZM47 285C38.6135 285 31.5643 279.264 29.5666 271.499L27.6297 271.998C29.8493 280.624 37.6788 287 47 287V285ZM153 285H47V287H153V285ZM152 267V286H154V267H152ZM152 58.0952V267H154V58.0952H152ZM152 50V58.0952H154V50H152ZM134 32C143.941 32 152 40.0589 152 50H154C154 38.9543 145.046 30 134 30V32ZM47 32H134V30H47V32Z" fill="#1E1E1E" mask="url(#path-4-inside-1_2_618)"/>
<path d="M143.217 311.981H61.5391C60.6649 311.981 59.9562 312.43 59.9562 312.984C59.9562 313.538 60.6649 313.987 61.5391 313.987H143.217C144.091 313.987 144.8 313.538 144.8 312.984C144.8 312.43 144.091 311.981 143.217 311.981Z" fill="black"/>
<rect x="40.4424" y="64.5603" width="102.308" height="36.1895" rx="1.75" fill="white" stroke="#1E1E1E" stroke-width="0.5"/>
<rect x="39.25" y="63.25" width="102.308" height="36.1895" rx="1.75" fill="#FFD9D9" stroke="#1E1E1E" stroke-width="0.5"/>
<rect x="40.4424" y="218.56" width="102.308" height="36.1895" rx="1.75" fill="white" stroke="#1E1E1E" stroke-width="0.5"/>
<rect x="39.25" y="217.25" width="102.308" height="36.1895" rx="1.75" fill="#7EE7D6" stroke="#1E1E1E" stroke-width="0.5"/>
<path d="M50.745 91.2008V94.2808H51.36V90.6258H49.945V91.2008H50.745ZM51.9822 92.4608C51.9822 93.5908 52.5572 94.3458 53.5272 94.3458C54.4972 94.3458 55.0772 93.5908 55.0772 92.4608C55.0772 91.3258 54.4622 90.5558 53.5272 90.5558C52.5922 90.5558 51.9822 91.3258 51.9822 92.4608ZM52.6122 92.4608C52.6122 91.5958 52.9522 91.1208 53.5272 91.1208C54.1072 91.1208 54.4472 91.5958 54.4472 92.4608C54.4472 93.3058 54.1072 93.7808 53.5272 93.7808C52.9522 93.7808 52.6122 93.3058 52.6122 92.4608ZM57.3726 91.5158C57.3726 90.9558 56.9726 90.5558 56.4176 90.5558C55.8626 90.5558 55.4626 90.9558 55.4626 91.5158C55.4626 92.0808 55.8626 92.4758 56.4176 92.4758C56.9726 92.4758 57.3726 92.0808 57.3726 91.5158ZM59.3776 90.6308H58.7676L55.9926 94.2808H56.6026L59.3776 90.6308ZM56.8876 91.5158C56.8876 91.8058 56.6976 92.0058 56.4176 92.0058C56.1426 92.0058 55.9526 91.8058 55.9526 91.5158C55.9526 91.2258 56.1376 91.0258 56.4176 91.0258C56.6976 91.0258 56.8876 91.2258 56.8876 91.5158ZM59.9126 93.3858C59.9126 92.8258 59.5176 92.4258 58.9626 92.4258C58.4026 92.4258 58.0076 92.8258 58.0076 93.3858C58.0076 93.9458 58.4026 94.3458 58.9626 94.3458C59.5176 94.3458 59.9126 93.9458 59.9126 93.3858ZM59.4276 93.3858C59.4276 93.6758 59.2376 93.8758 58.9626 93.8758C58.6826 93.8758 58.4926 93.6758 58.4926 93.3858C58.4926 93.0958 58.6826 92.8958 58.9626 92.8958C59.2376 92.8958 59.4276 93.0958 59.4276 93.3858ZM61.6052 93.0408C61.6052 93.8108 62.1602 94.3408 62.9252 94.3408C63.6902 94.3408 64.2452 93.8108 64.2452 93.0408C64.2452 92.2708 63.6902 91.7408 62.9252 91.7408C62.1602 91.7408 61.6052 92.2708 61.6052 93.0408ZM62.2152 93.0408C62.2152 92.5908 62.5052 92.2858 62.9252 92.2858C63.3452 92.2858 63.6352 92.5908 63.6352 93.0408C63.6352 93.4908 63.3452 93.7958 62.9252 93.7958C62.5052 93.7958 62.2152 93.4908 62.2152 93.0408ZM64.4739 91.8108V92.3208H64.8289V94.2808H65.4339V92.3208H66.0239V91.8108H65.4339V91.5108C65.4339 91.2658 65.5089 91.1058 65.8189 91.1058H66.0339V90.5858C65.9289 90.5658 65.8139 90.5608 65.7189 90.5608C65.1839 90.5608 64.8289 90.8408 64.8289 91.5108V91.8108H64.4739ZM67.5709 93.5308C67.5709 94.0158 67.9609 94.3458 68.5759 94.3458C69.1859 94.3458 69.6109 94.0358 69.6109 93.5358C69.6109 93.1558 69.4009 92.9658 68.9859 92.8708L68.5409 92.7658C68.3309 92.7158 68.2209 92.6258 68.2209 92.4858C68.2209 92.3008 68.3609 92.1908 68.6009 92.1908C68.8359 92.1908 68.9759 92.3258 68.9809 92.5358H69.5609C69.5559 92.0558 69.1809 91.7358 68.6259 91.7358C68.0559 91.7358 67.6459 92.0258 67.6459 92.5108C67.6459 92.9058 67.8609 93.1158 68.3059 93.2158L68.7509 93.3208C68.9709 93.3708 69.0359 93.4608 69.0359 93.5858C69.0359 93.7658 68.8809 93.8808 68.5959 93.8808C68.3159 93.8808 68.1559 93.7458 68.1509 93.5308H67.5709ZM70.0753 95.4258H70.6853V93.9508C70.8403 94.2008 71.1603 94.3458 71.5303 94.3458C72.2653 94.3458 72.6853 93.7858 72.6853 93.0158C72.6853 92.2408 72.2253 91.7358 71.5303 91.7358C71.1553 91.7358 70.8303 91.9008 70.6803 92.1858L70.6403 91.8108H70.0753V95.4258ZM70.6903 93.0458C70.6903 92.6008 70.9653 92.2908 71.3853 92.2908C71.8153 92.2908 72.0703 92.6058 72.0703 93.0458C72.0703 93.4858 71.8153 93.7958 71.3853 93.7958C70.9653 93.7958 70.6903 93.4908 70.6903 93.0458ZM74.276 94.3458C74.921 94.3458 75.371 94.0208 75.476 93.4808H74.911C74.841 93.7158 74.621 93.8458 74.286 93.8458C73.881 93.8458 73.651 93.6258 73.606 93.1908L75.466 93.1858V93.0008C75.466 92.2308 74.996 91.7358 74.256 91.7358C73.531 91.7358 73.026 92.2708 73.026 93.0458C73.026 93.8108 73.541 94.3458 74.276 94.3458ZM74.261 92.2358C74.626 92.2358 74.861 92.4608 74.861 92.8008H73.621C73.681 92.4308 73.901 92.2358 74.261 92.2358ZM76.5643 94.2808V92.9508C76.5643 92.5508 76.7943 92.2908 77.1693 92.2908C77.4843 92.2908 77.6893 92.4908 77.6893 92.9058V94.2808H78.2993V92.7608C78.2993 92.1208 77.9793 91.7358 77.3593 91.7358C77.0243 91.7358 76.7243 91.8808 76.5693 92.1308L76.5193 91.8108H75.9543V94.2808H76.5643ZM79.9136 94.3458C80.2886 94.3458 80.6086 94.1808 80.7586 93.8958L80.7986 94.2808H81.3586V90.5608H80.7536V92.1258C80.5986 91.8808 80.2936 91.7358 79.9486 91.7358C79.2036 91.7358 78.7536 92.2858 78.7536 93.0558C78.7536 93.8208 79.1986 94.3458 79.9136 94.3458ZM80.0486 93.7858C79.6236 93.7858 79.3636 93.4758 79.3636 93.0358C79.3636 92.5958 79.6236 92.2808 80.0486 92.2808C80.4736 92.2808 80.7486 92.5908 80.7486 93.0358C80.7486 93.4808 80.4736 93.7858 80.0486 93.7858ZM82.2993 91.3158C82.4993 91.3158 82.6643 91.1508 82.6643 90.9458C82.6643 90.7408 82.4993 90.5808 82.2993 90.5808C82.0893 90.5808 81.9243 90.7408 81.9243 90.9458C81.9243 91.1508 82.0893 91.3158 82.2993 91.3158ZM81.9943 94.2808H82.6043V91.8108H81.9943V94.2808ZM83.8445 94.2808V92.9508C83.8445 92.5508 84.0745 92.2908 84.4495 92.2908C84.7645 92.2908 84.9695 92.4908 84.9695 92.9058V94.2808H85.5795V92.7608C85.5795 92.1208 85.2595 91.7358 84.6395 91.7358C84.3045 91.7358 84.0045 91.8808 83.8495 92.1308L83.7995 91.8108H83.2345V94.2808H83.8445ZM86.0389 92.9908C86.0389 93.7058 86.4989 94.2308 87.1989 94.2308C87.5539 94.2308 87.8589 94.0858 88.0139 93.8558V94.2658C88.0139 94.6758 87.7439 94.9408 87.3239 94.9408C86.9489 94.9408 86.7039 94.7508 86.6639 94.4308H86.0539C86.1289 95.0908 86.6139 95.4958 87.3239 95.4958C88.1239 95.4958 88.6189 94.9808 88.6189 94.1558V91.8108H88.0539L88.0189 92.1508C87.8739 91.8858 87.5839 91.7308 87.2139 91.7308C86.5089 91.7308 86.0389 92.2708 86.0389 92.9908ZM86.6539 92.9758C86.6539 92.5708 86.9139 92.2658 87.3189 92.2658C87.7439 92.2658 87.9989 92.5558 87.9989 92.9758C87.9989 93.4058 87.7389 93.7008 87.3189 93.7008C86.9189 93.7008 86.6539 93.3908 86.6539 92.9758Z" fill="#1E1E1E"/>
<path d="M63.6488 248.767H64.3088L65.6688 245.112H65.0038L64.2138 247.217C64.1438 247.402 64.0688 247.627 63.9788 247.947C63.8988 247.652 63.8288 247.437 63.7488 247.217L62.9488 245.112H62.2688L63.6488 248.767ZM66.3397 245.802C66.5397 245.802 66.7047 245.637 66.7047 245.432C66.7047 245.227 66.5397 245.067 66.3397 245.067C66.1297 245.067 65.9647 245.227 65.9647 245.432C65.9647 245.637 66.1297 245.802 66.3397 245.802ZM66.0347 248.767H66.6447V246.297H66.0347V248.767ZM68.38 248.832C69.025 248.832 69.475 248.507 69.58 247.967H69.015C68.945 248.202 68.725 248.332 68.39 248.332C67.985 248.332 67.755 248.112 67.71 247.677L69.57 247.672V247.487C69.57 246.717 69.1 246.222 68.36 246.222C67.635 246.222 67.13 246.757 67.13 247.532C67.13 248.297 67.645 248.832 68.38 248.832ZM68.365 246.722C68.73 246.722 68.965 246.947 68.965 247.287H67.725C67.785 246.917 68.005 246.722 68.365 246.722ZM70.4957 248.767H71.0907L71.4307 247.707C71.5557 247.302 71.6007 247.127 71.6257 247.012C71.6457 247.137 71.7007 247.372 71.8007 247.697L72.1407 248.767H72.7107L73.5657 246.297H72.9207L72.5907 247.357C72.5457 247.512 72.4657 247.807 72.4257 247.992C72.3957 247.827 72.2957 247.457 72.2657 247.357L71.9357 246.297H71.3157L70.9757 247.357C70.8957 247.602 70.8507 247.757 70.8057 247.997C70.7607 247.767 70.7107 247.552 70.6557 247.357L70.3307 246.297H69.6957L70.4957 248.767ZM75.3728 248.767H76.8528C77.6078 248.767 78.0428 248.402 78.0428 247.777C78.0428 247.352 77.8478 247.062 77.4628 246.937C77.8078 246.792 77.9878 246.502 77.9878 246.097C77.9878 245.487 77.5478 245.112 76.8278 245.112H75.3728V248.767ZM76.7728 245.677C77.1328 245.677 77.3328 245.847 77.3328 246.162C77.3328 246.487 77.1378 246.672 76.7878 246.672H76.0128V245.677H76.7728ZM76.8278 247.212C77.1828 247.212 77.3878 247.387 77.3878 247.697C77.3878 248.027 77.1878 248.202 76.8278 248.202H76.0128V247.212H76.8278ZM80.2146 246.297V247.592C80.2146 248.062 80.0296 248.287 79.6446 248.287C79.3046 248.287 79.1196 248.097 79.1196 247.627V246.297H78.5096V247.842C78.5096 248.447 78.8446 248.832 79.4146 248.832C79.7446 248.832 80.0646 248.672 80.2146 248.437L80.2596 248.767H80.8246V246.297H80.2146ZM82.4208 248.832C82.7958 248.832 83.1158 248.667 83.2658 248.382L83.3058 248.767H83.8658V245.047H83.2608V246.612C83.1058 246.367 82.8008 246.222 82.4558 246.222C81.7108 246.222 81.2608 246.772 81.2608 247.542C81.2608 248.307 81.7058 248.832 82.4208 248.832ZM82.5558 248.272C82.1308 248.272 81.8708 247.962 81.8708 247.522C81.8708 247.082 82.1308 246.767 82.5558 246.767C82.9808 246.767 83.2558 247.077 83.2558 247.522C83.2558 247.967 82.9808 248.272 82.5558 248.272ZM84.3615 247.477C84.3615 248.192 84.8215 248.717 85.5215 248.717C85.8765 248.717 86.1815 248.572 86.3365 248.342V248.752C86.3365 249.162 86.0665 249.427 85.6465 249.427C85.2715 249.427 85.0265 249.237 84.9865 248.917H84.3765C84.4515 249.577 84.9365 249.982 85.6465 249.982C86.4465 249.982 86.9415 249.467 86.9415 248.642V246.297H86.3765L86.3415 246.637C86.1965 246.372 85.9065 246.217 85.5365 246.217C84.8315 246.217 84.3615 246.757 84.3615 247.477ZM84.9765 247.462C84.9765 247.057 85.2365 246.752 85.6415 246.752C86.0665 246.752 86.3215 247.042 86.3215 247.462C86.3215 247.892 86.0615 248.187 85.6415 248.187C85.2415 248.187 84.9765 247.877 84.9765 247.462ZM88.6778 248.832C89.3228 248.832 89.7728 248.507 89.8778 247.967H89.3128C89.2428 248.202 89.0228 248.332 88.6878 248.332C88.2828 248.332 88.0528 248.112 88.0078 247.677L89.8678 247.672V247.487C89.8678 246.717 89.3978 246.222 88.6578 246.222C87.9328 246.222 87.4278 246.757 87.4278 247.532C87.4278 248.297 87.9428 248.832 88.6778 248.832ZM88.6628 246.722C89.0278 246.722 89.2628 246.947 89.2628 247.287H88.0228C88.0828 246.917 88.3028 246.722 88.6628 246.722ZM91.1716 248.767V246.807H91.6516V246.297H91.1716V245.527H90.5616V246.297H90.0866V246.807H90.5616V248.767H91.1716Z" fill="#1E1E1E"/>
<path d="M99.9135 94.2966C99.8205 94.2966 99.7274 94.2721 99.6565 94.2231C99.5145 94.1251 99.5145 93.9665 99.6565 93.8685L101.218 92.7919L99.6565 91.7152C99.5145 91.6172 99.5145 91.4585 99.6565 91.3606C99.7986 91.2626 100.029 91.2626 100.171 91.3606L101.989 92.6144C102.131 92.7124 102.131 92.8711 101.989 92.969L100.171 94.2229C100.1 94.2723 100.007 94.2966 99.9135 94.2966Z" fill="#1E1E1E"/>
<path d="M99.9135 248.782C99.8205 248.782 99.7274 248.758 99.6565 248.709C99.5145 248.611 99.5145 248.452 99.6565 248.354L101.218 247.278L99.6565 246.201C99.5145 246.103 99.5145 245.944 99.6565 245.846C99.7986 245.748 100.029 245.748 100.171 245.846L101.989 247.1C102.131 247.198 102.131 247.357 101.989 247.455L100.171 248.709C100.1 248.758 100.007 248.782 99.9135 248.782Z" fill="#1E1E1E"/>
<path d="M45.4487 55.1514V52.8904L45.4067 52.0294H45.4767L46.0717 52.9114L47.8007 55.1514H48.9207V50.4614H47.8707V52.7224L47.9197 53.6674H47.8427L47.1987 52.6804L45.5187 50.4614H44.3987V55.1514H45.4487ZM51.3468 55.2214C52.5438 55.2214 53.3488 54.5074 53.3488 53.4014C53.3488 52.2814 52.5438 51.5744 51.3468 51.5744C50.1498 51.5744 49.3448 52.2814 49.3448 53.4014C49.3448 54.5074 50.1498 55.2214 51.3468 55.2214ZM51.3468 54.2904C50.6328 54.2904 50.3878 54.0174 50.3878 53.4014C50.3878 52.7854 50.6328 52.4984 51.3468 52.4984C52.0538 52.4984 52.3058 52.7854 52.3058 53.4014C52.3058 54.0174 52.0538 54.2904 51.3468 54.2904ZM56.2487 55.1514V54.2064H55.6187C55.2477 54.2064 55.1147 54.1154 55.1147 53.7654V52.5124H56.2487V51.6444H55.1147V50.9654H54.0647V51.6444H53.5117V52.5124H54.0647V53.8844C54.0647 54.7664 54.5617 55.1514 55.3807 55.1514H56.2487ZM57.6919 51.2874V50.4614H56.6419V51.2874H57.6919ZM57.6919 55.1514V51.6444H56.6419V55.1514H57.6919ZM59.5715 55.1514V52.5124H60.6565V51.6444H59.5295C59.5015 51.3014 59.7185 51.2244 60.1805 51.2244H60.6565V50.4614H60.3485C59.2705 50.4614 58.6545 50.9374 58.5425 51.6444H58.0245V52.5124H58.5215V55.1514H59.5715ZM62.0565 51.2874V50.4614H61.0065V51.2874H62.0565ZM62.0565 55.1514V51.6444H61.0065V55.1514H62.0565ZM64.4787 55.2214C65.6057 55.2214 66.3757 54.6124 66.3757 53.7094V53.6114H65.3327V53.6674C65.3327 54.1154 65.0037 54.2764 64.4577 54.2764C63.8347 54.2764 63.5477 54.0454 63.5477 53.4014C63.5477 52.7504 63.8347 52.5194 64.4577 52.5194C65.0037 52.5194 65.3327 52.6804 65.3327 53.1284V53.1844H66.3757V53.0864C66.3757 52.1764 65.6057 51.5744 64.4787 51.5744C63.2747 51.5744 62.5047 52.2814 62.5047 53.4014C62.5047 54.5074 63.2747 55.2214 64.4787 55.2214ZM67.9055 55.2214C68.6825 55.2214 69.1725 54.8924 69.3335 54.3464H69.3895V55.1514H70.3695V53.0934C70.3695 52.1764 69.8165 51.5744 68.6475 51.5744C67.4925 51.5744 66.7645 52.1764 66.7645 53.0444V53.0654H67.8215V53.0374C67.8215 52.6384 68.0385 52.4984 68.5705 52.4984C69.1305 52.4984 69.3335 52.6244 69.3335 53.0794V53.2124L67.8285 53.3664C67.0795 53.4434 66.6945 53.7654 66.6945 54.2834C66.6945 54.8714 67.1495 55.2214 67.9055 55.2214ZM67.7515 54.2134C67.7515 54.0454 67.8635 53.9754 68.1155 53.9544L69.3335 53.8144C69.3055 54.3114 68.9205 54.4794 68.2065 54.4794C67.8985 54.4794 67.7515 54.4024 67.7515 54.2134ZM73.3727 55.1514V54.2064H72.7427C72.3717 54.2064 72.2387 54.1154 72.2387 53.7654V52.5124H73.3727V51.6444H72.2387V50.9654H71.1887V51.6444H70.6357V52.5124H71.1887V53.8844C71.1887 54.7664 71.6857 55.1514 72.5047 55.1514H73.3727ZM74.8159 51.2874V50.4614H73.7659V51.2874H74.8159ZM74.8159 55.1514V51.6444H73.7659V55.1514H74.8159ZM77.2345 55.2214C78.4315 55.2214 79.2365 54.5074 79.2365 53.4014C79.2365 52.2814 78.4315 51.5744 77.2345 51.5744C76.0375 51.5744 75.2325 52.2814 75.2325 53.4014C75.2325 54.5074 76.0375 55.2214 77.2345 55.2214ZM77.2345 54.2904C76.5205 54.2904 76.2755 54.0174 76.2755 53.4014C76.2755 52.7854 76.5205 52.4984 77.2345 52.4984C77.9415 52.4984 78.1935 52.7854 78.1935 53.4014C78.1935 54.0174 77.9415 54.2904 77.2345 54.2904ZM80.7153 55.1514V53.3804C80.7153 52.7854 80.9533 52.5194 81.6183 52.5194C82.2623 52.5194 82.4933 52.7574 82.4933 53.3174V55.1514H83.5433V52.9674C83.5433 52.1904 83.0883 51.5744 82.1293 51.5744C81.2123 51.5744 80.7923 52.1344 80.7013 52.7224H80.6383V51.6444H79.6653V55.1514H80.7153ZM85.8455 55.2214C86.9305 55.2214 87.5815 54.7874 87.5815 54.1294C87.5815 53.5484 87.2315 53.2334 86.2935 53.1284L85.5445 53.0374C85.0825 52.9814 84.9845 52.9044 84.9845 52.7224C84.9845 52.4984 85.1175 52.4074 85.6425 52.4074C86.2865 52.4074 86.4265 52.5544 86.4265 52.8414V52.8834H87.4765V52.8624C87.4765 52.0084 86.8255 51.5744 85.6775 51.5744C84.4735 51.5744 83.9485 52.0644 83.9485 52.6804C83.9485 53.2684 84.3405 53.5834 85.0405 53.6604L86.0275 53.7794C86.4405 53.8354 86.5455 53.8914 86.5455 54.0874C86.5455 54.2974 86.4125 54.3884 85.8525 54.3884C85.2575 54.3884 85.0615 54.3044 85.0615 53.9894V53.9264H84.0115V53.9474C84.0115 54.7594 84.6625 55.2214 85.8455 55.2214Z" fill="#1E1E1E"/>
<path d="M46.5267 126.445C48.0177 126.445 48.6127 125.759 48.6127 124.996C48.6127 124.352 48.2347 123.841 47.1847 123.673L45.8687 123.463C45.4767 123.393 45.3227 123.295 45.3227 123.022C45.3227 122.721 45.5537 122.574 46.3097 122.574C47.2407 122.574 47.4717 122.763 47.4717 123.211V123.309H48.5287V123.267C48.5287 122.28 47.8567 121.615 46.4147 121.615C44.8397 121.615 44.2657 122.357 44.2657 123.064C44.2657 123.827 44.7627 124.247 45.6027 124.38L46.9187 124.569C47.4017 124.653 47.5627 124.758 47.5627 125.045C47.5627 125.36 47.3667 125.486 46.5267 125.486C45.5747 125.486 45.3577 125.311 45.3577 124.877V124.751H44.3077V124.793C44.3077 125.885 45.1057 126.445 46.5267 126.445ZM50.0903 127.565V125.43H50.1393C50.2583 126.046 50.7063 126.445 51.5183 126.445C52.5753 126.445 53.1633 125.738 53.1633 124.625C53.1633 123.512 52.5613 122.798 51.4833 122.798C50.6573 122.798 50.2093 123.155 50.0833 123.827H50.0133V122.868H49.0403V127.565H50.0903ZM50.0903 124.674V124.618C50.0903 123.995 50.4403 123.764 51.1193 123.764C51.7843 123.764 52.0993 123.981 52.0993 124.625C52.0993 125.262 51.7843 125.486 51.1123 125.486C50.4543 125.486 50.0903 125.276 50.0903 124.674ZM55.4619 126.445C56.5749 126.445 57.3169 125.913 57.3169 125.15V125.073H56.2669V125.143C56.2669 125.444 56.0499 125.605 55.4269 125.605C54.7479 125.605 54.4959 125.374 54.4679 124.835H57.3239C57.3379 124.716 57.3519 124.625 57.3519 124.499C57.3519 123.4 56.5889 122.798 55.4409 122.798C54.2859 122.798 53.4949 123.505 53.4949 124.625C53.4949 125.871 54.2929 126.445 55.4619 126.445ZM55.4199 123.617C56.0359 123.617 56.3159 123.82 56.3439 124.282H54.4819C54.5309 123.827 54.7969 123.617 55.4199 123.617ZM58.8472 126.375V124.604C58.8472 124.009 59.0852 123.743 59.7502 123.743C60.3942 123.743 60.6252 123.981 60.6252 124.541V126.375H61.6752V124.191C61.6752 123.414 61.2202 122.798 60.2612 122.798C59.3442 122.798 58.9242 123.358 58.8332 123.946H58.7702V122.868H57.7972V126.375H58.8472ZM63.7744 126.445C64.5794 126.445 65.0414 126.095 65.1744 125.402H65.2304V126.375H66.2104V121.685H65.1604V123.799H65.0974C64.9784 123.211 64.5514 122.798 63.7184 122.798C62.6754 122.798 62.0804 123.505 62.0804 124.625C62.0804 125.731 62.6824 126.445 63.7744 126.445ZM63.1444 124.625C63.1444 123.981 63.4594 123.757 64.1314 123.757C64.8034 123.757 65.1604 123.981 65.1604 124.59V124.646C65.1604 125.255 64.7964 125.486 64.1314 125.486C63.4594 125.486 63.1444 125.262 63.1444 124.625ZM67.8159 122.511V121.685H66.7659V122.511H67.8159ZM67.8159 126.375V122.868H66.7659V126.375H67.8159ZM69.4155 126.375V124.604C69.4155 124.009 69.6535 123.743 70.3185 123.743C70.9625 123.743 71.1935 123.981 71.1935 124.541V126.375H72.2435V124.191C72.2435 123.414 71.7885 122.798 70.8295 122.798C69.9125 122.798 69.4925 123.358 69.4015 123.946H69.3385V122.868H68.3655V126.375H69.4155ZM74.3147 126.018C75.0987 126.018 75.5117 125.661 75.6237 125.143H75.6797V125.934C75.6797 126.62 75.4767 126.76 74.8047 126.76C74.0907 126.76 73.9367 126.641 73.9367 126.249H72.8867C72.8867 127.131 73.6007 127.635 74.7347 127.635C75.9877 127.635 76.7297 127.089 76.7297 125.864V122.868H75.7497V123.715H75.6937C75.5817 123.106 75.0707 122.798 74.3567 122.798C73.3067 122.798 72.6697 123.428 72.6697 124.408C72.6697 125.395 73.2717 126.018 74.3147 126.018ZM73.7267 124.408C73.7267 123.89 74.0207 123.708 74.6927 123.708C75.3437 123.708 75.6797 123.89 75.6797 124.366V124.443C75.6797 124.926 75.3507 125.115 74.6787 125.115C74.0207 125.115 73.7267 124.926 73.7267 124.408ZM79.0574 126.445C80.1424 126.445 80.7934 126.011 80.7934 125.353C80.7934 124.772 80.4434 124.457 79.5054 124.352L78.7564 124.261C78.2944 124.205 78.1964 124.128 78.1964 123.946C78.1964 123.722 78.3294 123.631 78.8544 123.631C79.4984 123.631 79.6384 123.778 79.6384 124.065V124.107H80.6884V124.086C80.6884 123.232 80.0374 122.798 78.8894 122.798C77.6854 122.798 77.1604 123.288 77.1604 123.904C77.1604 124.492 77.5524 124.807 78.2524 124.884L79.2394 125.003C79.6524 125.059 79.7574 125.115 79.7574 125.311C79.7574 125.521 79.6244 125.612 79.0644 125.612C78.4694 125.612 78.2734 125.528 78.2734 125.213V125.15H77.2234V125.171C77.2234 125.983 77.8744 126.445 79.0574 126.445Z" fill="#1E1E1E"/>
<path d="M47.3247 209.637C48.3747 209.637 48.8647 209.133 48.8647 208.335C48.8647 207.705 48.4447 207.271 47.5767 207.208V207.145C48.3607 207.089 48.6687 206.669 48.6687 206.088C48.6687 205.353 48.1507 204.947 47.1917 204.947H44.3777V209.637H47.3247ZM45.4277 205.892H47.0587C47.4507 205.892 47.6187 206.032 47.6187 206.354C47.6187 206.676 47.4577 206.809 47.0727 206.809H45.4277V205.892ZM45.4277 207.677H47.1987C47.6257 207.677 47.8007 207.81 47.8007 208.181C47.8007 208.559 47.6257 208.692 47.1987 208.692H45.4277V207.677ZM50.7013 209.707C51.6253 209.707 52.0523 209.154 52.1433 208.566H52.1993V209.637H53.1793V206.13H52.1293V207.908C52.1293 208.503 51.8843 208.769 51.1983 208.769C50.5333 208.769 50.2953 208.531 50.2953 207.964V206.13H49.2453V208.314C49.2453 209.098 49.7143 209.707 50.7013 209.707ZM55.2841 209.707C56.0891 209.707 56.5511 209.357 56.6841 208.664H56.7401V209.637H57.7201V204.947H56.6701V207.061H56.6071C56.4881 206.473 56.0611 206.06 55.2281 206.06C54.1851 206.06 53.5901 206.767 53.5901 207.887C53.5901 208.993 54.1921 209.707 55.2841 209.707ZM54.6541 207.887C54.6541 207.243 54.9691 207.019 55.6411 207.019C56.3131 207.019 56.6701 207.243 56.6701 207.852V207.908C56.6701 208.517 56.3061 208.748 55.6411 208.748C54.9691 208.748 54.6541 208.524 54.6541 207.887ZM59.8157 209.28C60.5997 209.28 61.0127 208.923 61.1247 208.405H61.1807V209.196C61.1807 209.882 60.9777 210.022 60.3057 210.022C59.5917 210.022 59.4377 209.903 59.4377 209.511H58.3877C58.3877 210.393 59.1017 210.897 60.2357 210.897C61.4887 210.897 62.2307 210.351 62.2307 209.126V206.13H61.2507V206.977H61.1947C61.0827 206.368 60.5717 206.06 59.8577 206.06C58.8077 206.06 58.1707 206.69 58.1707 207.67C58.1707 208.657 58.7727 209.28 59.8157 209.28ZM59.2277 207.67C59.2277 207.152 59.5217 206.97 60.1937 206.97C60.8447 206.97 61.1807 207.152 61.1807 207.628V207.705C61.1807 208.188 60.8517 208.377 60.1797 208.377C59.5217 208.377 59.2277 208.188 59.2277 207.67ZM64.6494 209.707C65.7624 209.707 66.5044 209.175 66.5044 208.412V208.335H65.4544V208.405C65.4544 208.706 65.2374 208.867 64.6144 208.867C63.9354 208.867 63.6834 208.636 63.6554 208.097H66.5114C66.5254 207.978 66.5394 207.887 66.5394 207.761C66.5394 206.662 65.7764 206.06 64.6284 206.06C63.4734 206.06 62.6824 206.767 62.6824 207.887C62.6824 209.133 63.4804 209.707 64.6494 209.707ZM64.6074 206.879C65.2234 206.879 65.5034 207.082 65.5314 207.544H63.6694C63.7184 207.089 63.9844 206.879 64.6074 206.879ZM69.4557 209.637V208.692H68.8257C68.4547 208.692 68.3217 208.601 68.3217 208.251V206.998H69.4557V206.13H68.3217V205.451H67.2717V206.13H66.7187V206.998H67.2717V208.37C67.2717 209.252 67.7687 209.637 68.5877 209.637H69.4557Z" fill="#1E1E1E"/>
<circle cx="130.5" cy="83.5" r="5.25" fill="#FF463E" stroke="#1E1E1E" stroke-width="0.5"/>
<circle cx="130.678" cy="83.3227" r="2.58871" fill="white" stroke="#1E1E1E" stroke-width="0.5"/>
<path d="M131.467 84.5486V84.1436H130.681L130.156 84.1946C130.156 84.0356 130.249 83.9786 130.444 83.9186L130.882 83.7986C131.239 83.6996 131.473 83.5226 131.473 83.1656C131.473 82.7846 131.227 82.5086 130.621 82.5086C129.952 82.5086 129.685 82.8626 129.685 83.2526V83.2916H130.126V83.2526C130.126 83.0306 130.237 82.9196 130.606 82.9196C130.936 82.9196 131.02 83.0066 131.02 83.1596C131.02 83.2916 130.954 83.3516 130.774 83.4146L130.258 83.5826C129.835 83.7236 129.682 83.9066 129.682 84.2606V84.5486H131.467Z" fill="#1E1E1E"/>
<circle cx="47.5" cy="235.5" r="5.5" fill="white"/>
<path d="M54.4781 234.816V235.066H54.7281H56.1101C56.1664 235.066 56.2213 235.077 56.2711 235.097C56.3202 235.116 56.3622 235.144 56.3953 235.176C56.4271 235.209 56.4491 235.246 56.4619 235.283C56.4748 235.32 56.4787 235.358 56.4738 235.396L56.1663 237.578C56.1662 237.578 56.1662 237.578 56.1662 237.578C56.1568 237.641 56.121 237.706 56.0555 237.758C55.9894 237.809 55.8997 237.841 55.8026 237.842H52.7206V237.728V235.726V235.564L52.7653 235.484L53.7196 233.792C53.9276 233.797 54.1211 233.872 54.261 233.996C54.4038 234.123 54.4776 234.287 54.4781 234.452V234.816Z" fill="#B7BEFF" stroke="#1E1E1E" stroke-width="0.5"/>
<rect x="39.1176" y="135.219" width="32.6323" height="50.5311" rx="5.75" stroke="#1E1E1E" stroke-width="0.5"/>
<rect x="38.25" y="134.25" width="32.6323" height="50.5311" rx="5.75" fill="#AAFF3E" stroke="#1E1E1E" stroke-width="0.5"/>
<path d="M47.734 166.105V165.541C48.706 165.427 49.102 164.899 49.102 164.323C49.102 163.771 48.778 163.333 47.878 163.189L46.75 163.009C46.414 162.949 46.282 162.865 46.282 162.631C46.282 162.373 46.48 162.247 47.128 162.247C47.926 162.247 48.124 162.409 48.124 162.793V162.877H49.03V162.841C49.03 162.121 48.616 161.605 47.734 161.461V160.885H46.894V161.437C45.79 161.533 45.376 162.115 45.376 162.667C45.376 163.321 45.802 163.681 46.522 163.795L47.65 163.957C48.064 164.029 48.202 164.119 48.202 164.365C48.202 164.635 48.034 164.743 47.314 164.743C46.498 164.743 46.312 164.593 46.312 164.221V164.113H45.412V164.149C45.412 164.971 45.94 165.439 46.894 165.541V166.105H47.734ZM51.4485 165.565C52.6425 165.565 53.2725 165.049 53.2725 164.245C53.2725 163.423 52.7205 163.021 51.7305 163.021C51.0105 163.021 50.5785 163.285 50.4105 163.609H50.3445V163.345C50.3445 162.523 50.6325 162.289 51.3705 162.289C51.9465 162.289 52.1745 162.427 52.1745 162.775V162.823H53.1765V162.775C53.1765 161.953 52.4685 161.425 51.3705 161.425C50.1705 161.425 49.3845 162.103 49.3845 163.501C49.3845 164.923 49.9845 165.565 51.4485 165.565ZM51.4005 164.701C50.6565 164.701 50.4165 164.527 50.4165 164.167C50.4165 163.807 50.6505 163.645 51.4065 163.645C52.1205 163.645 52.3305 163.807 52.3305 164.179C52.3305 164.533 52.1145 164.701 51.4005 164.701ZM55.5471 165.565C56.7231 165.565 57.4971 164.881 57.4971 163.471C57.4971 162.061 56.8971 161.425 55.4331 161.425C54.2391 161.425 53.6091 161.941 53.6091 162.745C53.6091 163.567 54.1611 163.969 55.1511 163.969C55.8711 163.969 56.3031 163.699 56.4711 163.369H56.5371V163.633C56.5371 164.461 56.2551 164.701 55.5471 164.701C54.9651 164.701 54.7431 164.563 54.7431 164.215V164.167H53.7411V164.215C53.7411 165.037 54.4431 165.565 55.5471 165.565ZM55.4811 163.345C54.7611 163.345 54.5511 163.183 54.5511 162.811C54.5511 162.457 54.7671 162.289 55.4811 162.289C56.2251 162.289 56.4651 162.463 56.4651 162.811C56.4651 163.177 56.2311 163.345 55.4811 163.345Z" fill="#1E1E1E"/>
<path d="M46.865 157.479C47.935 157.479 48.655 156.749 48.655 155.674C48.655 154.594 47.925 153.864 46.845 153.864H45.67V157.479H46.865ZM46.81 154.314C47.635 154.314 48.145 154.834 48.145 155.674C48.145 156.504 47.635 157.024 46.83 157.024H46.16V154.314H46.81ZM50.5984 155.014C50.5034 154.994 50.4334 154.984 50.3484 154.984C50.0134 154.984 49.7684 155.154 49.6684 155.409L49.6384 155.039H49.1984V157.479H49.6684V156.184C49.6684 155.714 49.9434 155.444 50.3884 155.444H50.5984V155.014ZM51.2692 154.454C51.4392 154.454 51.5792 154.314 51.5792 154.144C51.5792 153.969 51.4392 153.834 51.2692 153.834C51.0992 153.834 50.9592 153.969 50.9592 154.144C50.9592 154.314 51.0992 154.454 51.2692 154.454ZM51.0392 157.479H51.5092V155.034H51.0392V157.479ZM52.6166 157.479L52.6516 157.034C52.8116 157.369 53.1366 157.539 53.5216 157.539C54.2316 157.539 54.6716 157.009 54.6716 156.269C54.6716 155.514 54.2516 154.964 53.5516 154.964C53.1516 154.964 52.8216 155.134 52.6616 155.454V153.799H52.1916V157.479H52.6166ZM52.6666 156.249C52.6666 155.749 52.9566 155.389 53.4366 155.389C53.9166 155.389 54.2016 155.749 54.2016 156.249C54.2016 156.754 53.9166 157.114 53.4366 157.114C52.9566 157.114 52.6666 156.759 52.6666 156.249ZM55.6146 157.479L55.6496 157.034C55.8096 157.369 56.1346 157.539 56.5196 157.539C57.2296 157.539 57.6696 157.009 57.6696 156.269C57.6696 155.514 57.2496 154.964 56.5496 154.964C56.1496 154.964 55.8196 155.134 55.6596 155.454V153.799H55.1896V157.479H55.6146ZM55.6646 156.249C55.6646 155.749 55.9546 155.389 56.4346 155.389C56.9146 155.389 57.1996 155.749 57.1996 156.249C57.1996 156.754 56.9146 157.114 56.4346 157.114C55.9546 157.114 55.6646 156.759 55.6646 156.249ZM58.6677 157.479V153.799H58.1977V157.479H58.6677ZM60.4145 157.539C61.0195 157.539 61.4295 157.244 61.5495 156.719H61.1095C61.0295 156.999 60.7895 157.149 60.4245 157.149C59.9595 157.149 59.6895 156.864 59.6545 156.349L61.5445 156.344V156.169C61.5445 155.444 61.0895 154.964 60.3945 154.964C59.6845 154.964 59.1995 155.494 59.1995 156.259C59.1995 157.019 59.6945 157.539 60.4145 157.539ZM60.3945 155.359C60.8095 155.359 61.0745 155.629 61.0745 156.034H59.6645C59.7245 155.604 59.9845 155.359 60.3945 155.359ZM64.9217 156.189C65.6267 156.189 66.0867 155.699 66.0867 155.024C66.0867 154.329 65.6317 153.864 64.9217 153.864H63.5167V157.479H64.0067V156.189H64.9217ZM64.8367 154.304C65.2967 154.304 65.5717 154.564 65.5717 155.019C65.5717 155.464 65.3017 155.749 64.8167 155.749H64.0067V154.304H64.8367ZM67.9617 155.014C67.8667 154.994 67.7967 154.984 67.7117 154.984C67.3767 154.984 67.1317 155.154 67.0317 155.409L67.0017 155.039H66.5617V157.479H67.0317V156.184C67.0317 155.714 67.3067 155.444 67.7517 155.444H67.9617V155.014ZM68.1546 156.254C68.1546 157.009 68.6946 157.539 69.4296 157.539C70.1596 157.539 70.6996 157.009 70.6996 156.254C70.6996 155.499 70.1596 154.969 69.4296 154.969C68.6946 154.969 68.1546 155.499 68.1546 156.254ZM68.6296 156.254C68.6296 155.744 68.9546 155.389 69.4296 155.389C69.8996 155.389 70.2296 155.744 70.2296 156.254C70.2296 156.764 69.8996 157.119 69.4296 157.119C68.9546 157.119 68.6296 156.764 68.6296 156.254Z" fill="#1E1E1E"/>
<path d="M45.4818 170.346L46.3248 168.198H46.1148L45.2778 170.346H45.4818ZM46.5973 170.346V169.446C46.5973 169.224 46.7443 169.044 46.9873 169.044C47.2063 169.044 47.3473 169.188 47.3473 169.434V170.346H47.5513V169.449C47.5513 169.224 47.6953 169.041 47.9383 169.041C48.1603 169.041 48.2983 169.188 48.2983 169.437V170.346H48.4993V169.395C48.4993 169.059 48.2923 168.855 47.9773 168.855C47.7433 168.855 47.5663 168.975 47.5003 169.164C47.4313 168.975 47.2603 168.855 47.0323 168.855C46.8283 168.855 46.6663 168.948 46.5943 169.101L46.5703 168.894H46.3903V170.346H46.5973ZM48.8136 169.62C48.8136 170.061 49.1256 170.382 49.5516 170.382C49.9776 170.382 50.2896 170.061 50.2896 169.62C50.2896 169.176 49.9776 168.855 49.5516 168.855C49.1256 168.855 48.8136 169.176 48.8136 169.62ZM49.0236 169.617C49.0236 169.281 49.2396 169.041 49.5516 169.041C49.8606 169.041 50.0796 169.281 50.0796 169.617C50.0796 169.959 49.8606 170.196 49.5516 170.196C49.2396 170.196 49.0236 169.959 49.0236 169.617Z" fill="#1E1E1E"/>
<path d="M60.4182 165.55C60.5652 165.55 60.6942 165.427 60.6942 165.28C60.6942 165.13 60.5652 165.007 60.4182 165.007C60.2652 165.007 60.1422 165.13 60.1422 165.28C60.1422 165.427 60.2652 165.55 60.4182 165.55ZM60.8963 164.407C60.8963 165.094 61.2563 165.55 61.8653 165.55C62.4743 165.55 62.8343 165.094 62.8343 164.407C62.8343 163.72 62.4443 163.249 61.8653 163.249C61.2863 163.249 60.8963 163.72 60.8963 164.407ZM61.3763 164.407C61.3763 163.915 61.5563 163.675 61.8653 163.675C62.1743 163.675 62.3543 163.915 62.3543 164.407C62.3543 164.884 62.1743 165.124 61.8653 165.124C61.5563 165.124 61.3763 164.884 61.3763 164.407ZM63.0496 164.407C63.0496 165.094 63.4096 165.55 64.0186 165.55C64.6276 165.55 64.9876 165.094 64.9876 164.407C64.9876 163.72 64.5976 163.249 64.0186 163.249C63.4396 163.249 63.0496 163.72 63.0496 164.407ZM63.5296 164.407C63.5296 163.915 63.7096 163.675 64.0186 163.675C64.3276 163.675 64.5076 163.915 64.5076 164.407C64.5076 164.884 64.3276 165.124 64.0186 165.124C63.7096 165.124 63.5296 164.884 63.5296 164.407Z" fill="#1E1E1E"/>
<path opacity="0.2" d="M50.1862 146.32C52.3547 146.32 54.1126 144.783 54.1126 142.887C54.1126 140.992 52.3547 139.455 50.1862 139.455C48.0177 139.455 46.2597 140.992 46.2597 142.887C46.2597 144.783 48.0177 146.32 50.1862 146.32Z" fill="black"/>
<path d="M50.1862 146.32C52.3547 146.32 54.1126 144.783 54.1126 142.887C54.1126 140.992 52.3547 139.455 50.1862 139.455C48.0177 139.455 46.2597 140.992 46.2597 142.887C46.2597 144.783 48.0177 146.32 50.1862 146.32Z" stroke="black" stroke-width="0.5" stroke-linecap="round" stroke-linejoin="round"/>
<path d="M47.855 145.651C48.4379 144.808 49.2599 144.11 50.2416 143.626C51.2232 143.142 52.3312 142.887 53.4583 142.887C53.6792 142.887 53.8959 142.898 54.1127 142.916" stroke="black" stroke-width="0.5" stroke-linecap="round" stroke-linejoin="round"/>
<path d="M52.6409 140.209C52.0276 140.868 51.2542 141.398 50.3769 141.763C49.4996 142.127 48.5405 142.316 47.5693 142.315C47.1563 142.315 46.7442 142.281 46.3382 142.215" stroke="black" stroke-width="0.5" stroke-linecap="round" stroke-linejoin="round"/>
<path d="M48.4648 139.802C49.6822 140.429 50.6355 141.383 51.183 142.522C51.7305 143.661 51.843 144.924 51.5037 146.123" stroke="black" stroke-width="0.5" stroke-linecap="round" stroke-linejoin="round"/>
<rect x="75.1176" y="135.219" width="32.6323" height="50.5311" rx="5.75" stroke="#1E1E1E" stroke-width="0.5"/>
<rect x="74.25" y="134.25" width="32.6323" height="50.5311" rx="5.75" fill="#AE6EFF" stroke="#1E1E1E" stroke-width="0.5"/>
<path d="M88.459 166.105V165.541C89.431 165.427 89.827 164.899 89.827 164.323C89.827 163.771 89.503 163.333 88.603 163.189L87.475 163.009C87.139 162.949 87.007 162.865 87.007 162.631C87.007 162.373 87.205 162.247 87.853 162.247C88.651 162.247 88.849 162.409 88.849 162.793V162.877H89.755V162.841C89.755 162.121 89.341 161.605 88.459 161.461V160.885H87.619V161.437C86.515 161.533 86.101 162.115 86.101 162.667C86.101 163.321 86.527 163.681 87.247 163.795L88.375 163.957C88.789 164.029 88.927 164.119 88.927 164.365C88.927 164.635 88.759 164.743 88.039 164.743C87.223 164.743 87.037 164.593 87.037 164.221V164.113H86.137V164.149C86.137 164.971 86.665 165.439 87.619 165.541V166.105H88.459ZM92.1735 165.565C93.3675 165.565 93.9975 165.049 93.9975 164.245C93.9975 163.423 93.4455 163.021 92.4555 163.021C91.7355 163.021 91.3035 163.285 91.1355 163.609H91.0695V163.345C91.0695 162.523 91.3575 162.289 92.0955 162.289C92.6715 162.289 92.8995 162.427 92.8995 162.775V162.823H93.9015V162.775C93.9015 161.953 93.1935 161.425 92.0955 161.425C90.8955 161.425 90.1095 162.103 90.1095 163.501C90.1095 164.923 90.7095 165.565 92.1735 165.565ZM92.1255 164.701C91.3815 164.701 91.1415 164.527 91.1415 164.167C91.1415 163.807 91.3755 163.645 92.1315 163.645C92.8455 163.645 93.0555 163.807 93.0555 164.179C93.0555 164.533 92.8395 164.701 92.1255 164.701ZM96.2721 165.565C97.4481 165.565 98.2221 164.881 98.2221 163.471C98.2221 162.061 97.6221 161.425 96.1581 161.425C94.9641 161.425 94.3341 161.941 94.3341 162.745C94.3341 163.567 94.8861 163.969 95.8761 163.969C96.5961 163.969 97.0281 163.699 97.1961 163.369H97.2621V163.633C97.2621 164.461 96.9801 164.701 96.2721 164.701C95.6901 164.701 95.4681 164.563 95.4681 164.215V164.167H94.4661V164.215C94.4661 165.037 95.1681 165.565 96.2721 165.565ZM96.2061 163.345C95.4861 163.345 95.2761 163.183 95.2761 162.811C95.2761 162.457 95.4921 162.289 96.2061 162.289C96.9501 162.289 97.1901 162.463 97.1901 162.811C97.1901 163.177 96.9561 163.345 96.2061 163.345Z" fill="#1E1E1E"/>
<path d="M86.545 157.479L86.865 156.579H88.385L88.71 157.479H89.225L87.9 153.864H87.355L86.035 157.479H86.545ZM87.565 154.644C87.59 154.569 87.615 154.484 87.625 154.434C87.635 154.489 87.66 154.574 87.685 154.644L88.24 156.154H87.015L87.565 154.644ZM89.6256 158.574H90.0956V157.079C90.2556 157.379 90.5806 157.544 90.9706 157.544C91.6956 157.544 92.1056 156.984 92.1056 156.239C92.1056 155.489 91.6706 154.964 90.9706 154.964C90.5806 154.964 90.2506 155.139 90.0856 155.474L90.0506 155.034H89.6256V158.574ZM90.1006 156.259C90.1006 155.749 90.3906 155.394 90.8706 155.394C91.3506 155.394 91.6356 155.754 91.6356 156.259C91.6356 156.759 91.3506 157.119 90.8706 157.119C90.3906 157.119 90.1006 156.759 90.1006 156.259ZM92.6236 158.574H93.0936V157.079C93.2536 157.379 93.5786 157.544 93.9686 157.544C94.6936 157.544 95.1036 156.984 95.1036 156.239C95.1036 155.489 94.6686 154.964 93.9686 154.964C93.5786 154.964 93.2486 155.139 93.0836 155.474L93.0486 155.034H92.6236V158.574ZM93.0986 156.259C93.0986 155.749 93.3886 155.394 93.8686 155.394C94.3486 155.394 94.6336 155.754 94.6336 156.259C94.6336 156.759 94.3486 157.119 93.8686 157.119C93.3886 157.119 93.0986 156.759 93.0986 156.259ZM96.1016 157.479V153.799H95.6316V157.479H96.1016ZM97.8485 157.539C98.4535 157.539 98.8635 157.244 98.9835 156.719H98.5435C98.4635 156.999 98.2235 157.149 97.8585 157.149C97.3935 157.149 97.1235 156.864 97.0885 156.349L98.9785 156.344V156.169C98.9785 155.444 98.5235 154.964 97.8285 154.964C97.1185 154.964 96.6335 155.494 96.6335 156.259C96.6335 157.019 97.1285 157.539 97.8485 157.539ZM97.8285 155.359C98.2435 155.359 98.5085 155.629 98.5085 156.034H97.0985C97.1585 155.604 97.4185 155.359 97.8285 155.359ZM102.356 156.189C103.061 156.189 103.521 155.699 103.521 155.024C103.521 154.329 103.066 153.864 102.356 153.864H100.951V157.479H101.441V156.189H102.356ZM102.271 154.304C102.731 154.304 103.006 154.564 103.006 155.019C103.006 155.464 102.736 155.749 102.251 155.749H101.441V154.304H102.271ZM103.723 156.254C103.723 157.009 104.263 157.539 104.998 157.539C105.728 157.539 106.268 157.009 106.268 156.254C106.268 155.499 105.728 154.969 104.998 154.969C104.263 154.969 103.723 155.499 103.723 156.254ZM104.198 156.254C104.198 155.744 104.523 155.389 104.998 155.389C105.468 155.389 105.798 155.744 105.798 156.254C105.798 156.764 105.468 157.119 104.998 157.119C104.523 157.119 104.198 156.764 104.198 156.254ZM107.769 157.539C108.159 157.539 108.489 157.369 108.649 157.034L108.689 157.479H109.109V153.799H108.644V155.429C108.479 155.129 108.164 154.964 107.789 154.964C107.064 154.964 106.629 155.514 106.629 156.264C106.629 157.009 107.059 157.539 107.769 157.539ZM107.864 157.114C107.384 157.114 107.104 156.754 107.104 156.249C107.104 155.749 107.384 155.389 107.864 155.389C108.344 155.389 108.639 155.749 108.639 156.249C108.639 156.759 108.344 157.114 107.864 157.114ZM109.587 156.769C109.587 157.234 109.952 157.539 110.527 157.539C111.107 157.539 111.507 157.244 111.507 156.779C111.507 156.414 111.302 156.224 110.887 156.124L110.457 156.019C110.217 155.959 110.097 155.849 110.097 155.684C110.097 155.459 110.262 155.329 110.557 155.329C110.842 155.329 111.007 155.484 111.017 155.729H111.467C111.457 155.264 111.107 154.964 110.572 154.964C110.032 154.964 109.652 155.249 109.652 155.699C109.652 156.059 109.857 156.274 110.292 156.379L110.722 156.479C110.977 156.544 111.057 156.644 111.057 156.809C111.057 157.034 110.867 157.169 110.537 157.169C110.227 157.169 110.037 157.019 110.037 156.769H109.587Z" fill="#1E1E1E"/>
<path d="M86.2068 170.346L87.0498 168.198H86.8398L86.0028 170.346H86.2068ZM87.3223 170.346V169.446C87.3223 169.224 87.4693 169.044 87.7123 169.044C87.9313 169.044 88.0723 169.188 88.0723 169.434V170.346H88.2763V169.449C88.2763 169.224 88.4203 169.041 88.6633 169.041C88.8853 169.041 89.0233 169.188 89.0233 169.437V170.346H89.2243V169.395C89.2243 169.059 89.0173 168.855 88.7023 168.855C88.4683 168.855 88.2913 168.975 88.2253 169.164C88.1563 168.975 87.9853 168.855 87.7573 168.855C87.5533 168.855 87.3913 168.948 87.3193 169.101L87.2953 168.894H87.1153V170.346H87.3223ZM89.5387 169.62C89.5387 170.061 89.8507 170.382 90.2767 170.382C90.7027 170.382 91.0147 170.061 91.0147 169.62C91.0147 169.176 90.7027 168.855 90.2767 168.855C89.8507 168.855 89.5387 169.176 89.5387 169.62ZM89.7487 169.617C89.7487 169.281 89.9647 169.041 90.2767 169.041C90.5857 169.041 90.8047 169.281 90.8047 169.617C90.8047 169.959 90.5857 170.196 90.2767 170.196C89.9647 170.196 89.7487 169.959 89.7487 169.617Z" fill="#1E1E1E"/>
<path d="M101.143 165.55C101.29 165.55 101.419 165.427 101.419 165.28C101.419 165.13 101.29 165.007 101.143 165.007C100.99 165.007 100.867 165.13 100.867 165.28C100.867 165.427 100.99 165.55 101.143 165.55ZM101.621 164.407C101.621 165.094 101.981 165.55 102.59 165.55C103.199 165.55 103.559 165.094 103.559 164.407C103.559 163.72 103.169 163.249 102.59 163.249C102.011 163.249 101.621 163.72 101.621 164.407ZM102.101 164.407C102.101 163.915 102.281 163.675 102.59 163.675C102.899 163.675 103.079 163.915 103.079 164.407C103.079 164.884 102.899 165.124 102.59 165.124C102.281 165.124 102.101 164.884 102.101 164.407ZM103.775 164.407C103.775 165.094 104.135 165.55 104.744 165.55C105.353 165.55 105.713 165.094 105.713 164.407C105.713 163.72 105.323 163.249 104.744 163.249C104.165 163.249 103.775 163.72 103.775 164.407ZM104.255 164.407C104.255 163.915 104.435 163.675 104.744 163.675C105.053 163.675 105.233 163.915 105.233 164.407C105.233 164.884 105.053 165.124 104.744 165.124C104.435 165.124 104.255 164.884 104.255 164.407Z" fill="#1E1E1E"/>
<path opacity="0.2" d="M91.0656 143.514C91.5928 143.514 92.0201 143.135 92.0201 142.667C92.0201 142.2 91.5928 141.821 91.0656 141.821C90.5385 141.821 90.1111 142.2 90.1111 142.667C90.1111 143.135 90.5385 143.514 91.0656 143.514Z" fill="black"/>
<path opacity="0.2" d="M91.1811 146.335H90.9504C90.803 146.335 90.6602 146.29 90.5463 146.207C90.4324 146.124 90.3546 146.008 90.326 145.88L89.9442 144.187C89.926 144.106 89.9285 144.021 89.9514 143.94C89.9743 143.86 90.0172 143.784 90.0769 143.72C90.1366 143.655 90.2117 143.603 90.2967 143.568C90.3817 143.532 90.4746 143.514 90.5686 143.514H91.5629C91.6569 143.514 91.7498 143.532 91.8348 143.568C91.9198 143.603 91.9949 143.655 92.0546 143.72C92.1143 143.784 92.1572 143.86 92.1801 143.94C92.203 144.021 92.2055 144.106 92.1873 144.187L91.8055 145.88C91.7769 146.008 91.6991 146.124 91.5852 146.207C91.4713 146.29 91.3285 146.335 91.1811 146.335Z" fill="black"/>
<path d="M91.0656 143.514C91.5928 143.514 92.0201 143.135 92.0201 142.667C92.0201 142.2 91.5928 141.821 91.0656 141.821C90.5385 141.821 90.1111 142.2 90.1111 142.667C90.1111 143.135 90.5385 143.514 91.0656 143.514Z" stroke="black" stroke-width="0.5" stroke-linecap="round" stroke-linejoin="round"/>
<path d="M91.1811 146.335H90.9504C90.803 146.335 90.6602 146.29 90.5463 146.207C90.4324 146.124 90.3546 146.008 90.326 145.88L89.9442 144.187C89.926 144.106 89.9285 144.021 89.9514 143.94C89.9743 143.86 90.0172 143.784 90.0769 143.72C90.1366 143.655 90.2117 143.603 90.2967 143.568C90.3817 143.532 90.4746 143.514 90.5686 143.514H91.5629C91.6569 143.514 91.7498 143.532 91.8348 143.568C91.9198 143.603 91.9949 143.655 92.0546 143.72C92.1143 143.784 92.1572 143.86 92.1801 143.94C92.203 144.021 92.2055 144.106 92.1873 144.187L91.8055 145.88C91.7769 146.008 91.6991 146.124 91.5852 146.207C91.4713 146.29 91.3285 146.335 91.1811 146.335Z" stroke="black" stroke-width="0.5" stroke-linecap="round" stroke-linejoin="round"/>
<path d="M88.6913 143.768C88.5424 143.426 88.4896 143.057 88.5375 142.693C88.5854 142.329 88.7327 141.98 88.9664 141.678C89.2002 141.376 89.5135 141.128 89.8793 140.957C90.2451 140.787 90.6522 140.697 91.0656 140.697C91.479 140.697 91.8862 140.787 92.252 140.957C92.6177 141.128 92.931 141.376 93.1648 141.678C93.3986 141.98 93.5459 142.329 93.5938 142.693C93.6417 143.057 93.5889 143.426 93.4399 143.768" stroke="black" stroke-width="0.5" stroke-linecap="round" stroke-linejoin="round"/>
<path d="M89.0135 145.803C88.3168 145.409 87.783 144.825 87.4921 144.14C87.2013 143.454 87.169 142.703 87.4003 142C87.6316 141.297 88.1139 140.679 88.7747 140.239C89.4356 139.8 90.2395 139.562 91.0656 139.562C91.8918 139.562 92.6956 139.8 93.3565 140.239C94.0174 140.679 94.4997 141.297 94.7309 142C94.9622 142.703 94.93 143.454 94.6391 144.14C94.3483 144.825 93.8144 145.409 93.1178 145.803" stroke="black" stroke-width="0.5" stroke-linecap="round" stroke-linejoin="round"/>
<rect x="111.118" y="135.219" width="32.6323" height="50.5311" rx="5.75" stroke="#1E1E1E" stroke-width="0.5"/>
<rect x="110.25" y="134.25" width="32.6323" height="50.5311" rx="5.75" fill="#FFB053" stroke="#1E1E1E" stroke-width="0.5"/>
<path d="M129.184 166.105V165.541C130.156 165.427 130.552 164.899 130.552 164.323C130.552 163.771 130.228 163.333 129.328 163.189L128.2 163.009C127.864 162.949 127.732 162.865 127.732 162.631C127.732 162.373 127.93 162.247 128.578 162.247C129.376 162.247 129.574 162.409 129.574 162.793V162.877H130.48V162.841C130.48 162.121 130.066 161.605 129.184 161.461V160.885H128.344V161.437C127.24 161.533 126.826 162.115 126.826 162.667C126.826 163.321 127.252 163.681 127.972 163.795L129.1 163.957C129.514 164.029 129.652 164.119 129.652 164.365C129.652 164.635 129.484 164.743 128.764 164.743C127.948 164.743 127.762 164.593 127.762 164.221V164.113H126.862V164.149C126.862 164.971 127.39 165.439 128.344 165.541V166.105H129.184ZM132.899 165.565C134.093 165.565 134.723 165.049 134.723 164.245C134.723 163.423 134.171 163.021 133.181 163.021C132.461 163.021 132.029 163.285 131.861 163.609H131.795V163.345C131.795 162.523 132.083 162.289 132.821 162.289C133.397 162.289 133.625 162.427 133.625 162.775V162.823H134.627V162.775C134.627 161.953 133.919 161.425 132.821 161.425C131.621 161.425 130.835 162.103 130.835 163.501C130.835 164.923 131.435 165.565 132.899 165.565ZM132.851 164.701C132.107 164.701 131.867 164.527 131.867 164.167C131.867 163.807 132.101 163.645 132.857 163.645C133.571 163.645 133.781 163.807 133.781 164.179C133.781 164.533 133.565 164.701 132.851 164.701ZM136.997 165.565C138.173 165.565 138.947 164.881 138.947 163.471C138.947 162.061 138.347 161.425 136.883 161.425C135.689 161.425 135.059 161.941 135.059 162.745C135.059 163.567 135.611 163.969 136.601 163.969C137.321 163.969 137.753 163.699 137.921 163.369H137.987V163.633C137.987 164.461 137.705 164.701 136.997 164.701C136.415 164.701 136.193 164.563 136.193 164.215V164.167H135.191V164.215C135.191 165.037 135.893 165.565 136.997 165.565ZM136.931 163.345C136.211 163.345 136.001 163.183 136.001 162.811C136.001 162.457 136.217 162.289 136.931 162.289C137.675 162.289 137.915 162.463 137.915 162.811C137.915 163.177 137.681 163.345 136.931 163.345Z" fill="#1E1E1E"/>
<path d="M126.91 154.839C126.91 155.359 127.215 155.699 127.805 155.834L128.4 155.969C128.745 156.049 128.9 156.229 128.9 156.514C128.9 156.874 128.595 157.099 128.115 157.099C127.66 157.099 127.37 156.879 127.36 156.534H126.86C126.89 157.154 127.38 157.539 128.115 157.539C128.885 157.539 129.39 157.124 129.39 156.474C129.39 155.964 129.09 155.644 128.5 155.509L127.905 155.369C127.565 155.289 127.4 155.114 127.4 154.824C127.4 154.469 127.695 154.239 128.15 154.239C128.555 154.239 128.81 154.449 128.835 154.809H129.33C129.29 154.184 128.845 153.799 128.155 153.799C127.41 153.799 126.91 154.219 126.91 154.839ZM129.926 158.574H130.396V157.079C130.556 157.379 130.881 157.544 131.271 157.544C131.996 157.544 132.406 156.984 132.406 156.239C132.406 155.489 131.971 154.964 131.271 154.964C130.881 154.964 130.551 155.139 130.386 155.474L130.351 155.034H129.926V158.574ZM130.401 156.259C130.401 155.749 130.691 155.394 131.171 155.394C131.651 155.394 131.936 155.754 131.936 156.259C131.936 156.759 131.651 157.119 131.171 157.119C130.691 157.119 130.401 156.759 130.401 156.259ZM132.764 156.254C132.764 157.009 133.304 157.539 134.039 157.539C134.769 157.539 135.309 157.009 135.309 156.254C135.309 155.499 134.769 154.969 134.039 154.969C133.304 154.969 132.764 155.499 132.764 156.254ZM133.239 156.254C133.239 155.744 133.564 155.389 134.039 155.389C134.509 155.389 134.839 155.744 134.839 156.254C134.839 156.764 134.509 157.119 134.039 157.119C133.564 157.119 133.239 156.764 133.239 156.254ZM136.495 157.479V155.429H136.975V155.034H136.495V154.269H136.025V155.034H135.545V155.429H136.025V157.479H136.495ZM137.626 154.454C137.796 154.454 137.936 154.314 137.936 154.144C137.936 153.969 137.796 153.834 137.626 153.834C137.456 153.834 137.316 153.969 137.316 154.144C137.316 154.314 137.456 154.454 137.626 154.454ZM137.396 157.479H137.866V155.034H137.396V157.479ZM138.289 155.034V155.429H138.649V157.479H139.119V155.429H139.699V155.034H139.119V154.644C139.119 154.379 139.199 154.224 139.504 154.224H139.714V153.819C139.619 153.804 139.514 153.799 139.424 153.799C138.979 153.799 138.649 154.044 138.649 154.644V155.034H138.289ZM139.901 158.574C140.026 158.604 140.156 158.624 140.311 158.624C140.686 158.624 140.931 158.449 141.096 158.029L142.251 155.034H141.766L141.041 157.004L140.331 155.034H139.836L140.821 157.609L140.736 157.844C140.621 158.154 140.441 158.189 140.216 158.189H139.901V158.574ZM145.478 156.189C146.183 156.189 146.643 155.699 146.643 155.024C146.643 154.329 146.188 153.864 145.478 153.864H144.073V157.479H144.563V156.189H145.478ZM145.393 154.304C145.853 154.304 146.128 154.564 146.128 155.019C146.128 155.464 145.858 155.749 145.373 155.749H144.563V154.304H145.393ZM148.518 155.014C148.423 154.994 148.353 154.984 148.268 154.984C147.933 154.984 147.688 155.154 147.588 155.409L147.558 155.039H147.118V157.479H147.588V156.184C147.588 155.714 147.863 155.444 148.308 155.444H148.518V155.014ZM148.711 156.254C148.711 157.009 149.251 157.539 149.986 157.539C150.716 157.539 151.256 157.009 151.256 156.254C151.256 155.499 150.716 154.969 149.986 154.969C149.251 154.969 148.711 155.499 148.711 156.254ZM149.186 156.254C149.186 155.744 149.511 155.389 149.986 155.389C150.456 155.389 150.786 155.744 150.786 156.254C150.786 156.764 150.456 157.119 149.986 157.119C149.511 157.119 149.186 156.764 149.186 156.254Z" fill="#1E1E1E"/>
<path d="M126.932 170.346L127.775 168.198H127.565L126.728 170.346H126.932ZM128.047 170.346V169.446C128.047 169.224 128.194 169.044 128.437 169.044C128.656 169.044 128.797 169.188 128.797 169.434V170.346H129.001V169.449C129.001 169.224 129.145 169.041 129.388 169.041C129.61 169.041 129.748 169.188 129.748 169.437V170.346H129.949V169.395C129.949 169.059 129.742 168.855 129.427 168.855C129.193 168.855 129.016 168.975 128.95 169.164C128.881 168.975 128.71 168.855 128.482 168.855C128.278 168.855 128.116 168.948 128.044 169.101L128.02 168.894H127.84V170.346H128.047ZM130.264 169.62C130.264 170.061 130.576 170.382 131.002 170.382C131.428 170.382 131.74 170.061 131.74 169.62C131.74 169.176 131.428 168.855 131.002 168.855C130.576 168.855 130.264 169.176 130.264 169.62ZM130.474 169.617C130.474 169.281 130.69 169.041 131.002 169.041C131.311 169.041 131.53 169.281 131.53 169.617C131.53 169.959 131.311 170.196 131.002 170.196C130.69 170.196 130.474 169.959 130.474 169.617Z" fill="#1E1E1E"/>
<path d="M141.868 165.55C142.015 165.55 142.144 165.427 142.144 165.28C142.144 165.13 142.015 165.007 141.868 165.007C141.715 165.007 141.592 165.13 141.592 165.28C141.592 165.427 141.715 165.55 141.868 165.55ZM142.346 164.407C142.346 165.094 142.706 165.55 143.315 165.55C143.924 165.55 144.284 165.094 144.284 164.407C144.284 163.72 143.894 163.249 143.315 163.249C142.736 163.249 142.346 163.72 142.346 164.407ZM142.826 164.407C142.826 163.915 143.006 163.675 143.315 163.675C143.624 163.675 143.804 163.915 143.804 164.407C143.804 164.884 143.624 165.124 143.315 165.124C143.006 165.124 142.826 164.884 142.826 164.407ZM144.5 164.407C144.5 165.094 144.86 165.55 145.469 165.55C146.078 165.55 146.438 165.094 146.438 164.407C146.438 163.72 146.048 163.249 145.469 163.249C144.89 163.249 144.5 163.72 144.5 164.407ZM144.98 164.407C144.98 163.915 145.16 163.675 145.469 163.675C145.778 163.675 145.958 163.915 145.958 164.407C145.958 164.884 145.778 165.124 145.469 165.124C145.16 165.124 144.98 164.884 144.98 164.407Z" fill="#1E1E1E"/>
<path opacity="0.2" d="M131.791 146.335C133.899 146.335 135.609 144.819 135.609 142.949C135.609 141.08 133.899 139.564 131.791 139.564C129.682 139.564 127.973 141.08 127.973 142.949C127.973 144.819 129.682 146.335 131.791 146.335Z" fill="black"/>
<path d="M131.791 146.335C133.899 146.335 135.609 144.819 135.609 142.949C135.609 141.08 133.899 139.564 131.791 139.564C129.682 139.564 127.973 141.08 127.973 142.949C127.973 144.819 129.682 146.335 131.791 146.335Z" stroke="black" stroke-width="0.5" stroke-linecap="round" stroke-linejoin="round"/>
<path d="M133.823 142.255C133.193 141.969 132.496 141.82 131.788 141.821C131.081 141.822 130.383 141.971 129.754 142.258" stroke="black" stroke-width="0.5" stroke-linecap="round" stroke-linejoin="round"/>
<path d="M133.234 143.256C132.786 143.054 132.291 142.949 131.788 142.95C131.285 142.95 130.79 143.057 130.343 143.26" stroke="black" stroke-width="0.5" stroke-linecap="round" stroke-linejoin="round"/>
<path d="M132.646 144.258C132.381 144.139 132.088 144.077 131.791 144.078C131.493 144.079 131.199 144.14 130.932 144.258" stroke="black" stroke-width="0.5" stroke-linecap="round" stroke-linejoin="round"/>
<path d="M49.9187 71.7445V73.2145H50.4087V71.7445L51.6237 69.5995H51.0887L50.2887 71.0445C50.2237 71.1645 50.2137 71.1945 50.1687 71.2845C50.1287 71.1995 50.0987 71.1295 50.0487 71.0445L49.2437 69.5995H48.6937L49.9187 71.7445ZM51.3628 71.9895C51.3628 72.7445 51.9028 73.2745 52.6378 73.2745C53.3678 73.2745 53.9078 72.7445 53.9078 71.9895C53.9078 71.2345 53.3678 70.7045 52.6378 70.7045C51.9028 70.7045 51.3628 71.2345 51.3628 71.9895ZM51.8378 71.9895C51.8378 71.4795 52.1628 71.1245 52.6378 71.1245C53.1078 71.1245 53.4378 71.4795 53.4378 71.9895C53.4378 72.4995 53.1078 72.8545 52.6378 72.8545C52.1628 72.8545 51.8378 72.4995 51.8378 71.9895ZM56.0595 70.7695V72.0595C56.0595 72.5845 55.8245 72.8595 55.3945 72.8595C55.0345 72.8595 54.8095 72.6595 54.8095 72.1345V70.7695H54.3395V72.2895C54.3395 72.8895 54.6595 73.2745 55.2295 73.2745C55.5895 73.2745 55.9145 73.0995 56.0545 72.8445L56.1045 73.2145H56.5245V70.7695H56.0595ZM57.715 69.9645C57.715 69.6945 57.555 69.5295 57.355 69.5295C57.155 69.5295 57.025 69.6695 57.025 69.8595C57.025 70.0545 57.155 70.1645 57.305 70.1645C57.365 70.1645 57.41 70.1545 57.445 70.1345C57.445 70.2945 57.305 70.4245 57.11 70.4595V70.6695C57.46 70.6245 57.715 70.3295 57.715 69.9645ZM59.0486 73.2145H59.5136L60.5336 70.7695H60.0436L59.4986 72.1345C59.4136 72.3495 59.3336 72.5595 59.2936 72.7195C59.2536 72.5695 59.1836 72.3645 59.0986 72.1345L58.5636 70.7695H58.0636L59.0486 73.2145ZM61.8503 73.2745C62.4553 73.2745 62.8653 72.9795 62.9853 72.4545H62.5453C62.4653 72.7345 62.2253 72.8845 61.8603 72.8845C61.3953 72.8845 61.1253 72.5995 61.0903 72.0845L62.9803 72.0795V71.9045C62.9803 71.1795 62.5253 70.6995 61.8303 70.6995C61.1203 70.6995 60.6353 71.2295 60.6353 71.9945C60.6353 72.7545 61.1303 73.2745 61.8503 73.2745ZM61.8303 71.0945C62.2453 71.0945 62.5103 71.3645 62.5103 71.7695H61.1003C61.1603 71.3395 61.4203 71.0945 61.8303 71.0945ZM64.6724 72.5045C64.6724 72.9695 65.0374 73.2745 65.6124 73.2745C66.1924 73.2745 66.5924 72.9795 66.5924 72.5145C66.5924 72.1495 66.3874 71.9595 65.9724 71.8595L65.5424 71.7545C65.3024 71.6945 65.1824 71.5845 65.1824 71.4195C65.1824 71.1945 65.3474 71.0645 65.6424 71.0645C65.9274 71.0645 66.0924 71.2195 66.1024 71.4645H66.5524C66.5424 70.9995 66.1924 70.6995 65.6574 70.6995C65.1174 70.6995 64.7374 70.9845 64.7374 71.4345C64.7374 71.7945 64.9424 72.0095 65.3774 72.1145L65.8074 72.2145C66.0624 72.2795 66.1424 72.3795 66.1424 72.5445C66.1424 72.7695 65.9524 72.9045 65.6224 72.9045C65.3124 72.9045 65.1224 72.7545 65.1224 72.5045H64.6724ZM67.1136 74.3095H67.5836V72.8145C67.7436 73.1145 68.0686 73.2795 68.4586 73.2795C69.1836 73.2795 69.5936 72.7195 69.5936 71.9745C69.5936 71.2245 69.1586 70.6995 68.4586 70.6995C68.0686 70.6995 67.7386 70.8745 67.5736 71.2095L67.5386 70.7695H67.1136V74.3095ZM67.5886 71.9945C67.5886 71.4845 67.8786 71.1295 68.3586 71.1295C68.8386 71.1295 69.1236 71.4895 69.1236 71.9945C69.1236 72.4945 68.8386 72.8545 68.3586 72.8545C67.8786 72.8545 67.5886 72.4945 67.5886 71.9945ZM71.1667 73.2745C71.7717 73.2745 72.1817 72.9795 72.3017 72.4545H71.8617C71.7817 72.7345 71.5417 72.8845 71.1767 72.8845C70.7117 72.8845 70.4417 72.5995 70.4067 72.0845L72.2967 72.0795V71.9045C72.2967 71.1795 71.8417 70.6995 71.1467 70.6995C70.4367 70.6995 69.9517 71.2295 69.9517 71.9945C69.9517 72.7545 70.4467 73.2745 71.1667 73.2745ZM71.1467 71.0945C71.5617 71.0945 71.8267 71.3645 71.8267 71.7695H70.4167C70.4767 71.3395 70.7367 71.0945 71.1467 71.0945ZM73.2916 73.2145V71.9195C73.2916 71.4445 73.5466 71.1295 73.9866 71.1295C74.3466 71.1295 74.5766 71.3295 74.5766 71.8245V73.2145H75.0466V71.7195C75.0466 71.0945 74.7516 70.6995 74.1066 70.6995C73.7616 70.6995 73.4516 70.8645 73.2966 71.1445L73.2466 70.7695H72.8216V73.2145H73.2916ZM76.3876 73.2145V71.1645H76.8676V70.7695H76.3876V70.0045H75.9176V70.7695H75.4376V71.1645H75.9176V73.2145H76.3876ZM79.6016 73.6995H79.9216V73.2645C80.5816 73.2045 81.0066 72.8045 81.0066 72.2095C81.0066 71.7095 80.7166 71.3945 80.1166 71.2595L79.9216 71.2145V69.9745C80.2466 70.0195 80.4416 70.2245 80.4616 70.5445H80.9466C80.9116 69.9645 80.5266 69.5945 79.9216 69.5395V69.1095H79.6016V69.5445C78.9516 69.5995 78.5266 70.0045 78.5266 70.5745C78.5266 71.0895 78.8316 71.4195 79.4216 71.5545L79.6016 71.5945V72.8395C79.2216 72.7995 78.9866 72.5895 78.9766 72.2695H78.4766C78.5066 72.8545 78.9416 73.2295 79.6016 73.2695V73.6995ZM79.5216 71.1195C79.1716 71.0345 79.0066 70.8495 79.0066 70.5595C79.0066 70.2395 79.2316 70.0245 79.6016 69.9745V71.1395L79.5216 71.1195ZM80.0166 71.6945C80.3616 71.7745 80.5266 71.9595 80.5266 72.2495C80.5266 72.5645 80.2966 72.7795 79.9216 72.8295V71.6745L80.0166 71.6945ZM82.1373 70.0395V73.2145H82.6073V69.5995H81.3773V70.0395H82.1373ZM83.2686 71.4095C83.2686 72.5345 83.8236 73.2795 84.7586 73.2795C85.6886 73.2795 86.2436 72.5345 86.2436 71.4095C86.2436 70.2895 85.6636 69.5295 84.7586 69.5295C83.8486 69.5295 83.2686 70.2895 83.2686 71.4095ZM83.7536 71.4095C83.7536 70.5095 84.1236 69.9695 84.7586 69.9695C85.3936 69.9695 85.7586 70.5095 85.7586 71.4095C85.7586 72.2995 85.3936 72.8395 84.7586 72.8395C84.1236 72.8395 83.7536 72.2995 83.7536 71.4095ZM87.3303 73.0195C87.3303 72.7445 87.1603 72.5695 86.9503 72.5695C86.7503 72.5695 86.6153 72.7145 86.6153 72.9145C86.6153 73.0995 86.7553 73.2195 86.9203 73.2195C86.9803 73.2195 87.0203 73.2095 87.0553 73.1895C87.0553 73.3445 86.9103 73.4795 86.7053 73.5145V73.7245C87.0603 73.6795 87.3303 73.3795 87.3303 73.0195ZM87.8485 72.2095C87.8485 72.8495 88.3735 73.2745 89.1785 73.2745C89.9785 73.2745 90.5085 72.8495 90.5085 72.2145C90.5085 71.7695 90.2485 71.4095 89.8435 71.2795C90.1835 71.1445 90.3735 70.8595 90.3735 70.4895C90.3735 69.9195 89.8935 69.5345 89.1835 69.5345C88.4635 69.5345 87.9785 69.9195 87.9785 70.4845C87.9785 70.8495 88.1635 71.1345 88.5035 71.2795C88.1035 71.4245 87.8485 71.7745 87.8485 72.2095ZM88.4285 70.5145C88.4285 70.1795 88.7235 69.9595 89.1735 69.9595C89.6285 69.9595 89.9135 70.1795 89.9135 70.5245C89.9135 70.8745 89.6285 71.0995 89.1735 71.0995C88.7235 71.0995 88.4285 70.8695 88.4285 70.5145ZM88.3285 72.1745C88.3285 71.7745 88.6585 71.5195 89.1735 71.5195C89.6935 71.5195 90.0235 71.7745 90.0235 72.1745C90.0235 72.5795 89.6885 72.8395 89.1785 72.8395C88.6635 72.8395 88.3285 72.5795 88.3285 72.1745ZM90.9835 71.4095C90.9835 72.5345 91.5385 73.2795 92.4735 73.2795C93.4035 73.2795 93.9585 72.5345 93.9585 71.4095C93.9585 70.2895 93.3785 69.5295 92.4735 69.5295C91.5635 69.5295 90.9835 70.2895 90.9835 71.4095ZM91.4685 71.4095C91.4685 70.5095 91.8385 69.9695 92.4735 69.9695C93.1085 69.9695 93.4735 70.5095 93.4735 71.4095C93.4735 72.2995 93.1085 72.8395 92.4735 72.8395C91.8385 72.8395 91.4685 72.2995 91.4685 71.4095ZM94.4503 71.4095C94.4503 72.5345 95.0053 73.2795 95.9403 73.2795C96.8703 73.2795 97.4253 72.5345 97.4253 71.4095C97.4253 70.2895 96.8453 69.5295 95.9403 69.5295C95.0303 69.5295 94.4503 70.2895 94.4503 71.4095ZM94.9353 71.4095C94.9353 70.5095 95.3053 69.9695 95.9403 69.9695C96.5753 69.9695 96.9403 70.5095 96.9403 71.4095C96.9403 72.2995 96.5753 72.8395 95.9403 72.8395C95.3053 72.8395 94.9353 72.2995 94.9353 71.4095ZM99.2192 71.9895C99.2192 72.7445 99.7592 73.2745 100.494 73.2745C101.224 73.2745 101.764 72.7445 101.764 71.9895C101.764 71.2345 101.224 70.7045 100.494 70.7045C99.7592 70.7045 99.2192 71.2345 99.2192 71.9895ZM99.6942 71.9895C99.6942 71.4795 100.019 71.1245 100.494 71.1245C100.964 71.1245 101.294 71.4795 101.294 71.9895C101.294 72.4995 100.964 72.8545 100.494 72.8545C100.019 72.8545 99.6942 72.4995 99.6942 71.9895ZM102.755 73.2145V71.9195C102.755 71.4445 103.01 71.1295 103.45 71.1295C103.81 71.1295 104.04 71.3295 104.04 71.8245V73.2145H104.51V71.7195C104.51 71.0945 104.215 70.6995 103.57 70.6995C103.225 70.6995 102.915 70.8645 102.76 71.1445L102.71 70.7695H102.285V73.2145H102.755ZM107.188 70.3395C107.188 70.1445 107.063 70.0345 106.908 70.0345C106.848 70.0345 106.803 70.0495 106.768 70.0695C106.768 69.9095 106.908 69.7795 107.103 69.7395V69.5295C106.753 69.5795 106.498 69.8695 106.498 70.2345C106.498 70.5045 106.658 70.6695 106.858 70.6695C107.058 70.6695 107.188 70.5295 107.188 70.3395ZM108.083 70.3395C108.083 70.1445 107.953 70.0345 107.798 70.0345C107.743 70.0345 107.698 70.0445 107.663 70.0645C107.663 69.9095 107.803 69.7795 107.998 69.7395V69.5295C107.648 69.5795 107.388 69.8695 107.388 70.2345C107.388 70.5045 107.548 70.6695 107.753 70.6695C107.948 70.6695 108.083 70.5295 108.083 70.3395ZM109.446 73.2745C109.836 73.2745 110.166 73.1045 110.326 72.7695L110.366 73.2145H110.786V69.5345H110.321V71.1645C110.156 70.8645 109.841 70.6995 109.466 70.6995C108.741 70.6995 108.306 71.2495 108.306 71.9995C108.306 72.7445 108.736 73.2745 109.446 73.2745ZM109.541 72.8495C109.061 72.8495 108.781 72.4895 108.781 71.9845C108.781 71.4845 109.061 71.1245 109.541 71.1245C110.021 71.1245 110.316 71.4845 110.316 71.9845C110.316 72.4945 110.021 72.8495 109.541 72.8495ZM112.519 73.2745C113.124 73.2745 113.534 72.9795 113.654 72.4545H113.214C113.134 72.7345 112.894 72.8845 112.529 72.8845C112.064 72.8845 111.794 72.5995 111.759 72.0845L113.649 72.0795V71.9045C113.649 71.1795 113.194 70.6995 112.499 70.6995C111.789 70.6995 111.304 71.2295 111.304 71.9945C111.304 72.7545 111.799 73.2745 112.519 73.2745ZM112.499 71.0945C112.914 71.0945 113.179 71.3645 113.179 71.7695H111.769C111.829 71.3395 112.089 71.0945 112.499 71.0945ZM114.776 73.2145H115.241L116.261 70.7695H115.771L115.226 72.1345C115.141 72.3495 115.061 72.5595 115.021 72.7195C114.981 72.5695 114.911 72.3645 114.826 72.1345L114.291 70.7695H113.791L114.776 73.2145ZM117.802 72.5045C117.802 72.9695 118.167 73.2745 118.742 73.2745C119.322 73.2745 119.722 72.9795 119.722 72.5145C119.722 72.1495 119.517 71.9595 119.102 71.8595L118.672 71.7545C118.432 71.6945 118.312 71.5845 118.312 71.4195C118.312 71.1945 118.477 71.0645 118.772 71.0645C119.057 71.0645 119.222 71.2195 119.232 71.4645H119.682C119.672 70.9995 119.322 70.6995 118.787 70.6995C118.247 70.6995 117.867 70.9845 117.867 71.4345C117.867 71.7945 118.072 72.0095 118.507 72.1145L118.937 72.2145C119.192 72.2795 119.272 72.3795 119.272 72.5445C119.272 72.7695 119.082 72.9045 118.752 72.9045C118.442 72.9045 118.252 72.7545 118.252 72.5045H117.802ZM120.934 73.2145V71.1645H121.414V70.7695H120.934V70.0045H120.464V70.7695H119.984V71.1645H120.464V73.2145H120.934ZM123.525 70.7695V72.0595C123.525 72.5845 123.29 72.8595 122.86 72.8595C122.5 72.8595 122.275 72.6595 122.275 72.1345V70.7695H121.805V72.2895C121.805 72.8895 122.125 73.2745 122.695 73.2745C123.055 73.2745 123.38 73.0995 123.52 72.8445L123.57 73.2145H123.99V70.7695H123.525ZM124.412 70.7695V71.1645H124.772V73.2145H125.242V71.1645H126.327V73.2145H126.792V71.1645H127.372V70.7695H126.792V70.3795C126.792 70.1145 126.872 69.9595 127.177 69.9595H127.387V69.5545C127.297 69.5395 127.187 69.5345 127.097 69.5345C126.652 69.5345 126.327 69.7795 126.327 70.3795V70.7695H125.242V70.3795C125.242 70.1145 125.317 69.9595 125.622 69.9595H125.832V69.5545C125.742 69.5395 125.637 69.5345 125.547 69.5345C125.097 69.5345 124.772 69.7795 124.772 70.3795V70.7695H124.412ZM128.565 69.9645C128.565 69.6945 128.405 69.5295 128.205 69.5295C128.005 69.5295 127.875 69.6695 127.875 69.8595C127.875 70.0545 128.005 70.1645 128.155 70.1645C128.215 70.1645 128.26 70.1545 128.295 70.1345C128.295 70.2945 128.155 70.4245 127.96 70.4595V70.6695C128.31 70.6245 128.565 70.3295 128.565 69.9645ZM129.46 69.9645C129.46 69.6945 129.3 69.5295 129.095 69.5295C128.9 69.5295 128.765 69.6695 128.765 69.8595C128.765 70.0545 128.895 70.1645 129.05 70.1645C129.11 70.1645 129.15 70.1545 129.185 70.1345C129.185 70.2945 129.045 70.4245 128.85 70.4595V70.6695C129.205 70.6245 129.46 70.3295 129.46 69.9645ZM131.319 71.9895C131.319 72.7445 131.859 73.2745 132.594 73.2745C133.324 73.2745 133.864 72.7445 133.864 71.9895C133.864 71.2345 133.324 70.7045 132.594 70.7045C131.859 70.7045 131.319 71.2345 131.319 71.9895ZM131.794 71.9895C131.794 71.4795 132.119 71.1245 132.594 71.1245C133.064 71.1245 133.394 71.4795 133.394 71.9895C133.394 72.4995 133.064 72.8545 132.594 72.8545C132.119 72.8545 131.794 72.4995 131.794 71.9895ZM134.957 73.2145H135.422L136.442 70.7695H135.952L135.407 72.1345C135.322 72.3495 135.242 72.5595 135.202 72.7195C135.162 72.5695 135.092 72.3645 135.007 72.1345L134.472 70.7695H133.972L134.957 73.2145ZM137.758 73.2745C138.363 73.2745 138.773 72.9795 138.893 72.4545H138.453C138.373 72.7345 138.133 72.8845 137.768 72.8845C137.303 72.8845 137.033 72.5995 136.998 72.0845L138.888 72.0795V71.9045C138.888 71.1795 138.433 70.6995 137.738 70.6995C137.028 70.6995 136.543 71.2295 136.543 71.9945C136.543 72.7545 137.038 73.2745 137.758 73.2745ZM137.738 71.0945C138.153 71.0945 138.418 71.3645 138.418 71.7695H137.008C137.068 71.3395 137.328 71.0945 137.738 71.0945ZM140.813 70.7495C140.718 70.7295 140.648 70.7195 140.563 70.7195C140.228 70.7195 139.983 70.8895 139.883 71.1445L139.853 70.7745H139.413V73.2145H139.883V71.9195C139.883 71.4495 140.158 71.1795 140.603 71.1795H140.813V70.7495ZM49.6737 80.2145V78.1645H50.1537V77.7695H49.6737V77.0045H49.2037V77.7695H48.7237V78.1645H49.2037V80.2145H49.6737ZM51.0455 80.2095V78.8795C51.0455 78.4595 51.2905 78.1295 51.7455 78.1295C52.0955 78.1295 52.3305 78.3295 52.3305 78.8245V80.2145H52.8005V78.7195C52.8005 78.0945 52.5005 77.6995 51.8755 77.6995C51.4955 77.6995 51.2005 77.8795 51.0455 78.1445V76.5345H50.5755V80.2095H51.0455ZM54.5065 80.2745C55.1115 80.2745 55.5215 79.9795 55.6415 79.4545H55.2015C55.1215 79.7345 54.8815 79.8845 54.5165 79.8845C54.0515 79.8845 53.7815 79.5995 53.7465 79.0845L55.6365 79.0795V78.9045C55.6365 78.1795 55.1815 77.6995 54.4865 77.6995C53.7765 77.6995 53.2915 78.2295 53.2915 78.9945C53.2915 79.7545 53.7865 80.2745 54.5065 80.2745ZM54.4865 78.0945C54.9015 78.0945 55.1665 78.3645 55.1665 78.7695H53.7565C53.8165 78.3395 54.0765 78.0945 54.4865 78.0945ZM57.5287 81.3095H57.9987V79.8145C58.1587 80.1145 58.4837 80.2795 58.8737 80.2795C59.5987 80.2795 60.0087 79.7195 60.0087 78.9745C60.0087 78.2245 59.5737 77.6995 58.8737 77.6995C58.4837 77.6995 58.1537 77.8745 57.9887 78.2095L57.9537 77.7695H57.5287V81.3095ZM58.0037 78.9945C58.0037 78.4845 58.2937 78.1295 58.7737 78.1295C59.2537 78.1295 59.5387 78.4895 59.5387 78.9945C59.5387 79.4945 59.2537 79.8545 58.7737 79.8545C58.2937 79.8545 58.0037 79.4945 58.0037 78.9945ZM61.2417 80.2745C61.6367 80.2745 61.9717 80.0995 62.0967 79.8195L62.1467 80.2145H62.5467V78.6795C62.5467 78.0195 62.1367 77.6995 61.5317 77.6995C60.9017 77.6995 60.4817 78.0345 60.4817 78.5445H60.8917C60.8917 78.2495 61.1167 78.0745 61.5117 78.0745C61.8417 78.0745 62.0867 78.2195 62.0867 78.6295V78.6995L61.3167 78.7595C60.7417 78.8045 60.4067 79.0845 60.4067 79.5345C60.4067 79.9795 60.7167 80.2745 61.2417 80.2745ZM61.3767 79.9095C61.0717 79.9095 60.8817 79.7795 60.8817 79.5195C60.8817 79.2795 61.0517 79.1195 61.4667 79.0795L62.0917 79.0295V79.1595C62.0917 79.6195 61.8217 79.9095 61.3767 79.9095ZM62.9976 79.5045C62.9976 79.9695 63.3626 80.2745 63.9376 80.2745C64.5176 80.2745 64.9176 79.9795 64.9176 79.5145C64.9176 79.1495 64.7126 78.9595 64.2976 78.8595L63.8676 78.7545C63.6276 78.6945 63.5076 78.5845 63.5076 78.4195C63.5076 78.1945 63.6726 78.0645 63.9676 78.0645C64.2526 78.0645 64.4176 78.2195 64.4276 78.4645H64.8776C64.8676 77.9995 64.5176 77.6995 63.9826 77.6995C63.4426 77.6995 63.0626 77.9845 63.0626 78.4345C63.0626 78.7945 63.2676 79.0095 63.7026 79.1145L64.1326 79.2145C64.3876 79.2795 64.4676 79.3795 64.4676 79.5445C64.4676 79.7695 64.2776 79.9045 63.9476 79.9045C63.6376 79.9045 63.4476 79.7545 63.4476 79.5045H62.9976ZM66.1288 80.2145V78.1645H66.6088V77.7695H66.1288V77.0045H65.6588V77.7695H65.1788V78.1645H65.6588V80.2145H66.1288ZM70.7278 80.2095V79.7545H69.0578L69.8078 79.1045C70.4478 78.5495 70.7028 78.1845 70.7028 77.6695C70.7028 76.9745 70.2378 76.5345 69.5128 76.5345C68.7778 76.5345 68.2878 77.0395 68.2728 77.8145H68.7628C68.7728 77.2995 69.0628 76.9745 69.5078 76.9745C69.9428 76.9745 70.2028 77.2445 70.2028 77.6995C70.2028 78.0845 70.0378 78.3295 69.4528 78.8345L68.2878 79.8395V80.2145L70.7278 80.2095ZM73.111 80.2145V78.7645C73.111 78.3745 73.346 78.1295 73.701 78.1295C74.031 78.1295 74.241 78.3395 74.241 78.7245V80.2145H74.706V78.7645C74.706 78.3745 74.941 78.1245 75.296 78.1245C75.626 78.1245 75.841 78.3445 75.841 78.7295V80.2145H76.301V78.6145C76.301 78.0495 75.961 77.6995 75.401 77.6995C75.021 77.6995 74.726 77.8895 74.611 78.1945C74.486 77.8895 74.216 77.6995 73.836 77.6995C73.491 77.6995 73.231 77.8595 73.106 78.0895L73.061 77.7695H72.641V80.2145H73.111ZM76.7925 78.9895C76.7925 79.7445 77.3325 80.2745 78.0675 80.2745C78.7975 80.2745 79.3375 79.7445 79.3375 78.9895C79.3375 78.2345 78.7975 77.7045 78.0675 77.7045C77.3325 77.7045 76.7925 78.2345 76.7925 78.9895ZM77.2675 78.9895C77.2675 78.4795 77.5925 78.1245 78.0675 78.1245C78.5375 78.1245 78.8675 78.4795 78.8675 78.9895C78.8675 79.4995 78.5375 79.8545 78.0675 79.8545C77.5925 79.8545 77.2675 79.4995 77.2675 78.9895ZM80.3278 80.2145V78.9195C80.3278 78.4445 80.5828 78.1295 81.0228 78.1295C81.3828 78.1295 81.6128 78.3295 81.6128 78.8245V80.2145H82.0828V78.7195C82.0828 78.0945 81.7878 77.6995 81.1428 77.6995C80.7978 77.6995 80.4878 77.8645 80.3328 78.1445L80.2828 77.7695H79.8578V80.2145H80.3278ZM83.4237 80.2145V78.1645H83.9037V77.7695H83.4237V77.0045H82.9537V77.7695H82.4737V78.1645H82.9537V80.2145H83.4237ZM84.7955 80.2095V78.8795C84.7955 78.4595 85.0405 78.1295 85.4955 78.1295C85.8455 78.1295 86.0805 78.3295 86.0805 78.8245V80.2145H86.5505V78.7195C86.5505 78.0945 86.2505 77.6995 85.6255 77.6995C85.2455 77.6995 84.9505 77.8795 84.7955 78.1445V76.5345H84.3255V80.2095H84.7955ZM86.9722 79.5045C86.9722 79.9695 87.3372 80.2745 87.9122 80.2745C88.4922 80.2745 88.8922 79.9795 88.8922 79.5145C88.8922 79.1495 88.6872 78.9595 88.2722 78.8595L87.8422 78.7545C87.6022 78.6945 87.4822 78.5845 87.4822 78.4195C87.4822 78.1945 87.6472 78.0645 87.9422 78.0645C88.2272 78.0645 88.3922 78.2195 88.4022 78.4645H88.8522C88.8422 77.9995 88.4922 77.6995 87.9572 77.6995C87.4172 77.6995 87.0372 77.9845 87.0372 78.4345C87.0372 78.7945 87.2422 79.0095 87.6772 79.1145L88.1072 79.2145C88.3622 79.2795 88.4422 79.3795 88.4422 79.5445C88.4422 79.7695 88.2522 79.9045 87.9222 79.9045C87.6122 79.9045 87.4222 79.7545 87.4222 79.5045H86.9722Z" fill="#1E1E1E"/>
<path d="M63.4938 227.233V228.703H63.9838V227.233L65.1988 225.088H64.6638L63.8638 226.533C63.7988 226.653 63.7888 226.683 63.7438 226.773C63.7038 226.688 63.6738 226.618 63.6238 226.533L62.8188 225.088H62.2688L63.4938 227.233ZM64.9378 227.478C64.9378 228.233 65.4778 228.763 66.2128 228.763C66.9428 228.763 67.4828 228.233 67.4828 227.478C67.4828 226.723 66.9428 226.193 66.2128 226.193C65.4778 226.193 64.9378 226.723 64.9378 227.478ZM65.4128 227.478C65.4128 226.968 65.7378 226.613 66.2128 226.613C66.6828 226.613 67.0128 226.968 67.0128 227.478C67.0128 227.988 66.6828 228.343 66.2128 228.343C65.7378 228.343 65.4128 227.988 65.4128 227.478ZM69.6345 226.258V227.548C69.6345 228.073 69.3995 228.348 68.9695 228.348C68.6095 228.348 68.3845 228.148 68.3845 227.623V226.258H67.9145V227.778C67.9145 228.378 68.2345 228.763 68.8045 228.763C69.1645 228.763 69.4895 228.588 69.6295 228.333L69.6795 228.703H70.0995V226.258H69.6345ZM72.6186 228.698V227.368C72.6186 226.948 72.8636 226.618 73.3186 226.618C73.6686 226.618 73.9036 226.818 73.9036 227.313V228.703H74.3736V227.208C74.3736 226.583 74.0736 226.188 73.4486 226.188C73.0686 226.188 72.7736 226.368 72.6186 226.633V225.023H72.1486V228.698H72.6186ZM75.7396 228.763C76.1346 228.763 76.4696 228.588 76.5946 228.308L76.6446 228.703H77.0446V227.168C77.0446 226.508 76.6346 226.188 76.0296 226.188C75.3996 226.188 74.9796 226.523 74.9796 227.033H75.3896C75.3896 226.738 75.6146 226.563 76.0096 226.563C76.3396 226.563 76.5846 226.708 76.5846 227.118V227.188L75.8146 227.248C75.2396 227.293 74.9046 227.573 74.9046 228.023C74.9046 228.468 75.2146 228.763 75.7396 228.763ZM75.8746 228.398C75.5696 228.398 75.3796 228.268 75.3796 228.008C75.3796 227.768 75.5496 227.608 75.9646 227.568L76.5896 227.518V227.648C76.5896 228.108 76.3196 228.398 75.8746 228.398ZM78.2828 228.703H78.7478L79.7678 226.258H79.2778L78.7328 227.623C78.6478 227.838 78.5678 228.048 78.5278 228.208C78.4878 228.058 78.4178 227.853 78.3328 227.623L77.7978 226.258H77.2978L78.2828 228.703ZM81.0845 228.763C81.6895 228.763 82.0995 228.468 82.2195 227.943H81.7795C81.6995 228.223 81.4595 228.373 81.0945 228.373C80.6295 228.373 80.3595 228.088 80.3245 227.573L82.2145 227.568V227.393C82.2145 226.668 81.7595 226.188 81.0645 226.188C80.3545 226.188 79.8695 226.718 79.8695 227.483C79.8695 228.243 80.3645 228.763 81.0845 228.763ZM81.0645 226.583C81.4795 226.583 81.7445 226.853 81.7445 227.258H80.3345C80.3945 226.828 80.6545 226.583 81.0645 226.583ZM85.0516 229.188H85.3716V228.753C86.0316 228.693 86.4566 228.293 86.4566 227.698C86.4566 227.198 86.1666 226.883 85.5666 226.748L85.3716 226.703V225.463C85.6966 225.508 85.8916 225.713 85.9116 226.033H86.3966C86.3616 225.453 85.9766 225.083 85.3716 225.028V224.598H85.0516V225.033C84.4016 225.088 83.9766 225.493 83.9766 226.063C83.9766 226.578 84.2816 226.908 84.8716 227.043L85.0516 227.083V228.328C84.6716 228.288 84.4366 228.078 84.4266 227.758H83.9266C83.9566 228.343 84.3916 228.718 85.0516 228.758V229.188ZM84.9716 226.608C84.6216 226.523 84.4566 226.338 84.4566 226.048C84.4566 225.728 84.6816 225.513 85.0516 225.463V226.628L84.9716 226.608ZM85.4666 227.183C85.8116 227.263 85.9766 227.448 85.9766 227.738C85.9766 228.053 85.7466 228.268 85.3716 228.318V227.163L85.4666 227.183ZM89.5923 227.973V227.538H89.1623V225.088H88.5273L86.8223 227.538V227.973H88.6923V228.703H89.1623V227.973H89.5923ZM87.3523 227.538L88.6923 225.608V227.538H87.3523ZM90.7686 228.508C90.7686 228.233 90.5986 228.058 90.3886 228.058C90.1886 228.058 90.0536 228.203 90.0536 228.403C90.0536 228.588 90.1936 228.708 90.3586 228.708C90.4186 228.708 90.4586 228.698 90.4936 228.678C90.4936 228.833 90.3486 228.968 90.1436 229.003V229.213C90.4986 229.168 90.7686 228.868 90.7686 228.508ZM91.1454 226.898C91.1454 228.023 91.7004 228.768 92.6354 228.768C93.5654 228.768 94.1204 228.023 94.1204 226.898C94.1204 225.778 93.5404 225.018 92.6354 225.018C91.7254 225.018 91.1454 225.778 91.1454 226.898ZM91.6304 226.898C91.6304 225.998 92.0004 225.458 92.6354 225.458C93.2704 225.458 93.6354 225.998 93.6354 226.898C93.6354 227.788 93.2704 228.328 92.6354 228.328C92.0004 228.328 91.6304 227.788 91.6304 226.898ZM95.8272 228.763C96.6072 228.763 97.1422 228.238 97.1422 227.488C97.1422 226.793 96.6672 226.278 95.9322 226.278C95.6622 226.278 95.4222 226.353 95.2322 226.498L95.4722 225.538H96.9272V225.088H95.1172L94.6772 226.943L95.0922 227.048C95.2572 226.843 95.5372 226.698 95.8422 226.698C96.3472 226.698 96.6422 227.043 96.6422 227.508C96.6422 227.998 96.3272 228.323 95.8372 228.323C95.3772 228.323 95.0922 228.038 95.0922 227.573H94.6072C94.6072 228.293 95.0872 228.763 95.8272 228.763ZM97.5663 226.898C97.5663 228.023 98.1213 228.768 99.0563 228.768C99.9863 228.768 100.541 228.023 100.541 226.898C100.541 225.778 99.9613 225.018 99.0563 225.018C98.1463 225.018 97.5663 225.778 97.5663 226.898ZM98.0513 226.898C98.0513 225.998 98.4213 225.458 99.0563 225.458C99.6913 225.458 100.056 225.998 100.056 226.898C100.056 227.788 99.6913 228.328 99.0563 228.328C98.4213 228.328 98.0513 227.788 98.0513 226.898ZM103.895 226.238C103.8 226.218 103.73 226.208 103.645 226.208C103.31 226.208 103.065 226.378 102.965 226.633L102.935 226.263H102.495V228.703H102.965V227.408C102.965 226.938 103.24 226.668 103.685 226.668H103.895V226.238ZM105.303 228.763C105.908 228.763 106.318 228.468 106.438 227.943H105.998C105.918 228.223 105.678 228.373 105.313 228.373C104.848 228.373 104.578 228.088 104.543 227.573L106.433 227.568V227.393C106.433 226.668 105.978 226.188 105.283 226.188C104.573 226.188 104.088 226.718 104.088 227.483C104.088 228.243 104.583 228.763 105.303 228.763ZM105.283 226.583C105.698 226.583 105.963 226.853 105.963 227.258H104.553C104.613 226.828 104.873 226.583 105.283 226.583ZM107.428 228.703V227.253C107.428 226.863 107.663 226.618 108.018 226.618C108.348 226.618 108.558 226.828 108.558 227.213V228.703H109.023V227.253C109.023 226.863 109.258 226.613 109.613 226.613C109.943 226.613 110.158 226.833 110.158 227.218V228.703H110.618V227.103C110.618 226.538 110.278 226.188 109.718 226.188C109.338 226.188 109.043 226.378 108.928 226.683C108.803 226.378 108.533 226.188 108.153 226.188C107.808 226.188 107.548 226.348 107.423 226.578L107.378 226.258H106.958V228.703H107.428ZM111.985 228.763C112.38 228.763 112.715 228.588 112.84 228.308L112.89 228.703H113.29V227.168C113.29 226.508 112.88 226.188 112.275 226.188C111.645 226.188 111.225 226.523 111.225 227.033H111.635C111.635 226.738 111.86 226.563 112.255 226.563C112.585 226.563 112.83 226.708 112.83 227.118V227.188L112.06 227.248C111.485 227.293 111.15 227.573 111.15 228.023C111.15 228.468 111.46 228.763 111.985 228.763ZM112.12 228.398C111.815 228.398 111.625 228.268 111.625 228.008C111.625 227.768 111.795 227.608 112.21 227.568L112.835 227.518V227.648C112.835 228.108 112.565 228.398 112.12 228.398ZM114.171 225.678C114.341 225.678 114.481 225.538 114.481 225.368C114.481 225.193 114.341 225.058 114.171 225.058C114.001 225.058 113.861 225.193 113.861 225.368C113.861 225.538 114.001 225.678 114.171 225.678ZM113.941 228.703H114.411V226.258H113.941V228.703ZM115.563 228.703V227.408C115.563 226.933 115.818 226.618 116.258 226.618C116.618 226.618 116.848 226.818 116.848 227.313V228.703H117.318V227.208C117.318 226.583 117.023 226.188 116.378 226.188C116.033 226.188 115.723 226.353 115.568 226.633L115.518 226.258H115.093V228.703H115.563ZM118.199 225.678C118.369 225.678 118.509 225.538 118.509 225.368C118.509 225.193 118.369 225.058 118.199 225.058C118.029 225.058 117.889 225.193 117.889 225.368C117.889 225.538 118.029 225.678 118.199 225.678ZM117.969 228.703H118.439V226.258H117.969V228.703ZM119.591 228.703V227.408C119.591 226.933 119.846 226.618 120.286 226.618C120.646 226.618 120.876 226.818 120.876 227.313V228.703H121.346V227.208C121.346 226.583 121.051 226.188 120.406 226.188C120.061 226.188 119.751 226.353 119.596 226.633L119.546 226.258H119.121V228.703H119.591ZM121.842 227.418C121.842 228.103 122.282 228.638 122.977 228.638C123.362 228.638 123.682 228.468 123.842 228.183V228.673C123.842 229.138 123.542 229.438 123.082 229.438C122.672 229.438 122.402 229.228 122.342 228.868H121.872C121.962 229.488 122.417 229.863 123.082 229.863C123.832 229.863 124.307 229.373 124.307 228.603V226.258H123.887L123.852 226.673C123.697 226.368 123.392 226.188 122.997 226.188C122.287 226.188 121.842 226.728 121.842 227.418ZM122.312 227.408C122.312 226.958 122.592 226.598 123.062 226.598C123.542 226.598 123.822 226.938 123.822 227.408C123.822 227.888 123.532 228.228 123.057 228.228C122.597 228.228 122.312 227.868 122.312 227.408ZM126.583 225.678C126.753 225.678 126.893 225.538 126.893 225.368C126.893 225.193 126.753 225.058 126.583 225.058C126.413 225.058 126.273 225.193 126.273 225.368C126.273 225.538 126.413 225.678 126.583 225.678ZM126.353 228.703H126.823V226.258H126.353V228.703ZM127.975 228.703V227.408C127.975 226.933 128.23 226.618 128.67 226.618C129.03 226.618 129.26 226.818 129.26 227.313V228.703H129.73V227.208C129.73 226.583 129.435 226.188 128.79 226.188C128.445 226.188 128.135 226.353 127.98 226.633L127.93 226.258H127.505V228.703H127.975ZM131.513 229.798C131.638 229.828 131.768 229.848 131.923 229.848C132.298 229.848 132.543 229.673 132.708 229.253L133.863 226.258H133.378L132.653 228.228L131.943 226.258H131.448L132.433 228.833L132.348 229.068C132.233 229.378 132.053 229.413 131.828 229.413H131.513V229.798ZM133.986 227.478C133.986 228.233 134.526 228.763 135.261 228.763C135.991 228.763 136.531 228.233 136.531 227.478C136.531 226.723 135.991 226.193 135.261 226.193C134.526 226.193 133.986 226.723 133.986 227.478ZM134.461 227.478C134.461 226.968 134.786 226.613 135.261 226.613C135.731 226.613 136.061 226.968 136.061 227.478C136.061 227.988 135.731 228.343 135.261 228.343C134.786 228.343 134.461 227.988 134.461 227.478ZM138.682 226.258V227.548C138.682 228.073 138.447 228.348 138.017 228.348C137.657 228.348 137.432 228.148 137.432 227.623V226.258H136.962V227.778C136.962 228.378 137.282 228.763 137.852 228.763C138.212 228.763 138.537 228.588 138.677 228.333L138.727 228.703H139.147V226.258H138.682ZM141.229 226.238C141.134 226.218 141.064 226.208 140.979 226.208C140.644 226.208 140.399 226.378 140.299 226.633L140.269 226.263H139.829V228.703H140.299V227.408C140.299 226.938 140.574 226.668 141.019 226.668H141.229V226.238ZM62.2988 233.258V233.653H62.6588V235.703H63.1288V233.653H63.7088V233.258H63.1288V232.868C63.1288 232.603 63.2088 232.448 63.5138 232.448H63.7238V232.043C63.6288 232.028 63.5238 232.023 63.4338 232.023C62.9888 232.023 62.6588 232.268 62.6588 232.868V233.258H62.2988ZM65.8357 233.258V234.548C65.8357 235.073 65.6007 235.348 65.1707 235.348C64.8107 235.348 64.5857 235.148 64.5857 234.623V233.258H64.1157V234.778C64.1157 235.378 64.4357 235.763 65.0057 235.763C65.3657 235.763 65.6907 235.588 65.8307 235.333L65.8807 235.703H66.3007V233.258H65.8357ZM67.4526 235.703V234.408C67.4526 233.933 67.7076 233.618 68.1476 233.618C68.5076 233.618 68.7376 233.818 68.7376 234.313V235.703H69.2076V234.208C69.2076 233.583 68.9126 233.188 68.2676 233.188C67.9226 233.188 67.6126 233.353 67.4576 233.633L67.4076 233.258H66.9826V235.703H67.4526ZM70.8386 235.763C71.2286 235.763 71.5586 235.593 71.7186 235.258L71.7586 235.703H72.1786V232.023H71.7136V233.653C71.5486 233.353 71.2336 233.188 70.8586 233.188C70.1336 233.188 69.6986 233.738 69.6986 234.488C69.6986 235.233 70.1286 235.763 70.8386 235.763ZM70.9336 235.338C70.4536 235.338 70.1736 234.978 70.1736 234.473C70.1736 233.973 70.4536 233.613 70.9336 233.613C71.4136 233.613 71.7086 233.973 71.7086 234.473C71.7086 234.983 71.4136 235.338 70.9336 235.338ZM72.6566 234.993C72.6566 235.458 73.0216 235.763 73.5966 235.763C74.1766 235.763 74.5766 235.468 74.5766 235.003C74.5766 234.638 74.3716 234.448 73.9566 234.348L73.5266 234.243C73.2866 234.183 73.1666 234.073 73.1666 233.908C73.1666 233.683 73.3316 233.553 73.6266 233.553C73.9116 233.553 74.0766 233.708 74.0866 233.953H74.5366C74.5266 233.488 74.1766 233.188 73.6416 233.188C73.1016 233.188 72.7216 233.473 72.7216 233.923C72.7216 234.283 72.9266 234.498 73.3616 234.603L73.7916 234.703C74.0466 234.768 74.1266 234.868 74.1266 235.033C74.1266 235.258 73.9366 235.393 73.6066 235.393C73.2966 235.393 73.1066 235.243 73.1066 234.993H72.6566ZM76.305 234.478C76.305 235.233 76.845 235.763 77.58 235.763C78.31 235.763 78.85 235.233 78.85 234.478C78.85 233.723 78.31 233.193 77.58 233.193C76.845 233.193 76.305 233.723 76.305 234.478ZM76.78 234.478C76.78 233.968 77.105 233.613 77.58 233.613C78.05 233.613 78.38 233.968 78.38 234.478C78.38 234.988 78.05 235.343 77.58 235.343C77.105 235.343 76.78 234.988 76.78 234.478ZM79.943 235.703H80.408L81.428 233.258H80.938L80.393 234.623C80.308 234.838 80.228 235.048 80.188 235.208C80.148 235.058 80.078 234.853 79.993 234.623L79.458 233.258H78.958L79.943 235.703ZM82.7446 235.763C83.3496 235.763 83.7596 235.468 83.8796 234.943H83.4396C83.3596 235.223 83.1196 235.373 82.7546 235.373C82.2896 235.373 82.0196 235.088 81.9846 234.573L83.8746 234.568V234.393C83.8746 233.668 83.4196 233.188 82.7246 233.188C82.0146 233.188 81.5296 233.718 81.5296 234.483C81.5296 235.243 82.0246 235.763 82.7446 235.763ZM82.7246 233.583C83.1396 233.583 83.4046 233.853 83.4046 234.258H81.9946C82.0546 233.828 82.3146 233.583 82.7246 233.583ZM85.7996 233.238C85.7046 233.218 85.6346 233.208 85.5496 233.208C85.2146 233.208 84.9696 233.378 84.8696 233.633L84.8396 233.263H84.3996V235.703H84.8696V234.408C84.8696 233.938 85.1446 233.668 85.5896 233.668H85.7996V233.238ZM88.2976 235.703V233.653H88.7776V233.258H88.2976V232.493H87.8276V233.258H87.3476V233.653H87.8276V235.703H88.2976ZM89.6694 235.698V234.368C89.6694 233.948 89.9144 233.618 90.3694 233.618C90.7194 233.618 90.9544 233.818 90.9544 234.313V235.703H91.4244V234.208C91.4244 233.583 91.1244 233.188 90.4994 233.188C90.1194 233.188 89.8244 233.368 89.6694 233.633V232.023H89.1994V235.698H89.6694ZM93.1304 235.763C93.7354 235.763 94.1454 235.468 94.2654 234.943H93.8254C93.7454 235.223 93.5054 235.373 93.1404 235.373C92.6754 235.373 92.4054 235.088 92.3704 234.573L94.2604 234.568V234.393C94.2604 233.668 93.8054 233.188 93.1104 233.188C92.4004 233.188 91.9154 233.718 91.9154 234.483C91.9154 235.243 92.4104 235.763 93.1304 235.763ZM93.1104 233.583C93.5254 233.583 93.7904 233.853 93.7904 234.258H92.3804C92.4404 233.828 92.7004 233.583 93.1104 233.583ZM96.6225 235.703V234.408C96.6225 233.933 96.8775 233.618 97.3175 233.618C97.6775 233.618 97.9075 233.818 97.9075 234.313V235.703H98.3775V234.208C98.3775 233.583 98.0825 233.188 97.4375 233.188C97.0925 233.188 96.7825 233.353 96.6275 233.633L96.5775 233.258H96.1525V235.703H96.6225ZM100.083 235.763C100.688 235.763 101.098 235.468 101.218 234.943H100.778C100.698 235.223 100.458 235.373 100.093 235.373C99.6285 235.373 99.3585 235.088 99.3235 234.573L101.213 234.568V234.393C101.213 233.668 100.758 233.188 100.063 233.188C99.3535 233.188 98.8685 233.718 98.8685 234.483C98.8685 235.243 99.3635 235.763 100.083 235.763ZM100.063 233.583C100.478 233.583 100.743 233.853 100.743 234.258H99.3335C99.3935 233.828 99.6535 233.583 100.063 233.583ZM101.896 235.703L102.496 234.808L103.106 235.703H103.651L102.816 234.493L103.666 233.258H103.131L102.526 234.168L101.906 233.258H101.361L102.211 234.493L101.356 235.703H101.896ZM104.845 235.703V233.653H105.325V233.258H104.845V232.493H104.375V233.258H103.895V233.653H104.375V235.703H104.845ZM107.709 232.528V235.703H108.179V232.088H106.949V232.528H107.709ZM110.036 235.763C110.816 235.763 111.351 235.238 111.351 234.488C111.351 233.793 110.876 233.278 110.141 233.278C109.871 233.278 109.631 233.353 109.441 233.498L109.681 232.538H111.136V232.088H109.326L108.886 233.943L109.301 234.048C109.466 233.843 109.746 233.698 110.051 233.698C110.556 233.698 110.851 234.043 110.851 234.508C110.851 234.998 110.536 235.323 110.046 235.323C109.586 235.323 109.301 235.038 109.301 234.573H108.816C108.816 235.293 109.296 235.763 110.036 235.763ZM114.217 235.763C114.607 235.763 114.937 235.593 115.097 235.258L115.137 235.703H115.557V232.023H115.092V233.653C114.927 233.353 114.612 233.188 114.237 233.188C113.512 233.188 113.077 233.738 113.077 234.488C113.077 235.233 113.507 235.763 114.217 235.763ZM114.312 235.338C113.832 235.338 113.552 234.978 113.552 234.473C113.552 233.973 113.832 233.613 114.312 233.613C114.792 233.613 115.087 233.973 115.087 234.473C115.087 234.983 114.792 235.338 114.312 235.338ZM116.951 235.763C117.346 235.763 117.681 235.588 117.806 235.308L117.856 235.703H118.256V234.168C118.256 233.508 117.846 233.188 117.241 233.188C116.611 233.188 116.191 233.523 116.191 234.033H116.601C116.601 233.738 116.826 233.563 117.221 233.563C117.551 233.563 117.796 233.708 117.796 234.118V234.188L117.026 234.248C116.451 234.293 116.116 234.573 116.116 235.023C116.116 235.468 116.426 235.763 116.951 235.763ZM117.086 235.398C116.781 235.398 116.591 235.268 116.591 235.008C116.591 234.768 116.761 234.608 117.176 234.568L117.801 234.518V234.648C117.801 235.108 117.531 235.398 117.086 235.398ZM118.613 236.798C118.738 236.828 118.868 236.848 119.023 236.848C119.398 236.848 119.643 236.673 119.808 236.253L120.963 233.258H120.478L119.753 235.228L119.043 233.258H118.548L119.533 235.833L119.448 236.068C119.333 236.378 119.153 236.413 118.928 236.413H118.613V236.798ZM121.104 234.993C121.104 235.458 121.469 235.763 122.044 235.763C122.624 235.763 123.024 235.468 123.024 235.003C123.024 234.638 122.819 234.448 122.404 234.348L121.974 234.243C121.734 234.183 121.614 234.073 121.614 233.908C121.614 233.683 121.779 233.553 122.074 233.553C122.359 233.553 122.524 233.708 122.534 233.953H122.984C122.974 233.488 122.624 233.188 122.089 233.188C121.549 233.188 121.169 233.473 121.169 233.923C121.169 234.283 121.374 234.498 121.809 234.603L122.239 234.703C122.494 234.768 122.574 234.868 122.574 235.033C122.574 235.258 122.384 235.393 122.054 235.393C121.744 235.393 121.554 235.243 121.554 234.993H121.104Z" fill="#1E1E1E"/>
<circle cx="159" cy="290" r="4.75" fill="#DA706B" stroke="#1E1E1E" stroke-width="0.5"/>
<path fill-rule="evenodd" clip-rule="evenodd" d="M159 292.5C160.381 292.5 161.5 291.381 161.5 290C161.5 288.619 160.381 287.5 159 287.5C157.619 287.5 156.5 288.619 156.5 290C156.5 291.381 157.619 292.5 159 292.5Z" fill="white"/>
<defs>
<filter id="filter0_b_2_618" x="-39" y="-49" width="258" height="415" filterUnits="userSpaceOnUse" color-interpolation-filters="sRGB">
<feFlood flood-opacity="0" result="BackgroundImageFix"/>
<feGaussianBlur in="BackgroundImageFix" stdDeviation="24.5"/>
<feComposite in2="SourceAlpha" operator="in" result="effect1_backgroundBlur_2_618"/>
<feBlend mode="normal" in="SourceGraphic" in2="effect1_backgroundBlur_2_618" result="shape"/>
</filter>
</defs>
</svg>
